<ttFont>
    <TTGlyph name="A" xMin="34" yMin="0" xMax="1189" yMax="1456">
      <contour>
        <pt x="967" y="435" on="1"/>
        <pt x="255" y="435" on="1"/>
        <pt x="93" y="0" on="1"/>
        <pt x="34" y="0" on="1"/>
        <pt x="578" y="1456" on="1"/>
        <pt x="644" y="1456" on="1"/>
        <pt x="1189" y="0" on="1"/>
        <pt x="1130" y="0" on="1"/>
      </contour>
      <contour>
        <pt x="275" y="489" on="1"/>
        <pt x="947" y="489" on="1"/>
        <pt x="642" y="1309" on="1"/>
        <pt x="614" y="1391" on="1"/>
        <pt x="608" y="1391" on="1"/>
        <pt x="581" y="1309" on="1"/>
      </contour>
    </TTGlyph>
    <TTGlyph name="A.smcp" xMin="66" yMin="0" xMax="1076" yMax="1165">
      <contour>
        <pt x="882" y="336" on="1"/>
        <pt x="260" y="336" on="1"/>
        <pt x="124" y="0" on="1"/>
        <pt x="66" y="0" on="1"/>
        <pt x="542" y="1165" on="1"/>
        <pt x="602" y="1165" on="1"/>
        <pt x="1076" y="0" on="1"/>
        <pt x="1018" y="0" on="1"/>
      </contour>
      <contour>
        <pt x="282" y="390" on="1"/>
        <pt x="860" y="390" on="1"/>
        <pt x="593" y="1054" on="1"/>
        <pt x="574" y="1106" on="1"/>
        <pt x="568" y="1105" on="1"/>
        <pt x="550" y="1052" on="1"/>
      </contour>
    </TTGlyph>
    <TTGlyph name="AE" xMin="50" yMin="0" xMax="1768" yMax="1456">
      <contour>
        <pt x="1768" y="0" on="1"/>
        <pt x="1016" y="0" on="1"/>
        <pt x="998" y="425" on="1"/>
        <pt x="370" y="425" on="1"/>
        <pt x="115" y="0" on="1"/>
        <pt x="50" y="0" on="1"/>
        <pt x="931" y="1456" on="1"/>
        <pt x="1707" y="1456" on="1"/>
        <pt x="1707" y="1402" on="1"/>
        <pt x="1011" y="1402" on="1"/>
        <pt x="1037" y="786" on="1"/>
        <pt x="1625" y="786" on="1"/>
        <pt x="1625" y="732" on="1"/>
        <pt x="1039" y="732" on="1"/>
        <pt x="1067" y="54" on="1"/>
        <pt x="1768" y="54" on="1"/>
      </contour>
      <contour>
        <pt x="402" y="478" on="1"/>
        <pt x="996" y="478" on="1"/>
        <pt x="957" y="1402" on="1"/>
        <pt x="952" y="1403" on="1"/>
        <pt x="895" y="1298" on="1"/>
      </contour>
    </TTGlyph>
    <TTGlyph name="AEacute" xMin="50" yMin="0" xMax="1768" yMax="1822">
      <component glyphName="AE" x="0" y="0" flags="0x204"/>
      <component glyphName="acute" x="805" y="344" flags="0x4"/>
    </TTGlyph>
    <TTGlyph name="Aacute" xMin="34" yMin="0" xMax="1189" yMax="1822">
      <component glyphName="A" x="0" y="0" flags="0x204"/>
      <component glyphName="acute" x="446" y="344" flags="0x4"/>
    </TTGlyph>
    <TTGlyph name="Aacute.smcp" xMin="66" yMin="0" xMax="1076" yMax="1499">
      <component glyphName="A.smcp" x="0" y="0" flags="0x204"/>
      <component glyphName="acute" x="401" y="21" flags="0x4"/>
    </TTGlyph>
    <TTGlyph name="Abreve" xMin="34" yMin="0" xMax="1189" yMax="1839">
      <component glyphName="A" x="0" y="0" flags="0x204"/>
      <component glyphName="breve" x="185" y="383" flags="0x4"/>
    </TTGlyph>
    <TTGlyph name="Abreve.smcp" xMin="66" yMin="0" xMax="1076" yMax="1516">
      <component glyphName="A.smcp" x="0" y="0" flags="0x204"/>
      <component glyphName="breve" x="140" y="60" flags="0x4"/>
    </TTGlyph>
    <TTGlyph name="Acircumflex" xMin="34" yMin="0" xMax="1189" yMax="1824">
      <component glyphName="A" x="0" y="0" flags="0x204"/>
      <component glyphName="circumflex" x="210" y="349" flags="0x4"/>
    </TTGlyph>
    <TTGlyph name="Acircumflex.smcp" xMin="66" yMin="0" xMax="1076" yMax="1501">
      <component glyphName="A.smcp" x="0" y="0" flags="0x204"/>
      <component glyphName="circumflex" x="165" y="26" flags="0x4"/>
    </TTGlyph>
    <TTGlyph name="Adieresis" xMin="34" yMin="0" xMax="1189" yMax="1791">
      <component glyphName="A" x="0" y="0" flags="0x204"/>
      <component glyphName="dieresis" x="162" y="335" flags="0x4"/>
    </TTGlyph>
    <TTGlyph name="Adieresis.smcp" xMin="66" yMin="0" xMax="1076" yMax="1468">
      <component glyphName="A.smcp" x="0" y="0" flags="0x204"/>
      <component glyphName="dieresis" x="117" y="12" flags="0x4"/>
    </TTGlyph>
    <TTGlyph name="Agrave" xMin="34" yMin="0" xMax="1189" yMax="1828">
      <component glyphName="A" x="0" y="0" flags="0x204"/>
      <component glyphName="grave" x="252" y="352" flags="0x4"/>
    </TTGlyph>
    <TTGlyph name="Agrave.smcp" xMin="66" yMin="0" xMax="1076" yMax="1505">
      <component glyphName="A.smcp" x="0" y="0" flags="0x204"/>
      <component glyphName="grave" x="207" y="29" flags="0x4"/>
    </TTGlyph>
    <TTGlyph name="Alpha" xMin="34" yMin="0" xMax="1189" yMax="1456">
      <component glyphName="A" x="0" y="0" flags="0x204"/>
    </TTGlyph>
    <TTGlyph name="Alphatonos" xMin="34" yMin="0" xMax="1189" yMax="1567">
      <component glyphName="A" x="0" y="0" flags="0x204"/>
      <component glyphName="tonos" x="-37" y="-1" flags="0x4"/>
    </TTGlyph>
    <TTGlyph name="Amacron" xMin="34" yMin="0" xMax="1189" yMax="1786">
      <component glyphName="A" x="0" y="0" flags="0x204"/>
      <component glyphName="macron" x="199" y="330" flags="0x4"/>
    </TTGlyph>
    <TTGlyph name="Amacron.smcp" xMin="66" yMin="0" xMax="1076" yMax="1463">
      <component glyphName="A.smcp" x="0" y="0" flags="0x204"/>
      <component glyphName="macron" x="154" y="7" flags="0x4"/>
    </TTGlyph>
    <TTGlyph name="Aogonek" xMin="34" yMin="-357" xMax="1241" yMax="1456">
      <component glyphName="A" x="0" y="0" flags="0x204"/>
      <component glyphName="ogonek" x="866" y="0" flags="0x4"/>
    </TTGlyph>
    <TTGlyph name="Aogonek.smcp" xMin="66" yMin="-357" xMax="1123" yMax="1165">
      <component glyphName="A.smcp" x="0" y="0" flags="0x204"/>
      <component glyphName="ogonek" x="748" y="0" flags="0x4"/>
    </TTGlyph>
    <TTGlyph name="Aring" xMin="34" yMin="0" xMax="1189" yMax="1865">
      <component glyphName="A" x="0" y="0" flags="0x204"/>
      <component glyphName="ring" x="270" y="388" flags="0x4"/>
    </TTGlyph>
    <TTGlyph name="Aring.smcp" xMin="66" yMin="0" xMax="1076" yMax="1542">
      <component glyphName="A.smcp" x="0" y="0" flags="0x204"/>
      <component glyphName="ring" x="225" y="65" flags="0x4"/>
    </TTGlyph>
    <TTGlyph name="Aringacute" xMin="34" yMin="0" xMax="1189" yMax="2080">
      <component glyphName="A" x="0" y="0" flags="0x204"/>
      <component glyphName="ringacute" x="279" y="352" flags="0x4"/>
    </TTGlyph>
    <TTGlyph name="Aringacute.smcp" xMin="66" yMin="0" xMax="1076" yMax="1757">
      <component glyphName="A.smcp" x="0" y="0" flags="0x204"/>
      <component glyphName="ringacute" x="234" y="29" flags="0x4"/>
    </TTGlyph>
    <TTGlyph name="Atilde" xMin="34" yMin="0" xMax="1189" yMax="1811">
      <component glyphName="A" x="0" y="0" flags="0x204"/>
      <component glyphName="tilde" x="195" y="329" flags="0x4"/>
    </TTGlyph>
    <TTGlyph name="Atilde.smcp" xMin="66" yMin="0" xMax="1076" yMax="1488">
      <component glyphName="A.smcp" x="0" y="0" flags="0x204"/>
      <component glyphName="tilde" x="150" y="6" flags="0x4"/>
    </TTGlyph>
    <TTGlyph name="B" xMin="200" yMin="0" xMax="1125" yMax="1456">
      <contour>
        <pt x="200" y="0" on="1"/>
        <pt x="200" y="1456" on="1"/>
        <pt x="583" y="1456" on="1"/>
        <pt x="809" y="1456" on="0"/>
        <pt x="1059" y="1270" on="0"/>
        <pt x="1059" y="1083" on="1"/>
        <pt x="1059" y="953" on="0"/>
        <pt x="925" y="775" on="0"/>
        <pt x="803" y="753" on="1"/>
        <pt x="939" y="735" on="0"/>
        <pt x="1125" y="533" on="0"/>
        <pt x="1125" y="401" on="1"/>
        <pt x="1125" y="210" on="0"/>
        <pt x="878" y="0" on="0"/>
        <pt x="675" y="0" on="1"/>
      </contour>
      <contour>
        <pt x="254" y="719" on="1"/>
        <pt x="254" y="54" on="1"/>
        <pt x="675" y="54" on="1"/>
        <pt x="859" y="54" on="0"/>
        <pt x="1071" y="236" on="0"/>
        <pt x="1071" y="399" on="1"/>
        <pt x="1071" y="533" on="0"/>
        <pt x="868" y="719" on="0"/>
        <pt x="685" y="719" on="1"/>
      </contour>
      <contour>
        <pt x="254" y="773" on="1"/>
        <pt x="603" y="773" on="1"/>
        <pt x="802" y="773" on="0"/>
        <pt x="1004" y="928" on="0"/>
        <pt x="1004" y="1087" on="1"/>
        <pt x="1004" y="1243" on="0"/>
        <pt x="791" y="1402" on="0"/>
        <pt x="583" y="1402" on="1"/>
        <pt x="254" y="1402" on="1"/>
      </contour>
    </TTGlyph>
    <TTGlyph name="B.smcp" xMin="181" yMin="0" xMax="985" yMax="1165">
      <contour>
        <pt x="181" y="0" on="1"/>
        <pt x="181" y="1165" on="1"/>
        <pt x="532" y="1165" on="1"/>
        <pt x="725" y="1165" on="0"/>
        <pt x="938" y="1015" on="0"/>
        <pt x="938" y="864" on="1"/>
        <pt x="938" y="765" on="0"/>
        <pt x="826" y="620" on="0"/>
        <pt x="725" y="598" on="1"/>
        <pt x="836" y="583" on="0"/>
        <pt x="985" y="421" on="0"/>
        <pt x="985" y="314" on="1"/>
        <pt x="985" y="162" on="0"/>
        <pt x="776" y="0" on="0"/>
        <pt x="602" y="0" on="1"/>
      </contour>
      <contour>
        <pt x="235" y="563" on="1"/>
        <pt x="235" y="54" on="1"/>
        <pt x="602" y="54" on="1"/>
        <pt x="756" y="54" on="0"/>
        <pt x="932" y="188" on="0"/>
        <pt x="932" y="313" on="1"/>
        <pt x="932" y="425" on="0"/>
        <pt x="753" y="563" on="0"/>
        <pt x="602" y="563" on="1"/>
      </contour>
      <contour>
        <pt x="235" y="617" on="1"/>
        <pt x="532" y="617" on="1"/>
        <pt x="705" y="617" on="0"/>
        <pt x="884" y="743" on="0"/>
        <pt x="884" y="867" on="1"/>
        <pt x="884" y="992" on="0"/>
        <pt x="707" y="1112" on="0"/>
        <pt x="532" y="1112" on="1"/>
        <pt x="235" y="1112" on="1"/>
      </contour>
    </TTGlyph>
    <TTGlyph name="Beta" xMin="200" yMin="0" xMax="1125" yMax="1456">
      <component glyphName="B" x="0" y="0" flags="0x204"/>
    </TTGlyph>
    <TTGlyph name="C" xMin="144" yMin="-21" xMax="1178" yMax="1477">
      <contour>
        <pt x="1172" y="446" on="1"/>
        <pt x="1174" y="440" on="1"/>
        <pt x="1178" y="216" on="0"/>
        <pt x="899" y="-21" on="0"/>
        <pt x="671" y="-21" on="1"/>
        <pt x="432" y="-21" on="0"/>
        <pt x="144" y="332" on="0"/>
        <pt x="144" y="619" on="1"/>
        <pt x="144" y="837" on="1"/>
        <pt x="144" y="1123" on="0"/>
        <pt x="432" y="1477" on="0"/>
        <pt x="671" y="1477" on="1"/>
        <pt x="899" y="1477" on="0"/>
        <pt x="1178" y="1239" on="0"/>
        <pt x="1174" y="1018" on="1"/>
        <pt x="1172" y="1012" on="1"/>
        <pt x="1126" y="1012" on="1"/>
        <pt x="1126" y="1209" on="0"/>
        <pt x="881" y="1423" on="0"/>
        <pt x="671" y="1423" on="1"/>
        <pt x="458" y="1423" on="0"/>
        <pt x="198" y="1101" on="0"/>
        <pt x="198" y="839" on="1"/>
        <pt x="198" y="619" on="1"/>
        <pt x="198" y="354" on="0"/>
        <pt x="458" y="33" on="0"/>
        <pt x="671" y="33" on="1"/>
        <pt x="881" y="33" on="0"/>
        <pt x="1126" y="239" on="0"/>
        <pt x="1126" y="446" on="1"/>
      </contour>
    </TTGlyph>
    <TTGlyph name="C.smcp" xMin="140" yMin="-17" xMax="1012" yMax="1181">
      <contour>
        <pt x="1005" y="359" on="1"/>
        <pt x="1008" y="353" on="1"/>
        <pt x="1012" y="172" on="0"/>
        <pt x="786" y="-17" on="0"/>
        <pt x="584" y="-17" on="1"/>
        <pt x="379" y="-17" on="0"/>
        <pt x="140" y="246" on="0"/>
        <pt x="140" y="461" on="1"/>
        <pt x="140" y="704" on="1"/>
        <pt x="140" y="918" on="0"/>
        <pt x="379" y="1181" on="0"/>
        <pt x="584" y="1181" on="1"/>
        <pt x="786" y="1181" on="0"/>
        <pt x="1012" y="992" on="0"/>
        <pt x="1008" y="813" on="1"/>
        <pt x="1005" y="807" on="1"/>
        <pt x="960" y="807" on="1"/>
        <pt x="960" y="964" on="0"/>
        <pt x="767" y="1127" on="0"/>
        <pt x="584" y="1127" on="1"/>
        <pt x="404" y="1127" on="0"/>
        <pt x="194" y="896" on="0"/>
        <pt x="194" y="705" on="1"/>
        <pt x="194" y="461" on="1"/>
        <pt x="194" y="269" on="0"/>
        <pt x="404" y="38" on="0"/>
        <pt x="584" y="38" on="1"/>
        <pt x="768" y="38" on="0"/>
        <pt x="960" y="195" on="0"/>
        <pt x="960" y="359" on="1"/>
      </contour>
    </TTGlyph>
    <TTGlyph name="Cacute" xMin="144" yMin="-21" xMax="1178" yMax="1843">
      <component glyphName="C" x="0" y="0" flags="0x204"/>
      <component glyphName="acute" x="512" y="365" flags="0x4"/>
    </TTGlyph>
    <TTGlyph name="Cacute.smcp" xMin="140" yMin="-17" xMax="1012" yMax="1515">
      <component glyphName="C.smcp" x="0" y="0" flags="0x204"/>
      <component glyphName="acute" x="401" y="37" flags="0x4"/>
    </TTGlyph>
    <TTGlyph name="Ccaron" xMin="144" yMin="-21" xMax="1178" yMax="1848">
      <component glyphName="C" x="0" y="0" flags="0x204"/>
      <component glyphName="caron" x="291" y="373" flags="0x4"/>
    </TTGlyph>
    <TTGlyph name="Ccaron.smcp" xMin="140" yMin="-17" xMax="1012" yMax="1520">
      <component glyphName="C.smcp" x="0" y="0" flags="0x204"/>
      <component glyphName="caron" x="180" y="45" flags="0x4"/>
    </TTGlyph>
    <TTGlyph name="Ccedilla" xMin="144" yMin="-444" xMax="1178" yMax="1477">
      <component glyphName="C" x="0" y="0" flags="0x204"/>
      <component glyphName="cedilla" x="472" y="-9" flags="0x4"/>
    </TTGlyph>
    <TTGlyph name="Ccedilla.smcp" xMin="140" yMin="-441" xMax="1012" yMax="1181">
      <component glyphName="C.smcp" x="0" y="0" flags="0x204"/>
      <component glyphName="cedilla" x="361" y="-6" flags="0x4"/>
    </TTGlyph>
    <TTGlyph name="Ccircumflex" xMin="144" yMin="-21" xMax="1178" yMax="1845">
      <component glyphName="C" x="0" y="0" flags="0x204"/>
      <component glyphName="circumflex" x="276" y="370" flags="0x4"/>
    </TTGlyph>
    <TTGlyph name="Ccircumflex.smcp" xMin="140" yMin="-17" xMax="1012" yMax="1517">
      <component glyphName="C.smcp" x="0" y="0" flags="0x204"/>
      <component glyphName="circumflex" x="165" y="42" flags="0x4"/>
    </TTGlyph>
    <TTGlyph name="Chi" xMin="53" yMin="0" xMax="1169" yMax="1456">
      <component glyphName="X" x="0" y="0" flags="0x204"/>
    </TTGlyph>
    <TTGlyph name="D" xMin="200" yMin="0" xMax="1204" yMax="1456">
      <contour>
        <pt x="200" y="0" on="1"/>
        <pt x="200" y="1456" on="1"/>
        <pt x="603" y="1456" on="1"/>
        <pt x="854" y="1456" on="0"/>
        <pt x="1204" y="1096" on="0"/>
        <pt x="1204" y="817" on="1"/>
        <pt x="1204" y="639" on="1"/>
        <pt x="1204" y="359" on="0"/>
        <pt x="854" y="0" on="0"/>
        <pt x="603" y="0" on="1"/>
      </contour>
      <contour>
        <pt x="254" y="1402" on="1"/>
        <pt x="254" y="54" on="1"/>
        <pt x="603" y="54" on="1"/>
        <pt x="830" y="54" on="0"/>
        <pt x="1150" y="386" on="0"/>
        <pt x="1150" y="639" on="1"/>
        <pt x="1150" y="820" on="1"/>
        <pt x="1150" y="1070" on="0"/>
        <pt x="830" y="1402" on="0"/>
        <pt x="603" y="1402" on="1"/>
      </contour>
    </TTGlyph>
    <TTGlyph name="D.smcp" xMin="181" yMin="0" xMax="1018" yMax="1165">
      <contour>
        <pt x="181" y="0" on="1"/>
        <pt x="181" y="1165" on="1"/>
        <pt x="557" y="1165" on="1"/>
        <pt x="749" y="1165" on="0"/>
        <pt x="1018" y="895" on="0"/>
        <pt x="1018" y="687" on="1"/>
        <pt x="1018" y="477" on="1"/>
        <pt x="1018" y="268" on="0"/>
        <pt x="749" y="0" on="0"/>
        <pt x="557" y="0" on="1"/>
      </contour>
      <contour>
        <pt x="235" y="1111" on="1"/>
        <pt x="235" y="54" on="1"/>
        <pt x="557" y="54" on="1"/>
        <pt x="726" y="54" on="0"/>
        <pt x="964" y="294" on="0"/>
        <pt x="964" y="477" on="1"/>
        <pt x="964" y="688" on="1"/>
        <pt x="964" y="870" on="0"/>
        <pt x="726" y="1111" on="0"/>
        <pt x="557" y="1111" on="1"/>
      </contour>
    </TTGlyph>
    <TTGlyph name="Dcaron" xMin="200" yMin="0" xMax="1204" yMax="1827">
      <component glyphName="D" x="0" y="0" flags="0x204"/>
      <component glyphName="caron" x="203" y="352" flags="0x4"/>
    </TTGlyph>
    <TTGlyph name="Dcaron.smcp" xMin="181" yMin="0" xMax="1018" yMax="1504">
      <component glyphName="D.smcp" x="0" y="0" flags="0x204"/>
      <component glyphName="caron" x="92" y="29" flags="0x4"/>
    </TTGlyph>
    <TTGlyph name="Dcroat" xMin="90" yMin="0" xMax="1234" yMax="1456">
      <contour>
        <pt x="230" y="0" on="1"/>
        <pt x="230" y="713" on="1"/>
        <pt x="90" y="713" on="1"/>
        <pt x="90" y="767" on="1"/>
        <pt x="230" y="767" on="1"/>
        <pt x="230" y="1456" on="1"/>
        <pt x="633" y="1456" on="1"/>
        <pt x="884" y="1456" on="0"/>
        <pt x="1234" y="1096" on="0"/>
        <pt x="1234" y="817" on="1"/>
        <pt x="1234" y="639" on="1"/>
        <pt x="1234" y="359" on="0"/>
        <pt x="884" y="0" on="0"/>
        <pt x="633" y="0" on="1"/>
      </contour>
      <contour>
        <pt x="677" y="713" on="1"/>
        <pt x="284" y="713" on="1"/>
        <pt x="284" y="54" on="1"/>
        <pt x="633" y="54" on="1"/>
        <pt x="860" y="54" on="0"/>
        <pt x="1180" y="386" on="0"/>
        <pt x="1180" y="639" on="1"/>
        <pt x="1180" y="820" on="1"/>
        <pt x="1180" y="1070" on="0"/>
        <pt x="860" y="1402" on="0"/>
        <pt x="633" y="1402" on="1"/>
        <pt x="284" y="1402" on="1"/>
        <pt x="284" y="767" on="1"/>
        <pt x="677" y="767" on="1"/>
      </contour>
    </TTGlyph>
    <TTGlyph name="Dcroat.smcp" xMin="-26" yMin="0" xMax="1018" yMax="1165">
      <component glyphName="D.smcp" x="0" y="0" flags="0x204"/>
      <component glyphName="crossbar" x="-134" y="-155" flags="0x4"/>
    </TTGlyph>
    <TTGlyph name="Delta" xMin="58" yMin="0" xMax="1356" yMax="1456">
      <contour>
        <pt x="674" y="1456" on="1"/>
        <pt x="739" y="1456" on="1"/>
        <pt x="1356" y="0" on="1"/>
        <pt x="58" y="0" on="1"/>
      </contour>
      <contour>
        <pt x="140" y="54" on="1"/>
        <pt x="1273" y="54" on="1"/>
        <pt x="736" y="1325" on="1"/>
        <pt x="709" y="1397" on="1"/>
        <pt x="703" y="1397" on="1"/>
        <pt x="676" y="1325" on="1"/>
      </contour>
    </TTGlyph>
    <TTGlyph name="E" xMin="200" yMin="0" xMax="1086" yMax="1456">
      <contour>
        <pt x="984" y="732" on="1"/>
        <pt x="254" y="732" on="1"/>
        <pt x="254" y="54" on="1"/>
        <pt x="1086" y="54" on="1"/>
        <pt x="1086" y="0" on="1"/>
        <pt x="200" y="0" on="1"/>
        <pt x="200" y="1456" on="1"/>
        <pt x="1086" y="1456" on="1"/>
        <pt x="1086" y="1402" on="1"/>
        <pt x="254" y="1402" on="1"/>
        <pt x="254" y="786" on="1"/>
        <pt x="984" y="786" on="1"/>
      </contour>
    </TTGlyph>
    <TTGlyph name="E.smcp" xMin="181" yMin="0" xMax="951" yMax="1165">
      <contour>
        <pt x="864" y="579" on="1"/>
        <pt x="235" y="579" on="1"/>
        <pt x="235" y="54" on="1"/>
        <pt x="951" y="54" on="1"/>
        <pt x="951" y="0" on="1"/>
        <pt x="181" y="0" on="1"/>
        <pt x="181" y="1165" on="1"/>
        <pt x="951" y="1165" on="1"/>
        <pt x="951" y="1111" on="1"/>
        <pt x="235" y="1111" on="1"/>
        <pt x="235" y="633" on="1"/>
        <pt x="864" y="633" on="1"/>
      </contour>
    </TTGlyph>
    <TTGlyph name="Eacute" xMin="200" yMin="0" xMax="1086" yMax="1822">
      <component glyphName="E" x="0" y="0" flags="0x204"/>
      <component glyphName="acute" x="453" y="344" flags="0x4"/>
    </TTGlyph>
    <TTGlyph name="Eacute.smcp" xMin="181" yMin="0" xMax="951" yMax="1499">
      <component glyphName="E.smcp" x="0" y="0" flags="0x204"/>
      <component glyphName="acute" x="372" y="21" flags="0x4"/>
    </TTGlyph>
    <TTGlyph name="Ebreve" xMin="200" yMin="0" xMax="1086" yMax="1839">
      <component glyphName="E" x="0" y="0" flags="0x204"/>
      <component glyphName="breve" x="192" y="383" flags="0x4"/>
    </TTGlyph>
    <TTGlyph name="Ebreve.smcp" xMin="181" yMin="0" xMax="951" yMax="1516">
      <component glyphName="E.smcp" x="0" y="0" flags="0x204"/>
      <component glyphName="breve" x="111" y="60" flags="0x4"/>
    </TTGlyph>
    <TTGlyph name="Ecaron" xMin="200" yMin="0" xMax="1086" yMax="1827">
      <component glyphName="E" x="0" y="0" flags="0x204"/>
      <component glyphName="caron" x="232" y="352" flags="0x4"/>
    </TTGlyph>
    <TTGlyph name="Ecaron.smcp" xMin="181" yMin="0" xMax="951" yMax="1504">
      <component glyphName="E.smcp" x="0" y="0" flags="0x204"/>
      <component glyphName="caron" x="151" y="29" flags="0x4"/>
    </TTGlyph>
    <TTGlyph name="Ecircumflex" xMin="200" yMin="0" xMax="1086" yMax="1824">
      <component glyphName="E" x="0" y="0" flags="0x204"/>
      <component glyphName="circumflex" x="217" y="349" flags="0x4"/>
    </TTGlyph>
    <TTGlyph name="Ecircumflex.smcp" xMin="181" yMin="0" xMax="951" yMax="1501">
      <component glyphName="E.smcp" x="0" y="0" flags="0x204"/>
      <component glyphName="circumflex" x="136" y="26" flags="0x4"/>
    </TTGlyph>
    <TTGlyph name="Edieresis" xMin="200" yMin="0" xMax="1086" yMax="1791">
      <component glyphName="E" x="0" y="0" flags="0x204"/>
      <component glyphName="dieresis" x="169" y="335" flags="0x4"/>
    </TTGlyph>
    <TTGlyph name="Edieresis.smcp" xMin="181" yMin="0" xMax="951" yMax="1468">
      <component glyphName="E.smcp" x="0" y="0" flags="0x204"/>
      <component glyphName="dieresis" x="88" y="12" flags="0x4"/>
    </TTGlyph>
    <TTGlyph name="Edotaccent" xMin="200" yMin="0" xMax="1086" yMax="1805">
      <component glyphName="E" x="0" y="0" flags="0x204"/>
      <component glyphName="dotaccent" x="415" y="349" flags="0x4"/>
    </TTGlyph>
    <TTGlyph name="Edotaccent.smcp" xMin="181" yMin="0" xMax="951" yMax="1482">
      <component glyphName="E.smcp" x="0" y="0" flags="0x204"/>
      <component glyphName="dotaccent" x="334" y="26" flags="0x4"/>
    </TTGlyph>
    <TTGlyph name="Egrave" xMin="200" yMin="0" xMax="1086" yMax="1828">
      <component glyphName="E" x="0" y="0" flags="0x204"/>
      <component glyphName="grave" x="259" y="352" flags="0x4"/>
    </TTGlyph>
    <TTGlyph name="Egrave.smcp" xMin="181" yMin="0" xMax="951" yMax="1505">
      <component glyphName="E.smcp" x="0" y="0" flags="0x204"/>
      <component glyphName="grave" x="178" y="29" flags="0x4"/>
    </TTGlyph>
    <TTGlyph name="Emacron" xMin="200" yMin="0" xMax="1086" yMax="1786">
      <component glyphName="E" x="0" y="0" flags="0x204"/>
      <component glyphName="macron" x="206" y="330" flags="0x4"/>
    </TTGlyph>
    <TTGlyph name="Emacron.smcp" xMin="181" yMin="0" xMax="951" yMax="1463">
      <component glyphName="E.smcp" x="0" y="0" flags="0x204"/>
      <component glyphName="macron" x="125" y="7" flags="0x4"/>
    </TTGlyph>
    <TTGlyph name="Eng" xMin="200" yMin="-437" xMax="1250" yMax="1456">
      <contour>
        <pt x="1250" y="1456" on="1"/>
        <pt x="1250" y="-89" on="1"/>
        <pt x="1250" y="-256" on="0"/>
        <pt x="1099" y="-437" on="0"/>
        <pt x="965" y="-437" on="1"/>
        <pt x="935" y="-437" on="0"/>
        <pt x="883" y="-427" on="0"/>
        <pt x="853" y="-417" on="1"/>
        <pt x="866" y="-365" on="1"/>
        <pt x="884" y="-372" on="0"/>
        <pt x="938" y="-383" on="0"/>
        <pt x="965" y="-383" on="1"/>
        <pt x="1075" y="-383" on="0"/>
        <pt x="1196" y="-229" on="0"/>
        <pt x="1196" y="-89" on="1"/>
        <pt x="1196" y="0" on="1"/>
        <pt x="260" y="1356" on="1"/>
        <pt x="254" y="1354" on="1"/>
        <pt x="254" y="0" on="1"/>
        <pt x="200" y="0" on="1"/>
        <pt x="200" y="1456" on="1"/>
        <pt x="254" y="1456" on="1"/>
        <pt x="1190" y="101" on="1"/>
        <pt x="1196" y="103" on="1"/>
        <pt x="1196" y="1456" on="1"/>
      </contour>
    </TTGlyph>
    <TTGlyph name="Eogonek" xMin="200" yMin="-357" xMax="1086" yMax="1456">
      <component glyphName="E" x="0" y="0" flags="0x204"/>
      <component glyphName="ogonek" x="340" y="0" flags="0x4"/>
    </TTGlyph>
    <TTGlyph name="Eogonek.smcp" xMin="181" yMin="-357" xMax="951" yMax="1165">
      <component glyphName="E.smcp" x="0" y="0" flags="0x204"/>
      <component glyphName="ogonek" x="278" y="0" flags="0x4"/>
    </TTGlyph>
    <TTGlyph name="Epsilon" xMin="200" yMin="0" xMax="1086" yMax="1456">
      <component glyphName="E" x="0" y="0" flags="0x204"/>
    </TTGlyph>
    <TTGlyph name="Epsilontonos" xMin="1" yMin="0" xMax="1186" yMax="1569">
      <component glyphName="E" x="100" y="0" flags="0x4"/>
      <component glyphName="tonos" x="-188" y="1" flags="0x4"/>
    </TTGlyph>
    <TTGlyph name="Eta" xMin="200" yMin="0" xMax="1238" yMax="1456">
      <component glyphName="H" x="0" y="0" flags="0x204"/>
    </TTGlyph>
    <TTGlyph name="Etatonos" xMin="13" yMin="0" xMax="1338" yMax="1569">
      <component glyphName="H" x="100" y="0" flags="0x4"/>
      <component glyphName="tonos" x="-176" y="1" flags="0x4"/>
    </TTGlyph>
    <TTGlyph name="Eth" xMin="90" yMin="0" xMax="1234" yMax="1456">
      <contour>
        <pt x="230" y="0" on="1"/>
        <pt x="230" y="713" on="1"/>
        <pt x="90" y="713" on="1"/>
        <pt x="90" y="767" on="1"/>
        <pt x="230" y="767" on="1"/>
        <pt x="230" y="1456" on="1"/>
        <pt x="633" y="1456" on="1"/>
        <pt x="884" y="1456" on="0"/>
        <pt x="1234" y="1096" on="0"/>
        <pt x="1234" y="817" on="1"/>
        <pt x="1234" y="639" on="1"/>
        <pt x="1234" y="359" on="0"/>
        <pt x="884" y="0" on="0"/>
        <pt x="633" y="0" on="1"/>
      </contour>
      <contour>
        <pt x="677" y="713" on="1"/>
        <pt x="284" y="713" on="1"/>
        <pt x="284" y="54" on="1"/>
        <pt x="633" y="54" on="1"/>
        <pt x="860" y="54" on="0"/>
        <pt x="1180" y="386" on="0"/>
        <pt x="1180" y="639" on="1"/>
        <pt x="1180" y="820" on="1"/>
        <pt x="1180" y="1070" on="0"/>
        <pt x="860" y="1402" on="0"/>
        <pt x="633" y="1402" on="1"/>
        <pt x="284" y="1402" on="1"/>
        <pt x="284" y="767" on="1"/>
        <pt x="677" y="767" on="1"/>
      </contour>
    </TTGlyph>
    <TTGlyph name="Eth.smcp" xMin="-26" yMin="0" xMax="1018" yMax="1165">
      <component glyphName="D.smcp" x="0" y="0" flags="0x204"/>
      <component glyphName="crossbar" x="-134" y="-155" flags="0x4"/>
    </TTGlyph>
    <TTGlyph name="Euro" xMin="82" yMin="-21" xMax="964" yMax="1477">
      <contour>
        <pt x="916" y="553" on="1"/>
        <pt x="323" y="553" on="1"/>
        <pt x="323" y="514" on="1"/>
        <pt x="323" y="295" on="0"/>
        <pt x="552" y="33" on="0"/>
        <pt x="744" y="33" on="1"/>
        <pt x="801" y="33" on="0"/>
        <pt x="913" y="50" on="0"/>
        <pt x="964" y="67" on="1"/>
        <pt x="964" y="10" on="1"/>
        <pt x="912" y="-5" on="0"/>
        <pt x="800" y="-21" on="0"/>
        <pt x="744" y="-21" on="1"/>
        <pt x="532" y="-21" on="0"/>
        <pt x="269" y="269" on="0"/>
        <pt x="269" y="514" on="1"/>
        <pt x="269" y="553" on="1"/>
        <pt x="82" y="553" on="1"/>
        <pt x="82" y="608" on="1"/>
        <pt x="269" y="608" on="1"/>
        <pt x="269" y="830" on="1"/>
        <pt x="82" y="830" on="1"/>
        <pt x="82" y="886" on="1"/>
        <pt x="269" y="886" on="1"/>
        <pt x="269" y="942" on="1"/>
        <pt x="269" y="1186" on="0"/>
        <pt x="530" y="1477" on="0"/>
        <pt x="742" y="1477" on="1"/>
        <pt x="796" y="1477" on="0"/>
        <pt x="902" y="1461" on="0"/>
        <pt x="964" y="1446" on="1"/>
        <pt x="964" y="1388" on="1"/>
        <pt x="911" y="1404" on="0"/>
        <pt x="798" y="1423" on="0"/>
        <pt x="742" y="1423" on="1"/>
        <pt x="549" y="1423" on="0"/>
        <pt x="323" y="1166" on="0"/>
        <pt x="323" y="944" on="1"/>
        <pt x="323" y="886" on="1"/>
        <pt x="916" y="886" on="1"/>
        <pt x="916" y="830" on="1"/>
        <pt x="323" y="830" on="1"/>
        <pt x="323" y="608" on="1"/>
        <pt x="916" y="608" on="1"/>
      </contour>
    </TTGlyph>
    <TTGlyph name="F" xMin="200" yMin="0" xMax="1102" yMax="1456">
      <contour>
        <pt x="1000" y="716" on="1"/>
        <pt x="254" y="716" on="1"/>
        <pt x="254" y="0" on="1"/>
        <pt x="200" y="0" on="1"/>
        <pt x="200" y="1456" on="1"/>
        <pt x="1102" y="1456" on="1"/>
        <pt x="1102" y="1402" on="1"/>
        <pt x="254" y="1402" on="1"/>
        <pt x="254" y="772" on="1"/>
        <pt x="1000" y="772" on="1"/>
      </contour>
    </TTGlyph>
    <TTGlyph name="F.smcp" xMin="181" yMin="0" xMax="948" yMax="1165">
      <contour>
        <pt x="861" y="566" on="1"/>
        <pt x="235" y="566" on="1"/>
        <pt x="235" y="0" on="1"/>
        <pt x="181" y="0" on="1"/>
        <pt x="181" y="1165" on="1"/>
        <pt x="948" y="1165" on="1"/>
        <pt x="948" y="1111" on="1"/>
        <pt x="235" y="1111" on="1"/>
        <pt x="235" y="621" on="1"/>
        <pt x="861" y="621" on="1"/>
      </contour>
    </TTGlyph>
    <TTGlyph name="G" xMin="168" yMin="-21" xMax="1226" yMax="1477">
      <contour>
        <pt x="1226" y="156" on="1"/>
        <pt x="1180" y="92" on="0"/>
        <pt x="919" y="-21" on="0"/>
        <pt x="729" y="-21" on="1"/>
        <pt x="479" y="-21" on="0"/>
        <pt x="168" y="335" on="0"/>
        <pt x="168" y="620" on="1"/>
        <pt x="168" y="858" on="1"/>
        <pt x="168" y="1132" on="0"/>
        <pt x="470" y="1477" on="0"/>
        <pt x="712" y="1477" on="1"/>
        <pt x="943" y="1477" on="0"/>
        <pt x="1214" y="1238" on="0"/>
        <pt x="1217" y="1049" on="1"/>
        <pt x="1215" y="1043" on="1"/>
        <pt x="1170" y="1043" on="1"/>
        <pt x="1162" y="1212" on="0"/>
        <pt x="929" y="1423" on="0"/>
        <pt x="712" y="1423" on="1"/>
        <pt x="491" y="1423" on="0"/>
        <pt x="222" y="1108" on="0"/>
        <pt x="222" y="860" on="1"/>
        <pt x="222" y="620" on="1"/>
        <pt x="222" y="360" on="0"/>
        <pt x="500" y="33" on="0"/>
        <pt x="729" y="33" on="1"/>
        <pt x="890" y="33" on="0"/>
        <pt x="1131" y="127" on="0"/>
        <pt x="1172" y="181" on="1"/>
        <pt x="1172" y="605" on="1"/>
        <pt x="727" y="605" on="1"/>
        <pt x="727" y="660" on="1"/>
        <pt x="1226" y="660" on="1"/>
      </contour>
    </TTGlyph>
    <TTGlyph name="G.smcp" xMin="140" yMin="-17" xMax="1046" yMax="1181">
      <contour>
        <pt x="1046" y="156" on="1"/>
        <pt x="1005" y="94" on="0"/>
        <pt x="784" y="-17" on="0"/>
        <pt x="621" y="-17" on="1"/>
        <pt x="406" y="-17" on="0"/>
        <pt x="140" y="248" on="0"/>
        <pt x="140" y="461" on="1"/>
        <pt x="140" y="704" on="1"/>
        <pt x="140" y="916" on="0"/>
        <pt x="398" y="1181" on="0"/>
        <pt x="607" y="1181" on="1"/>
        <pt x="815" y="1181" on="0"/>
        <pt x="1028" y="1014" on="0"/>
        <pt x="1040" y="853" on="1"/>
        <pt x="1038" y="847" on="1"/>
        <pt x="991" y="840" on="1"/>
        <pt x="974" y="987" on="0"/>
        <pt x="801" y="1127" on="0"/>
        <pt x="607" y="1127" on="1"/>
        <pt x="420" y="1127" on="0"/>
        <pt x="194" y="890" on="0"/>
        <pt x="194" y="705" on="1"/>
        <pt x="194" y="461" on="1"/>
        <pt x="194" y="273" on="0"/>
        <pt x="427" y="38" on="0"/>
        <pt x="621" y="38" on="1"/>
        <pt x="768" y="38" on="0"/>
        <pt x="957" y="122" on="0"/>
        <pt x="991" y="177" on="1"/>
        <pt x="991" y="481" on="1"/>
        <pt x="661" y="481" on="1"/>
        <pt x="661" y="536" on="1"/>
        <pt x="1046" y="536" on="1"/>
      </contour>
    </TTGlyph>
    <TTGlyph name="Gamma" xMin="193" yMin="0" xMax="1055" yMax="1456">
      <contour>
        <pt x="1055" y="1402" on="1"/>
        <pt x="247" y="1402" on="1"/>
        <pt x="247" y="0" on="1"/>
        <pt x="193" y="0" on="1"/>
        <pt x="193" y="1456" on="1"/>
        <pt x="1055" y="1456" on="1"/>
      </contour>
    </TTGlyph>
    <TTGlyph name="Gbreve" xMin="168" yMin="-21" xMax="1226" yMax="1860">
      <component glyphName="G" x="0" y="0" flags="0x204"/>
      <component glyphName="breve" x="242" y="404" flags="0x4"/>
    </TTGlyph>
    <TTGlyph name="Gbreve.smcp" xMin="140" yMin="-17" xMax="1046" yMax="1532">
      <component glyphName="G.smcp" x="0" y="0" flags="0x204"/>
      <component glyphName="breve" x="117" y="76" flags="0x4"/>
    </TTGlyph>
    <TTGlyph name="Gcircumflex" xMin="168" yMin="-21" xMax="1226" yMax="1845">
      <component glyphName="G" x="0" y="0" flags="0x204"/>
      <component glyphName="circumflex" x="267" y="370" flags="0x4"/>
    </TTGlyph>
    <TTGlyph name="Gcircumflex.smcp" xMin="140" yMin="-17" xMax="1046" yMax="1517">
      <component glyphName="G.smcp" x="0" y="0" flags="0x204"/>
      <component glyphName="circumflex" x="142" y="42" flags="0x4"/>
    </TTGlyph>
    <TTGlyph name="Gcommaaccent" xMin="168" yMin="-446" xMax="1226" yMax="1477">
      <component glyphName="G" x="0" y="0" flags="0x204"/>
      <component glyphName="commaaccent" x="483" y="-271" flags="0x4"/>
    </TTGlyph>
    <TTGlyph name="Gcommaaccent.smcp" xMin="140" yMin="-446" xMax="1046" yMax="1181">
      <component glyphName="G.smcp" x="0" y="0" flags="0x204"/>
      <component glyphName="commaaccent" x="350" y="-271" flags="0x4"/>
    </TTGlyph>
    <TTGlyph name="H" xMin="200" yMin="0" xMax="1238" yMax="1456">
      <contour>
        <pt x="1238" y="0" on="1"/>
        <pt x="1184" y="0" on="1"/>
        <pt x="1184" y="695" on="1"/>
        <pt x="254" y="695" on="1"/>
        <pt x="254" y="0" on="1"/>
        <pt x="200" y="0" on="1"/>
        <pt x="200" y="1456" on="1"/>
        <pt x="254" y="1456" on="1"/>
        <pt x="254" y="749" on="1"/>
        <pt x="1184" y="749" on="1"/>
        <pt x="1184" y="1456" on="1"/>
        <pt x="1238" y="1456" on="1"/>
      </contour>
    </TTGlyph>
    <TTGlyph name="H.smcp" xMin="181" yMin="0" xMax="1052" yMax="1165">
      <contour>
        <pt x="1052" y="0" on="1"/>
        <pt x="998" y="0" on="1"/>
        <pt x="998" y="549" on="1"/>
        <pt x="235" y="549" on="1"/>
        <pt x="235" y="0" on="1"/>
        <pt x="181" y="0" on="1"/>
        <pt x="181" y="1165" on="1"/>
        <pt x="235" y="1165" on="1"/>
        <pt x="235" y="603" on="1"/>
        <pt x="998" y="603" on="1"/>
        <pt x="998" y="1165" on="1"/>
        <pt x="1052" y="1165" on="1"/>
      </contour>
    </TTGlyph>
    <TTGlyph name="Hbar" xMin="20" yMin="0" xMax="1352" yMax="1456">
      <contour>
        <pt x="1197" y="1081" on="1"/>
        <pt x="1352" y="1081" on="1"/>
        <pt x="1352" y="1028" on="1"/>
        <pt x="1197" y="1028" on="1"/>
        <pt x="1197" y="0" on="1"/>
        <pt x="1143" y="0" on="1"/>
        <pt x="1143" y="695" on="1"/>
        <pt x="213" y="695" on="1"/>
        <pt x="213" y="0" on="1"/>
        <pt x="159" y="0" on="1"/>
        <pt x="159" y="1028" on="1"/>
        <pt x="20" y="1028" on="1"/>
        <pt x="20" y="1081" on="1"/>
        <pt x="159" y="1081" on="1"/>
        <pt x="159" y="1456" on="1"/>
        <pt x="213" y="1456" on="1"/>
        <pt x="213" y="1081" on="1"/>
        <pt x="1143" y="1081" on="1"/>
        <pt x="1143" y="1456" on="1"/>
        <pt x="1197" y="1456" on="1"/>
      </contour>
      <contour>
        <pt x="213" y="749" on="1"/>
        <pt x="1143" y="749" on="1"/>
        <pt x="1143" y="1028" on="1"/>
        <pt x="213" y="1028" on="1"/>
      </contour>
    </TTGlyph>
    <TTGlyph name="Hcircumflex" xMin="200" yMin="0" xMax="1238" yMax="1824">
      <component glyphName="H" x="0" y="0" flags="0x204"/>
      <component glyphName="circumflex" x="314" y="349" flags="0x4"/>
    </TTGlyph>
    <TTGlyph name="Hcircumflex.smcp" xMin="181" yMin="0" xMax="1052" yMax="1501">
      <component glyphName="H.smcp" x="0" y="0" flags="0x204"/>
      <component glyphName="circumflex" x="180" y="26" flags="0x4"/>
    </TTGlyph>
    <TTGlyph name="I" xMin="240" yMin="0" xMax="294" yMax="1456">
      <contour>
        <pt x="294" y="0" on="1"/>
        <pt x="240" y="0" on="1"/>
        <pt x="240" y="1456" on="1"/>
        <pt x="294" y="1456" on="1"/>
      </contour>
    </TTGlyph>
    <TTGlyph name="I.smcp" xMin="181" yMin="0" xMax="235" yMax="1165">
      <contour>
        <pt x="235" y="0" on="1"/>
        <pt x="181" y="0" on="1"/>
        <pt x="181" y="1165" on="1"/>
        <pt x="235" y="1165" on="1"/>
      </contour>
    </TTGlyph>
    <TTGlyph name="IJ" xMin="240" yMin="-21" xMax="1464" yMax="1456">
      <component glyphName="I" x="0" y="0" flags="0x4"/>
      <component glyphName="J" x="534" y="0" flags="0x4"/>
    </TTGlyph>
    <TTGlyph name="Iacute" xMin="211" yMin="0" xMax="511" yMax="1822">
      <component glyphName="I" x="0" y="0" flags="0x204"/>
      <component glyphName="acute" x="102" y="344" flags="0x4"/>
    </TTGlyph>
    <TTGlyph name="Iacute.smcp" xMin="152" yMin="0" xMax="452" yMax="1499">
      <component glyphName="I.smcp" x="0" y="0" flags="0x204"/>
      <component glyphName="acute" x="43" y="21" flags="0x4"/>
    </TTGlyph>
    <TTGlyph name="Ibreve" xMin="-10" yMin="0" xMax="544" yMax="1839">
      <component glyphName="I" x="0" y="0" flags="0x204"/>
      <component glyphName="breve" x="-158" y="383" flags="0x4"/>
    </TTGlyph>
    <TTGlyph name="Ibreve.smcp" xMin="-69" yMin="0" xMax="485" yMax="1516">
      <component glyphName="I.smcp" x="0" y="0" flags="0x204"/>
      <component glyphName="breve" x="-217" y="60" flags="0x4"/>
    </TTGlyph>
    <TTGlyph name="Icircumflex" xMin="19" yMin="0" xMax="523" yMax="1824">
      <component glyphName="I" x="0" y="0" flags="0x204"/>
      <component glyphName="circumflex" x="-133" y="349" flags="0x4"/>
    </TTGlyph>
    <TTGlyph name="Icircumflex.smcp" xMin="-40" yMin="0" xMax="464" yMax="1501">
      <component glyphName="I.smcp" x="0" y="0" flags="0x204"/>
      <component glyphName="circumflex" x="-192" y="26" flags="0x4"/>
    </TTGlyph>
    <TTGlyph name="Idieresis" xMin="-26" yMin="0" xMax="580" yMax="1791">
      <component glyphName="I" x="0" y="0" flags="0x204"/>
      <component glyphName="dieresis" x="-181" y="335" flags="0x4"/>
    </TTGlyph>
    <TTGlyph name="Idieresis.smcp" xMin="-85" yMin="0" xMax="521" yMax="1468">
      <component glyphName="I.smcp" x="0" y="0" flags="0x204"/>
      <component glyphName="dieresis" x="-240" y="12" flags="0x4"/>
    </TTGlyph>
    <TTGlyph name="Idotaccent" xMin="219" yMin="0" xMax="314" yMax="1805">
      <component glyphName="I" x="0" y="0" flags="0x204"/>
      <component glyphName="dotaccent" x="64" y="349" flags="0x4"/>
    </TTGlyph>
    <TTGlyph name="Idotaccent.smcp" xMin="160" yMin="0" xMax="255" yMax="1482">
      <component glyphName="I.smcp" x="0" y="0" flags="0x204"/>
      <component glyphName="dotaccent" x="5" y="26" flags="0x4"/>
    </TTGlyph>
    <TTGlyph name="Igrave" xMin="12" yMin="0" xMax="323" yMax="1828">
      <component glyphName="I" x="0" y="0" flags="0x204"/>
      <component glyphName="grave" x="-91" y="352" flags="0x4"/>
    </TTGlyph>
    <TTGlyph name="Igrave.smcp" xMin="-47" yMin="0" xMax="264" yMax="1505">
      <component glyphName="I.smcp" x="0" y="0" flags="0x204"/>
      <component glyphName="grave" x="-150" y="29" flags="0x4"/>
    </TTGlyph>
    <TTGlyph name="Imacron" xMin="-52" yMin="0" xMax="575" yMax="1786">
      <component glyphName="I" x="0" y="0" flags="0x204"/>
      <component glyphName="macron" x="-144" y="330" flags="0x4"/>
    </TTGlyph>
    <TTGlyph name="Imacron.smcp" xMin="-111" yMin="0" xMax="516" yMax="1463">
      <component glyphName="I.smcp" x="0" y="0" flags="0x204"/>
      <component glyphName="macron" x="-203" y="7" flags="0x4"/>
    </TTGlyph>
    <TTGlyph name="Iogonek" xMin="83" yMin="-357" xMax="347" yMax="1456">
      <component glyphName="I" x="0" y="0" flags="0x204"/>
      <component glyphName="ogonek" x="-28" y="0" flags="0x4"/>
    </TTGlyph>
    <TTGlyph name="Iogonek.smcp" xMin="72" yMin="-357" xMax="336" yMax="1165">
      <component glyphName="I.smcp" x="0" y="0" flags="0x204"/>
      <component glyphName="ogonek" x="-39" y="0" flags="0x4"/>
    </TTGlyph>
    <TTGlyph name="Iota" xMin="240" yMin="0" xMax="294" yMax="1456">
      <component glyphName="I" x="0" y="0" flags="0x204"/>
    </TTGlyph>
    <TTGlyph name="Iotadieresis" xMin="-26" yMin="0" xMax="580" yMax="1791">
      <component glyphName="I" x="0" y="0" flags="0x204"/>
      <component glyphName="dieresis" x="-181" y="335" flags="0x4"/>
    </TTGlyph>
    <TTGlyph name="Iotatonos" xMin="39" yMin="0" xMax="394" yMax="1564">
      <component glyphName="I" x="100" y="0" flags="0x4"/>
      <component glyphName="tonos" x="-150" y="-4" flags="0x4"/>
    </TTGlyph>
    <TTGlyph name="Itilde" xMin="-73" yMin="0" xMax="566" yMax="1811">
      <component glyphName="I" x="0" y="0" flags="0x204"/>
      <component glyphName="tilde" x="-148" y="329" flags="0x4"/>
    </TTGlyph>
    <TTGlyph name="Itilde.smcp" xMin="-132" yMin="0" xMax="507" yMax="1488">
      <component glyphName="I.smcp" x="0" y="0" flags="0x204"/>
      <component glyphName="tilde" x="-207" y="6" flags="0x4"/>
    </TTGlyph>
    <TTGlyph name="J" xMin="91" yMin="-21" xMax="930" yMax="1456">
      <contour>
        <pt x="876" y="1456" on="1"/>
        <pt x="930" y="1456" on="1"/>
        <pt x="930" y="422" on="1"/>
        <pt x="930" y="219" on="0"/>
        <pt x="701" y="-21" on="0"/>
        <pt x="521" y="-21" on="1"/>
        <pt x="321" y="-21" on="0"/>
        <pt x="91" y="191" on="0"/>
        <pt x="96" y="395" on="1"/>
        <pt x="98" y="401" on="1"/>
        <pt x="144" y="401" on="1"/>
        <pt x="144" y="223" on="0"/>
        <pt x="338" y="33" on="0"/>
        <pt x="521" y="33" on="1"/>
        <pt x="674" y="33" on="0"/>
        <pt x="876" y="243" on="0"/>
        <pt x="876" y="422" on="1"/>
      </contour>
    </TTGlyph>
    <TTGlyph name="J.smcp" xMin="92" yMin="-17" xMax="817" yMax="1165">
      <contour>
        <pt x="761" y="1165" on="1"/>
        <pt x="817" y="1165" on="1"/>
        <pt x="817" y="337" on="1"/>
        <pt x="817" y="176" on="0"/>
        <pt x="617" y="-17" on="0"/>
        <pt x="463" y="-17" on="1"/>
        <pt x="291" y="-17" on="0"/>
        <pt x="92" y="153" on="0"/>
        <pt x="97" y="314" on="1"/>
        <pt x="99" y="320" on="1"/>
        <pt x="145" y="320" on="1"/>
        <pt x="145" y="175" on="0"/>
        <pt x="306" y="38" on="0"/>
        <pt x="463" y="38" on="1"/>
        <pt x="592" y="38" on="0"/>
        <pt x="761" y="199" on="0"/>
        <pt x="761" y="337" on="1"/>
      </contour>
    </TTGlyph>
    <TTGlyph name="Jcircumflex" xMin="91" yMin="-21" xMax="1156" yMax="1794">
      <component glyphName="J" x="0" y="0" flags="0x204"/>
      <component glyphName="circumflex" x="500" y="319" flags="0x4"/>
    </TTGlyph>
    <TTGlyph name="Jcircumflex.smcp" xMin="92" yMin="-17" xMax="1034" yMax="1478">
      <component glyphName="J.smcp" x="0" y="0" flags="0x204"/>
      <component glyphName="circumflex" x="378" y="3" flags="0x4"/>
    </TTGlyph>
    <TTGlyph name="K" xMin="200" yMin="0" xMax="1222" yMax="1456">
      <contour>
        <pt x="477" y="711" on="1"/>
        <pt x="254" y="711" on="1"/>
        <pt x="254" y="0" on="1"/>
        <pt x="200" y="0" on="1"/>
        <pt x="200" y="1456" on="1"/>
        <pt x="254" y="1456" on="1"/>
        <pt x="254" y="764" on="1"/>
        <pt x="492" y="764" on="1"/>
        <pt x="1110" y="1456" on="1"/>
        <pt x="1174" y="1456" on="1"/>
        <pt x="1176" y="1451" on="1"/>
        <pt x="537" y="730" on="1"/>
        <pt x="1222" y="6" on="1"/>
        <pt x="1219" y="0" on="1"/>
        <pt x="1156" y="0" on="1"/>
      </contour>
    </TTGlyph>
    <TTGlyph name="K.smcp" xMin="181" yMin="0" xMax="1028" yMax="1165">
      <contour>
        <pt x="402" y="571" on="1"/>
        <pt x="235" y="571" on="1"/>
        <pt x="235" y="0" on="1"/>
        <pt x="181" y="0" on="1"/>
        <pt x="181" y="1165" on="1"/>
        <pt x="235" y="1165" on="1"/>
        <pt x="235" y="625" on="1"/>
        <pt x="413" y="625" on="1"/>
        <pt x="903" y="1165" on="1"/>
        <pt x="963" y="1165" on="1"/>
        <pt x="965" y="1160" on="1"/>
        <pt x="461" y="593" on="1"/>
        <pt x="1028" y="6" on="1"/>
        <pt x="1025" y="0" on="1"/>
        <pt x="962" y="0" on="1"/>
      </contour>
    </TTGlyph>
    <TTGlyph name="Kappa" xMin="200" yMin="0" xMax="1222" yMax="1456">
      <component glyphName="K" x="0" y="0" flags="0x204"/>
    </TTGlyph>
    <TTGlyph name="Kcommaaccent" xMin="200" yMin="-438" xMax="1222" yMax="1456">
      <component glyphName="K" x="0" y="0" flags="0x204"/>
      <component glyphName="commaaccent" x="377" y="-263" flags="0x4"/>
    </TTGlyph>
    <TTGlyph name="Kcommaaccent.smcp" xMin="181" yMin="-440" xMax="1028" yMax="1165">
      <component glyphName="K.smcp" x="0" y="0" flags="0x204"/>
      <component glyphName="commaaccent" x="267" y="-265" flags="0x4"/>
    </TTGlyph>
    <TTGlyph name="L" xMin="200" yMin="0" xMax="1002" yMax="1456">
      <contour>
        <pt x="255" y="54" on="1"/>
        <pt x="1002" y="54" on="1"/>
        <pt x="1002" y="0" on="1"/>
        <pt x="200" y="0" on="1"/>
        <pt x="200" y="1456" on="1"/>
        <pt x="255" y="1456" on="1"/>
      </contour>
    </TTGlyph>
    <TTGlyph name="L.smcp" xMin="181" yMin="0" xMax="858" yMax="1165">
      <contour>
        <pt x="235" y="54" on="1"/>
        <pt x="858" y="54" on="1"/>
        <pt x="858" y="0" on="1"/>
        <pt x="181" y="0" on="1"/>
        <pt x="181" y="1165" on="1"/>
        <pt x="235" y="1165" on="1"/>
      </contour>
    </TTGlyph>
    <TTGlyph name="Lacute" xMin="175" yMin="0" xMax="1002" yMax="1759">
      <component glyphName="L" x="0" y="0" flags="0x204"/>
      <component glyphName="acute" x="66" y="281" flags="0x4"/>
    </TTGlyph>
    <TTGlyph name="Lacute.smcp" xMin="112" yMin="0" xMax="858" yMax="1450">
      <component glyphName="L.smcp" x="0" y="0" flags="0x204"/>
      <component glyphName="acute" x="3" y="-28" flags="0x4"/>
    </TTGlyph>
    <TTGlyph name="Lambda" xMin="87" yMin="0" xMax="1221" yMax="1456">
      <contour>
        <pt x="146" y="0" on="1"/>
        <pt x="87" y="0" on="1"/>
        <pt x="621" y="1456" on="1"/>
        <pt x="686" y="1456" on="1"/>
        <pt x="1221" y="0" on="1"/>
        <pt x="1162" y="0" on="1"/>
        <pt x="683" y="1304" on="1"/>
        <pt x="656" y="1388" on="1"/>
        <pt x="650" y="1388" on="1"/>
        <pt x="623" y="1304" on="1"/>
      </contour>
    </TTGlyph>
    <TTGlyph name="Lcaron" xMin="200" yMin="0" xMax="1002" yMax="1456">
      <component glyphName="L" x="0" y="0" flags="0x204"/>
      <component glyphName="commaaccent" x="389" y="1339" flags="0x4"/>
    </TTGlyph>
    <TTGlyph name="Lcaron.smcp" xMin="181" yMin="0" xMax="858" yMax="1165">
      <component glyphName="L.smcp" x="0" y="0" flags="0x204"/>
      <component glyphName="commaaccent" x="260" y="1048" flags="0x4"/>
    </TTGlyph>
    <TTGlyph name="Lcommaaccent" xMin="200" yMin="-436" xMax="1002" yMax="1456">
      <component glyphName="L" x="0" y="0" flags="0x204"/>
      <component glyphName="commaaccent" x="379" y="-261" flags="0x4"/>
    </TTGlyph>
    <TTGlyph name="Lcommaaccent.smcp" xMin="181" yMin="-438" xMax="858" yMax="1165">
      <component glyphName="L.smcp" x="0" y="0" flags="0x204"/>
      <component glyphName="commaaccent" x="239" y="-263" flags="0x4"/>
    </TTGlyph>
    <TTGlyph name="Ldot" xMin="200" yMin="0" xMax="1002" yMax="1456">
      <component glyphName="L" x="0" y="0" flags="0x204"/>
      <component glyphName="dotaccent" x="449" y="-631" flags="0x4"/>
    </TTGlyph>
    <TTGlyph name="Ldot.smcp" xMin="181" yMin="0" xMax="858" yMax="1165">
      <component glyphName="L.smcp" x="0" y="0" flags="0x204"/>
      <component glyphName="dotaccent" x="313" y="-782" flags="0x4"/>
    </TTGlyph>
    <TTGlyph name="Lslash" xMin="8" yMin="0" xMax="994" yMax="1456">
      <contour>
        <pt x="247" y="791" on="1"/>
        <pt x="598" y="902" on="1"/>
        <pt x="598" y="845" on="1"/>
        <pt x="247" y="734" on="1"/>
        <pt x="247" y="54" on="1"/>
        <pt x="994" y="54" on="1"/>
        <pt x="994" y="0" on="1"/>
        <pt x="192" y="0" on="1"/>
        <pt x="192" y="716" on="1"/>
        <pt x="8" y="658" on="1"/>
        <pt x="8" y="715" on="1"/>
        <pt x="192" y="773" on="1"/>
        <pt x="192" y="1456" on="1"/>
        <pt x="247" y="1456" on="1"/>
      </contour>
    </TTGlyph>
    <TTGlyph name="M" xMin="200" yMin="0" xMax="1556" yMax="1456">
      <contour>
        <pt x="277" y="1456" on="1"/>
        <pt x="873" y="86" on="1"/>
        <pt x="879" y="86" on="1"/>
        <pt x="1477" y="1456" on="1"/>
        <pt x="1556" y="1456" on="1"/>
        <pt x="1556" y="0" on="1"/>
        <pt x="1502" y="0" on="1"/>
        <pt x="1502" y="1361" on="1"/>
        <pt x="1496" y="1363" on="1"/>
        <pt x="898" y="0" on="1"/>
        <pt x="855" y="0" on="1"/>
        <pt x="260" y="1356" on="1"/>
        <pt x="254" y="1354" on="1"/>
        <pt x="254" y="0" on="1"/>
        <pt x="200" y="0" on="1"/>
        <pt x="200" y="1456" on="1"/>
      </contour>
    </TTGlyph>
    <TTGlyph name="M.smcp" xMin="181" yMin="0" xMax="1304" yMax="1165">
      <contour>
        <pt x="744" y="89" on="1"/>
        <pt x="750" y="89" on="1"/>
        <pt x="1239" y="1165" on="1"/>
        <pt x="1304" y="1165" on="1"/>
        <pt x="1304" y="0" on="1"/>
        <pt x="1249" y="0" on="1"/>
        <pt x="1249" y="1039" on="1"/>
        <pt x="1243" y="1040" on="1"/>
        <pt x="768" y="0" on="1"/>
        <pt x="726" y="0" on="1"/>
        <pt x="241" y="1066" on="1"/>
        <pt x="235" y="1065" on="1"/>
        <pt x="235" y="0" on="1"/>
        <pt x="181" y="0" on="1"/>
        <pt x="181" y="1165" on="1"/>
        <pt x="255" y="1165" on="1"/>
      </contour>
    </TTGlyph>
    <TTGlyph name="Mu" xMin="200" yMin="0" xMax="1556" yMax="1456">
      <component glyphName="M" x="0" y="0" flags="0x204"/>
    </TTGlyph>
    <TTGlyph name="N" xMin="200" yMin="0" xMax="1249" yMax="1456">
      <contour>
        <pt x="1249" y="0" on="1"/>
        <pt x="1195" y="0" on="1"/>
        <pt x="261" y="1356" on="1"/>
        <pt x="255" y="1354" on="1"/>
        <pt x="255" y="0" on="1"/>
        <pt x="200" y="0" on="1"/>
        <pt x="200" y="1456" on="1"/>
        <pt x="255" y="1456" on="1"/>
        <pt x="1189" y="103" on="1"/>
        <pt x="1195" y="105" on="1"/>
        <pt x="1195" y="1456" on="1"/>
        <pt x="1249" y="1456" on="1"/>
      </contour>
    </TTGlyph>
    <TTGlyph name="N.smcp" xMin="181" yMin="0" xMax="1093" yMax="1165">
      <contour>
        <pt x="1093" y="0" on="1"/>
        <pt x="1039" y="0" on="1"/>
        <pt x="241" y="1066" on="1"/>
        <pt x="235" y="1065" on="1"/>
        <pt x="235" y="0" on="1"/>
        <pt x="181" y="0" on="1"/>
        <pt x="181" y="1165" on="1"/>
        <pt x="235" y="1165" on="1"/>
        <pt x="1033" y="100" on="1"/>
        <pt x="1039" y="101" on="1"/>
        <pt x="1039" y="1165" on="1"/>
        <pt x="1093" y="1165" on="1"/>
      </contour>
    </TTGlyph>
    <TTGlyph name="Nacute" xMin="200" yMin="0" xMax="1249" yMax="1822">
      <component glyphName="N" x="0" y="0" flags="0x204"/>
      <component glyphName="acute" x="560" y="344" flags="0x4"/>
    </TTGlyph>
    <TTGlyph name="Nacute.smcp" xMin="181" yMin="0" xMax="1093" yMax="1499">
      <component glyphName="N.smcp" x="0" y="0" flags="0x204"/>
      <component glyphName="acute" x="447" y="21" flags="0x4"/>
    </TTGlyph>
    <TTGlyph name="Ncaron" xMin="200" yMin="0" xMax="1249" yMax="1827">
      <component glyphName="N" x="0" y="0" flags="0x204"/>
      <component glyphName="caron" x="339" y="352" flags="0x4"/>
    </TTGlyph>
    <TTGlyph name="Ncaron.smcp" xMin="181" yMin="0" xMax="1093" yMax="1504">
      <component glyphName="N.smcp" x="0" y="0" flags="0x204"/>
      <component glyphName="caron" x="226" y="29" flags="0x4"/>
    </TTGlyph>
    <TTGlyph name="Ncommaaccent" xMin="200" yMin="-436" xMax="1249" yMax="1456">
      <component glyphName="N" x="0" y="0" flags="0x204"/>
      <component glyphName="commaaccent" x="480" y="-261" flags="0x4"/>
    </TTGlyph>
    <TTGlyph name="Ncommaaccent.smcp" xMin="181" yMin="-438" xMax="1093" yMax="1165">
      <component glyphName="N.smcp" x="0" y="0" flags="0x204"/>
      <component glyphName="commaaccent" x="367" y="-263" flags="0x4"/>
    </TTGlyph>
    <TTGlyph name="Ntilde" xMin="200" yMin="0" xMax="1249" yMax="1811">
      <component glyphName="N" x="0" y="0" flags="0x204"/>
      <component glyphName="tilde" x="309" y="329" flags="0x4"/>
    </TTGlyph>
    <TTGlyph name="Ntilde.smcp" xMin="181" yMin="0" xMax="1093" yMax="1488">
      <component glyphName="N.smcp" x="0" y="0" flags="0x204"/>
      <component glyphName="tilde" x="196" y="6" flags="0x4"/>
    </TTGlyph>
    <TTGlyph name="Nu" xMin="200" yMin="0" xMax="1249" yMax="1456">
      <component glyphName="N" x="0" y="0" flags="0x204"/>
    </TTGlyph>
    <TTGlyph name="O" xMin="133" yMin="-21" xMax="1231" yMax="1477">
      <contour>
        <pt x="1231" y="619" on="1"/>
        <pt x="1231" y="324" on="0"/>
        <pt x="939" y="-21" on="0"/>
        <pt x="683" y="-21" on="1"/>
        <pt x="426" y="-21" on="0"/>
        <pt x="133" y="324" on="0"/>
        <pt x="133" y="619" on="1"/>
        <pt x="133" y="837" on="1"/>
        <pt x="133" y="1131" on="0"/>
        <pt x="424" y="1477" on="0"/>
        <pt x="681" y="1477" on="1"/>
        <pt x="937" y="1477" on="0"/>
        <pt x="1231" y="1131" on="0"/>
        <pt x="1231" y="837" on="1"/>
      </contour>
      <contour>
        <pt x="1177" y="839" on="1"/>
        <pt x="1177" y="1107" on="0"/>
        <pt x="919" y="1423" on="0"/>
        <pt x="681" y="1423" on="1"/>
        <pt x="444" y="1423" on="0"/>
        <pt x="188" y="1107" on="0"/>
        <pt x="188" y="839" on="1"/>
        <pt x="188" y="619" on="1"/>
        <pt x="188" y="349" on="0"/>
        <pt x="445" y="33" on="0"/>
        <pt x="683" y="33" on="1"/>
        <pt x="921" y="33" on="0"/>
        <pt x="1177" y="348" on="0"/>
        <pt x="1177" y="619" on="1"/>
      </contour>
    </TTGlyph>
    <TTGlyph name="O.smcp" xMin="140" yMin="-17" xMax="1066" yMax="1181">
      <contour>
        <pt x="1066" y="461" on="1"/>
        <pt x="1066" y="240" on="0"/>
        <pt x="812" y="-17" on="0"/>
        <pt x="604" y="-17" on="1"/>
        <pt x="394" y="-17" on="0"/>
        <pt x="140" y="239" on="0"/>
        <pt x="140" y="461" on="1"/>
        <pt x="140" y="704" on="1"/>
        <pt x="140" y="924" on="0"/>
        <pt x="392" y="1181" on="0"/>
        <pt x="602" y="1181" on="1"/>
        <pt x="810" y="1181" on="0"/>
        <pt x="1066" y="924" on="0"/>
        <pt x="1066" y="704" on="1"/>
      </contour>
      <contour>
        <pt x="1012" y="705" on="1"/>
        <pt x="1012" y="911" on="0"/>
        <pt x="794" y="1127" on="0"/>
        <pt x="602" y="1127" on="1"/>
        <pt x="411" y="1127" on="0"/>
        <pt x="194" y="911" on="0"/>
        <pt x="194" y="705" on="1"/>
        <pt x="194" y="461" on="1"/>
        <pt x="194" y="254" on="0"/>
        <pt x="412" y="38" on="0"/>
        <pt x="604" y="38" on="1"/>
        <pt x="796" y="38" on="0"/>
        <pt x="1012" y="253" on="0"/>
        <pt x="1012" y="461" on="1"/>
      </contour>
    </TTGlyph>
    <TTGlyph name="OE" xMin="112" yMin="-21" xMax="1789" yMax="1477">
      <contour>
        <pt x="1789" y="0" on="1"/>
        <pt x="961" y="0" on="1"/>
        <pt x="858" y="-10" on="0"/>
        <pt x="708" y="-21" on="0"/>
        <pt x="631" y="-21" on="1"/>
        <pt x="400" y="-21" on="0"/>
        <pt x="112" y="311" on="0"/>
        <pt x="112" y="576" on="1"/>
        <pt x="112" y="880" on="1"/>
        <pt x="112" y="1145" on="0"/>
        <pt x="398" y="1477" on="0"/>
        <pt x="629" y="1477" on="1"/>
        <pt x="709" y="1477" on="0"/>
        <pt x="872" y="1465" on="0"/>
        <pt x="961" y="1456" on="1"/>
        <pt x="1789" y="1456" on="1"/>
        <pt x="1789" y="1402" on="1"/>
        <pt x="957" y="1402" on="1"/>
        <pt x="957" y="786" on="1"/>
        <pt x="1687" y="786" on="1"/>
        <pt x="1687" y="732" on="1"/>
        <pt x="957" y="732" on="1"/>
        <pt x="957" y="54" on="1"/>
        <pt x="1789" y="54" on="1"/>
      </contour>
      <contour>
        <pt x="631" y="33" on="1"/>
        <pt x="704" y="33" on="0"/>
        <pt x="844" y="38" on="0"/>
        <pt x="903" y="45" on="1"/>
        <pt x="903" y="1411" on="1"/>
        <pt x="843" y="1417" on="0"/>
        <pt x="706" y="1423" on="0"/>
        <pt x="629" y="1423" on="1"/>
        <pt x="418" y="1423" on="0"/>
        <pt x="166" y="1125" on="0"/>
        <pt x="166" y="882" on="1"/>
        <pt x="166" y="576" on="1"/>
        <pt x="166" y="336" on="0"/>
        <pt x="421" y="33" on="0"/>
      </contour>
    </TTGlyph>
    <TTGlyph name="Oacute" xMin="133" yMin="-21" xMax="1231" yMax="1843">
      <component glyphName="O" x="0" y="0" flags="0x204"/>
      <component glyphName="acute" x="510" y="365" flags="0x4"/>
    </TTGlyph>
    <TTGlyph name="Oacute.smcp" xMin="140" yMin="-17" xMax="1066" yMax="1515">
      <component glyphName="O.smcp" x="0" y="0" flags="0x204"/>
      <component glyphName="acute" x="411" y="37" flags="0x4"/>
    </TTGlyph>
    <TTGlyph name="Obreve" xMin="133" yMin="-21" xMax="1231" yMax="1860">
      <component glyphName="O" x="0" y="0" flags="0x204"/>
      <component glyphName="breve" x="249" y="404" flags="0x4"/>
    </TTGlyph>
    <TTGlyph name="Obreve.smcp" xMin="140" yMin="-17" xMax="1066" yMax="1532">
      <component glyphName="O.smcp" x="0" y="0" flags="0x204"/>
      <component glyphName="breve" x="150" y="76" flags="0x4"/>
    </TTGlyph>
    <TTGlyph name="Ocircumflex" xMin="133" yMin="-21" xMax="1231" yMax="1845">
      <component glyphName="O" x="0" y="0" flags="0x204"/>
      <component glyphName="circumflex" x="274" y="370" flags="0x4"/>
    </TTGlyph>
    <TTGlyph name="Ocircumflex.smcp" xMin="140" yMin="-17" xMax="1066" yMax="1517">
      <component glyphName="O.smcp" x="0" y="0" flags="0x204"/>
      <component glyphName="circumflex" x="175" y="42" flags="0x4"/>
    </TTGlyph>
    <TTGlyph name="Odieresis" xMin="133" yMin="-21" xMax="1231" yMax="1812">
      <component glyphName="O" x="0" y="0" flags="0x204"/>
      <component glyphName="dieresis" x="226" y="356" flags="0x4"/>
    </TTGlyph>
    <TTGlyph name="Odieresis.smcp" xMin="140" yMin="-17" xMax="1066" yMax="1484">
      <component glyphName="O.smcp" x="0" y="0" flags="0x204"/>
      <component glyphName="dieresis" x="127" y="28" flags="0x4"/>
    </TTGlyph>
    <TTGlyph name="Ograve" xMin="133" yMin="-21" xMax="1231" yMax="1849">
      <component glyphName="O" x="0" y="0" flags="0x204"/>
      <component glyphName="grave" x="316" y="373" flags="0x4"/>
    </TTGlyph>
    <TTGlyph name="Ograve.smcp" xMin="140" yMin="-17" xMax="1066" yMax="1521">
      <component glyphName="O.smcp" x="0" y="0" flags="0x204"/>
      <component glyphName="grave" x="217" y="45" flags="0x4"/>
    </TTGlyph>
    <TTGlyph name="Ohorn" xMin="164" yMin="-21" xMax="1527" yMax="1601">
      <contour>
        <pt x="1262" y="619" on="1"/>
        <pt x="1262" y="324" on="0"/>
        <pt x="970" y="-21" on="0"/>
        <pt x="714" y="-21" on="1"/>
        <pt x="457" y="-21" on="0"/>
        <pt x="164" y="324" on="0"/>
        <pt x="164" y="619" on="1"/>
        <pt x="164" y="837" on="1"/>
        <pt x="164" y="1131" on="0"/>
        <pt x="455" y="1477" on="0"/>
        <pt x="712" y="1477" on="1"/>
        <pt x="863" y="1477" on="0"/>
        <pt x="1093" y="1353" on="0"/>
        <pt x="1163" y="1238" on="1"/>
        <pt x="1316" y="1243" on="0"/>
        <pt x="1475" y="1429" on="0"/>
        <pt x="1475" y="1601" on="1"/>
        <pt x="1522" y="1601" on="1"/>
        <pt x="1525" y="1596" on="1"/>
        <pt x="1527" y="1410" on="0"/>
        <pt x="1352" y="1198" on="0"/>
        <pt x="1191" y="1186" on="1"/>
        <pt x="1225" y="1112" on="0"/>
        <pt x="1262" y="936" on="0"/>
        <pt x="1262" y="837" on="1"/>
      </contour>
      <contour>
        <pt x="1208" y="839" on="1"/>
        <pt x="1208" y="1107" on="0"/>
        <pt x="950" y="1423" on="0"/>
        <pt x="712" y="1423" on="1"/>
        <pt x="475" y="1423" on="0"/>
        <pt x="219" y="1107" on="0"/>
        <pt x="219" y="839" on="1"/>
        <pt x="219" y="619" on="1"/>
        <pt x="219" y="349" on="0"/>
        <pt x="476" y="33" on="0"/>
        <pt x="714" y="33" on="1"/>
        <pt x="952" y="33" on="0"/>
        <pt x="1208" y="348" on="0"/>
        <pt x="1208" y="619" on="1"/>
      </contour>
    </TTGlyph>
    <TTGlyph name="Ohungarumlaut" xMin="133" yMin="-21" xMax="1231" yMax="1888">
      <component glyphName="O" x="0" y="0" flags="0x204"/>
      <component glyphName="hungarumlaut" x="340" y="370" flags="0x4"/>
    </TTGlyph>
    <TTGlyph name="Ohungarumlaut.smcp" xMin="140" yMin="-17" xMax="1066" yMax="1560">
      <component glyphName="O.smcp" x="0" y="0" flags="0x204"/>
      <component glyphName="hungarumlaut" x="241" y="42" flags="0x4"/>
    </TTGlyph>
    <TTGlyph name="Omacron" xMin="133" yMin="-21" xMax="1231" yMax="1807">
      <component glyphName="O" x="0" y="0" flags="0x204"/>
      <component glyphName="macron" x="263" y="351" flags="0x4"/>
    </TTGlyph>
    <TTGlyph name="Omacron.smcp" xMin="140" yMin="-17" xMax="1066" yMax="1479">
      <component glyphName="O.smcp" x="0" y="0" flags="0x204"/>
      <component glyphName="macron" x="164" y="23" flags="0x4"/>
    </TTGlyph>
    <TTGlyph name="Omega" xMin="122" yMin="0" xMax="1195" yMax="1477">
      <contour>
        <pt x="761" y="78" on="1"/>
        <pt x="914" y="155" on="0"/>
        <pt x="1120" y="461" on="0"/>
        <pt x="1120" y="732" on="1"/>
        <pt x="1120" y="851" on="1"/>
        <pt x="1120" y="1096" on="0"/>
        <pt x="863" y="1423" on="0"/>
        <pt x="655" y="1423" on="1"/>
        <pt x="446" y="1423" on="0"/>
        <pt x="192" y="1096" on="0"/>
        <pt x="192" y="851" on="1"/>
        <pt x="192" y="732" on="1"/>
        <pt x="192" y="461" on="0"/>
        <pt x="401" y="155" on="0"/>
        <pt x="557" y="78" on="1"/>
        <pt x="557" y="0" on="1"/>
        <pt x="122" y="0" on="1"/>
        <pt x="122" y="54" on="1"/>
        <pt x="488" y="54" on="1"/>
        <pt x="336" y="141" on="0"/>
        <pt x="138" y="472" on="0"/>
        <pt x="138" y="732" on="1"/>
        <pt x="138" y="849" on="1"/>
        <pt x="138" y="1131" on="0"/>
        <pt x="423" y="1477" on="0"/>
        <pt x="655" y="1477" on="1"/>
        <pt x="886" y="1477" on="0"/>
        <pt x="1174" y="1131" on="0"/>
        <pt x="1174" y="849" on="1"/>
        <pt x="1174" y="732" on="1"/>
        <pt x="1174" y="472" on="0"/>
        <pt x="977" y="143" on="0"/>
        <pt x="827" y="54" on="1"/>
        <pt x="1195" y="54" on="1"/>
        <pt x="1195" y="0" on="1"/>
        <pt x="761" y="0" on="1"/>
      </contour>
    </TTGlyph>
    <TTGlyph name="Omegatonos" xMin="110" yMin="0" xMax="1215" yMax="1567">
      <component glyphName="Omega" x="20" y="0" flags="0x4"/>
      <component glyphName="tonos" x="-79" y="-1" flags="0x4"/>
    </TTGlyph>
    <TTGlyph name="Omicron" xMin="133" yMin="-21" xMax="1231" yMax="1477">
      <component glyphName="O" x="0" y="0" flags="0x204"/>
    </TTGlyph>
    <TTGlyph name="Omicrontonos" xMin="50" yMin="-21" xMax="1251" yMax="1567">
      <component glyphName="O" x="20" y="0" flags="0x4"/>
      <component glyphName="tonos" x="-139" y="-1" flags="0x4"/>
    </TTGlyph>
    <TTGlyph name="Oslash" xMin="133" yMin="-75" xMax="1251" yMax="1495">
      <contour>
        <pt x="1231" y="619" on="1"/>
        <pt x="1231" y="324" on="0"/>
        <pt x="939" y="-21" on="0"/>
        <pt x="683" y="-21" on="1"/>
        <pt x="584" y="-21" on="0"/>
        <pt x="419" y="31" on="0"/>
        <pt x="353" y="82" on="1"/>
        <pt x="254" y="-75" on="1"/>
        <pt x="188" y="-75" on="1"/>
        <pt x="311" y="118" on="1"/>
        <pt x="224" y="202" on="0"/>
        <pt x="133" y="457" on="0"/>
        <pt x="133" y="619" on="1"/>
        <pt x="133" y="837" on="1"/>
        <pt x="133" y="1131" on="0"/>
        <pt x="424" y="1477" on="0"/>
        <pt x="681" y="1477" on="1"/>
        <pt x="802" y="1477" on="0"/>
        <pt x="1000" y="1394" on="0"/>
        <pt x="1072" y="1317" on="1"/>
        <pt x="1185" y="1495" on="1"/>
        <pt x="1251" y="1495" on="1"/>
        <pt x="1109" y="1272" on="1"/>
        <pt x="1168" y="1189" on="0"/>
        <pt x="1231" y="968" on="0"/>
        <pt x="1231" y="837" on="1"/>
      </contour>
      <contour>
        <pt x="188" y="619" on="1"/>
        <pt x="188" y="473" on="0"/>
        <pt x="264" y="243" on="0"/>
        <pt x="338" y="172" on="1"/>
        <pt x="344" y="171" on="1"/>
        <pt x="1043" y="1271" on="1"/>
        <pt x="978" y="1344" on="0"/>
        <pt x="796" y="1423" on="0"/>
        <pt x="681" y="1423" on="1"/>
        <pt x="444" y="1423" on="0"/>
        <pt x="188" y="1107" on="0"/>
        <pt x="188" y="839" on="1"/>
      </contour>
      <contour>
        <pt x="1177" y="839" on="1"/>
        <pt x="1177" y="954" on="0"/>
        <pt x="1128" y="1148" on="0"/>
        <pt x="1081" y="1217" on="1"/>
        <pt x="1075" y="1218" on="1"/>
        <pt x="382" y="127" on="1"/>
        <pt x="441" y="80" on="0"/>
        <pt x="592" y="33" on="0"/>
        <pt x="683" y="33" on="1"/>
        <pt x="921" y="33" on="0"/>
        <pt x="1177" y="348" on="0"/>
        <pt x="1177" y="619" on="1"/>
      </contour>
    </TTGlyph>
    <TTGlyph name="Oslashacute" xMin="133" yMin="-75" xMax="1251" yMax="1884">
      <component glyphName="Oslash" x="0" y="0" flags="0x204"/>
      <component glyphName="acute" x="546" y="406" flags="0x4"/>
    </TTGlyph>
    <TTGlyph name="Otilde" xMin="133" yMin="-21" xMax="1231" yMax="1832">
      <component glyphName="O" x="0" y="0" flags="0x204"/>
      <component glyphName="tilde" x="259" y="350" flags="0x4"/>
    </TTGlyph>
    <TTGlyph name="Otilde.smcp" xMin="140" yMin="-17" xMax="1066" yMax="1504">
      <component glyphName="O.smcp" x="0" y="0" flags="0x204"/>
      <component glyphName="tilde" x="160" y="22" flags="0x4"/>
    </TTGlyph>
    <TTGlyph name="P" xMin="200" yMin="0" xMax="1125" yMax="1456">
      <contour>
        <pt x="254" y="625" on="1"/>
        <pt x="254" y="0" on="1"/>
        <pt x="200" y="0" on="1"/>
        <pt x="200" y="1456" on="1"/>
        <pt x="655" y="1456" on="1"/>
        <pt x="881" y="1456" on="0"/>
        <pt x="1125" y="1229" on="0"/>
        <pt x="1125" y="1041" on="1"/>
        <pt x="1125" y="851" on="0"/>
        <pt x="882" y="625" on="0"/>
        <pt x="655" y="625" on="1"/>
      </contour>
      <contour>
        <pt x="254" y="679" on="1"/>
        <pt x="655" y="679" on="1"/>
        <pt x="862" y="679" on="0"/>
        <pt x="1071" y="885" on="0"/>
        <pt x="1071" y="1039" on="1"/>
        <pt x="1071" y="1197" on="0"/>
        <pt x="863" y="1402" on="0"/>
        <pt x="655" y="1402" on="1"/>
        <pt x="254" y="1402" on="1"/>
      </contour>
    </TTGlyph>
    <TTGlyph name="P.smcp" xMin="181" yMin="0" xMax="987" yMax="1165">
      <contour>
        <pt x="235" y="450" on="1"/>
        <pt x="235" y="0" on="1"/>
        <pt x="181" y="0" on="1"/>
        <pt x="181" y="1165" on="1"/>
        <pt x="602" y="1165" on="1"/>
        <pt x="783" y="1165" on="0"/>
        <pt x="987" y="966" on="0"/>
        <pt x="987" y="808" on="1"/>
        <pt x="987" y="648" on="0"/>
        <pt x="783" y="450" on="0"/>
        <pt x="602" y="450" on="1"/>
      </contour>
      <contour>
        <pt x="235" y="505" on="1"/>
        <pt x="602" y="505" on="1"/>
        <pt x="766" y="505" on="0"/>
        <pt x="933" y="679" on="0"/>
        <pt x="933" y="806" on="1"/>
        <pt x="933" y="936" on="0"/>
        <pt x="767" y="1111" on="0"/>
        <pt x="602" y="1111" on="1"/>
        <pt x="235" y="1111" on="1"/>
      </contour>
    </TTGlyph>
    <TTGlyph name="Phi" xMin="124" yMin="0" xMax="1306" yMax="1456">
      <contour>
        <pt x="741" y="1225" on="1"/>
        <pt x="998" y="1218" on="0"/>
        <pt x="1306" y="930" on="0"/>
        <pt x="1306" y="719" on="1"/>
        <pt x="1306" y="506" on="0"/>
        <pt x="998" y="215" on="0"/>
        <pt x="741" y="209" on="1"/>
        <pt x="741" y="0" on="1"/>
        <pt x="686" y="0" on="1"/>
        <pt x="686" y="209" on="1"/>
        <pt x="429" y="216" on="0"/>
        <pt x="124" y="504" on="0"/>
        <pt x="124" y="717" on="1"/>
        <pt x="124" y="927" on="0"/>
        <pt x="429" y="1217" on="0"/>
        <pt x="686" y="1225" on="1"/>
        <pt x="686" y="1456" on="1"/>
        <pt x="741" y="1456" on="1"/>
      </contour>
      <contour>
        <pt x="1251" y="719" on="1"/>
        <pt x="1251" y="911" on="0"/>
        <pt x="976" y="1163" on="0"/>
        <pt x="746" y="1166" on="1"/>
        <pt x="741" y="1164" on="1"/>
        <pt x="741" y="270" on="1"/>
        <pt x="746" y="268" on="1"/>
        <pt x="976" y="270" on="0"/>
        <pt x="1251" y="524" on="0"/>
      </contour>
      <contour>
        <pt x="179" y="717" on="1"/>
        <pt x="179" y="523" on="0"/>
        <pt x="451" y="271" on="0"/>
        <pt x="681" y="268" on="1"/>
        <pt x="686" y="270" on="1"/>
        <pt x="686" y="1164" on="1"/>
        <pt x="681" y="1166" on="1"/>
        <pt x="452" y="1162" on="0"/>
        <pt x="179" y="907" on="0"/>
      </contour>
    </TTGlyph>
    <TTGlyph name="Pi" xMin="200" yMin="0" xMax="1238" yMax="1456">
      <contour>
        <pt x="1238" y="0" on="1"/>
        <pt x="1184" y="0" on="1"/>
        <pt x="1184" y="1402" on="1"/>
        <pt x="254" y="1402" on="1"/>
        <pt x="254" y="0" on="1"/>
        <pt x="200" y="0" on="1"/>
        <pt x="200" y="1456" on="1"/>
        <pt x="1238" y="1456" on="1"/>
      </contour>
    </TTGlyph>
    <TTGlyph name="Psi" xMin="156" yMin="0" xMax="1274" yMax="1456">
      <contour>
        <pt x="741" y="439" on="1"/>
        <pt x="747" y="436" on="1"/>
        <pt x="954" y="436" on="0"/>
        <pt x="1220" y="693" on="0"/>
        <pt x="1220" y="906" on="1"/>
        <pt x="1220" y="1456" on="1"/>
        <pt x="1274" y="1456" on="1"/>
        <pt x="1274" y="906" on="1"/>
        <pt x="1274" y="661" on="0"/>
        <pt x="979" y="380" on="0"/>
        <pt x="741" y="376" on="1"/>
        <pt x="741" y="0" on="1"/>
        <pt x="686" y="0" on="1"/>
        <pt x="686" y="376" on="1"/>
        <pt x="448" y="382" on="0"/>
        <pt x="156" y="662" on="0"/>
        <pt x="156" y="906" on="1"/>
        <pt x="156" y="1456" on="1"/>
        <pt x="211" y="1456" on="1"/>
        <pt x="211" y="906" on="1"/>
        <pt x="211" y="695" on="0"/>
        <pt x="473" y="439" on="0"/>
        <pt x="680" y="437" on="1"/>
        <pt x="686" y="439" on="1"/>
        <pt x="686" y="1456" on="1"/>
        <pt x="741" y="1456" on="1"/>
      </contour>
    </TTGlyph>
    <TTGlyph name="Q" xMin="133" yMin="-203" xMax="1263" yMax="1477">
      <contour>
        <pt x="1231" y="619" on="1"/>
        <pt x="1231" y="437" on="0"/>
        <pt x="1116" y="160" on="0"/>
        <pt x="1009" y="80" on="1"/>
        <pt x="1263" y="-168" on="1"/>
        <pt x="1224" y="-203" on="1"/>
        <pt x="962" y="48" on="1"/>
        <pt x="903" y="14" on="0"/>
        <pt x="762" y="-21" on="0"/>
        <pt x="683" y="-21" on="1"/>
        <pt x="426" y="-21" on="0"/>
        <pt x="133" y="324" on="0"/>
        <pt x="133" y="619" on="1"/>
        <pt x="133" y="837" on="1"/>
        <pt x="133" y="1131" on="0"/>
        <pt x="424" y="1477" on="0"/>
        <pt x="681" y="1477" on="1"/>
        <pt x="937" y="1477" on="0"/>
        <pt x="1231" y="1131" on="0"/>
        <pt x="1231" y="837" on="1"/>
      </contour>
      <contour>
        <pt x="1177" y="839" on="1"/>
        <pt x="1177" y="1107" on="0"/>
        <pt x="919" y="1423" on="0"/>
        <pt x="681" y="1423" on="1"/>
        <pt x="444" y="1423" on="0"/>
        <pt x="188" y="1107" on="0"/>
        <pt x="188" y="839" on="1"/>
        <pt x="188" y="619" on="1"/>
        <pt x="188" y="349" on="0"/>
        <pt x="445" y="33" on="0"/>
        <pt x="683" y="33" on="1"/>
        <pt x="921" y="33" on="0"/>
        <pt x="1177" y="348" on="0"/>
        <pt x="1177" y="619" on="1"/>
      </contour>
    </TTGlyph>
    <TTGlyph name="Q.smcp" xMin="140" yMin="-105" xMax="1174" yMax="1181">
      <contour>
        <pt x="1066" y="461" on="1"/>
        <pt x="1066" y="359" on="0"/>
        <pt x="1009" y="192" on="0"/>
        <pt x="956" y="131" on="1"/>
        <pt x="1174" y="-69" on="1"/>
        <pt x="1135" y="-105" on="1"/>
        <pt x="916" y="90" on="1"/>
        <pt x="856" y="37" on="0"/>
        <pt x="697" y="-17" on="0"/>
        <pt x="604" y="-17" on="1"/>
        <pt x="394" y="-17" on="0"/>
        <pt x="140" y="239" on="0"/>
        <pt x="140" y="461" on="1"/>
        <pt x="140" y="704" on="1"/>
        <pt x="140" y="924" on="0"/>
        <pt x="392" y="1181" on="0"/>
        <pt x="602" y="1181" on="1"/>
        <pt x="810" y="1181" on="0"/>
        <pt x="1066" y="924" on="0"/>
        <pt x="1066" y="704" on="1"/>
      </contour>
      <contour>
        <pt x="1012" y="705" on="1"/>
        <pt x="1012" y="911" on="0"/>
        <pt x="794" y="1127" on="0"/>
        <pt x="602" y="1127" on="1"/>
        <pt x="411" y="1127" on="0"/>
        <pt x="194" y="911" on="0"/>
        <pt x="194" y="705" on="1"/>
        <pt x="194" y="461" on="1"/>
        <pt x="194" y="254" on="0"/>
        <pt x="412" y="38" on="0"/>
        <pt x="604" y="38" on="1"/>
        <pt x="796" y="38" on="0"/>
        <pt x="1012" y="253" on="0"/>
        <pt x="1012" y="461" on="1"/>
      </contour>
    </TTGlyph>
    <TTGlyph name="R" xMin="195" yMin="-1" xMax="1208" yMax="1455">
      <contour>
        <pt x="249" y="683" on="1"/>
        <pt x="249" y="-1" on="1"/>
        <pt x="195" y="-1" on="1"/>
        <pt x="195" y="1455" on="1"/>
        <pt x="659" y="1455" on="1"/>
        <pt x="889" y="1455" on="0"/>
        <pt x="1137" y="1256" on="0"/>
        <pt x="1137" y="1065" on="1"/>
        <pt x="1137" y="942" on="0"/>
        <pt x="980" y="741" on="0"/>
        <pt x="844" y="711" on="1"/>
        <pt x="1001" y="684" on="0"/>
        <pt x="1137" y="508" on="0"/>
        <pt x="1137" y="371" on="1"/>
        <pt x="1137" y="234" on="1"/>
        <pt x="1137" y="166" on="0"/>
        <pt x="1170" y="58" on="0"/>
        <pt x="1208" y="24" on="1"/>
        <pt x="1208" y="-1" on="1"/>
        <pt x="1155" y="-1" on="1"/>
        <pt x="1119" y="40" on="0"/>
        <pt x="1083" y="161" on="0"/>
        <pt x="1083" y="236" on="1"/>
        <pt x="1083" y="369" on="1"/>
        <pt x="1083" y="517" on="0"/>
        <pt x="880" y="683" on="0"/>
        <pt x="692" y="683" on="1"/>
      </contour>
      <contour>
        <pt x="249" y="737" on="1"/>
        <pt x="649" y="737" on="1"/>
        <pt x="872" y="737" on="0"/>
        <pt x="1083" y="925" on="0"/>
        <pt x="1083" y="1065" on="1"/>
        <pt x="1083" y="1228" on="0"/>
        <pt x="870" y="1401" on="0"/>
        <pt x="659" y="1401" on="1"/>
        <pt x="249" y="1401" on="1"/>
      </contour>
    </TTGlyph>
    <TTGlyph name="R.smcp" xMin="181" yMin="0" xMax="1013" yMax="1165">
      <contour>
        <pt x="235" y="536" on="1"/>
        <pt x="235" y="0" on="1"/>
        <pt x="181" y="0" on="1"/>
        <pt x="181" y="1165" on="1"/>
        <pt x="609" y="1165" on="1"/>
        <pt x="796" y="1165" on="0"/>
        <pt x="993" y="1003" on="0"/>
        <pt x="993" y="848" on="1"/>
        <pt x="993" y="741" on="0"/>
        <pt x="894" y="590" on="0"/>
        <pt x="791" y="561" on="1"/>
        <pt x="897" y="535" on="0"/>
        <pt x="990" y="397" on="0"/>
        <pt x="990" y="292" on="1"/>
        <pt x="990" y="172" on="1"/>
        <pt x="990" y="117" on="0"/>
        <pt x="999" y="44" on="0"/>
        <pt x="1013" y="20" on="1"/>
        <pt x="1013" y="0" on="1"/>
        <pt x="954" y="0" on="1"/>
        <pt x="942" y="25" on="0"/>
        <pt x="936" y="122" on="0"/>
        <pt x="936" y="173" on="1"/>
        <pt x="936" y="290" on="1"/>
        <pt x="936" y="406" on="0"/>
        <pt x="785" y="536" on="0"/>
        <pt x="646" y="536" on="1"/>
      </contour>
      <contour>
        <pt x="235" y="590" on="1"/>
        <pt x="609" y="590" on="1"/>
        <pt x="785" y="590" on="0"/>
        <pt x="939" y="719" on="0"/>
        <pt x="939" y="849" on="1"/>
        <pt x="939" y="979" on="0"/>
        <pt x="784" y="1111" on="0"/>
        <pt x="609" y="1111" on="1"/>
        <pt x="235" y="1111" on="1"/>
      </contour>
    </TTGlyph>
    <TTGlyph name="Racute" xMin="195" yMin="-1" xMax="1208" yMax="1822">
      <component glyphName="R" x="0" y="0" flags="0x204"/>
      <component glyphName="acute" x="440" y="344" flags="0x4"/>
    </TTGlyph>
    <TTGlyph name="Racute.smcp" xMin="181" yMin="0" xMax="1013" yMax="1499">
      <component glyphName="R.smcp" x="0" y="0" flags="0x204"/>
      <component glyphName="acute" x="312" y="21" flags="0x4"/>
    </TTGlyph>
    <TTGlyph name="Rcaron" xMin="195" yMin="-1" xMax="1208" yMax="1827">
      <component glyphName="R" x="0" y="0" flags="0x204"/>
      <component glyphName="caron" x="219" y="352" flags="0x4"/>
    </TTGlyph>
    <TTGlyph name="Rcaron.smcp" xMin="181" yMin="0" xMax="1013" yMax="1504">
      <component glyphName="R.smcp" x="0" y="0" flags="0x204"/>
      <component glyphName="caron" x="91" y="29" flags="0x4"/>
    </TTGlyph>
    <TTGlyph name="Rcommaaccent" xMin="195" yMin="-436" xMax="1208" yMax="1455">
      <component glyphName="R" x="0" y="0" flags="0x204"/>
      <component glyphName="commaaccent" x="360" y="-261" flags="0x4"/>
    </TTGlyph>
    <TTGlyph name="Rcommaaccent.smcp" xMin="181" yMin="-438" xMax="1013" yMax="1165">
      <component glyphName="R.smcp" x="0" y="0" flags="0x204"/>
      <component glyphName="commaaccent" x="232" y="-263" flags="0x4"/>
    </TTGlyph>
    <TTGlyph name="Rho" xMin="200" yMin="0" xMax="1125" yMax="1456">
      <component glyphName="P" x="0" y="0" flags="0x204"/>
    </TTGlyph>
    <TTGlyph name="S" xMin="100" yMin="-21" xMax="1129" yMax="1477">
      <contour>
        <pt x="1074" y="349" on="1"/>
        <pt x="1074" y="486" on="0"/>
        <pt x="873" y="650" on="0"/>
        <pt x="625" y="718" on="1"/>
        <pt x="376" y="785" on="0"/>
        <pt x="145" y="956" on="0"/>
        <pt x="145" y="1120" on="1"/>
        <pt x="145" y="1283" on="0"/>
        <pt x="417" y="1477" on="0"/>
        <pt x="628" y="1477" on="1"/>
        <pt x="841" y="1477" on="0"/>
        <pt x="1111" y="1239" on="0"/>
        <pt x="1107" y="1052" on="1"/>
        <pt x="1105" y="1046" on="1"/>
        <pt x="1059" y="1046" on="1"/>
        <pt x="1059" y="1209" on="0"/>
        <pt x="819" y="1423" on="0"/>
        <pt x="628" y="1423" on="1"/>
        <pt x="430" y="1423" on="0"/>
        <pt x="199" y="1246" on="0"/>
        <pt x="199" y="1122" on="1"/>
        <pt x="199" y="998" on="0"/>
        <pt x="390" y="834" on="0"/>
        <pt x="640" y="770" on="1"/>
        <pt x="882" y="706" on="0"/>
        <pt x="1129" y="521" on="0"/>
        <pt x="1129" y="351" on="1"/>
        <pt x="1129" y="178" on="0"/>
        <pt x="847" y="-21" on="0"/>
        <pt x="635" y="-21" on="1"/>
        <pt x="416" y="-21" on="0"/>
        <pt x="100" y="184" on="0"/>
        <pt x="105" y="404" on="1"/>
        <pt x="107" y="410" on="1"/>
        <pt x="152" y="410" on="1"/>
        <pt x="152" y="212" on="0"/>
        <pt x="444" y="33" on="0"/>
        <pt x="635" y="33" on="1"/>
        <pt x="827" y="33" on="0"/>
        <pt x="1074" y="209" on="0"/>
      </contour>
    </TTGlyph>
    <TTGlyph name="S.smcp" xMin="116" yMin="-17" xMax="989" yMax="1181">
      <contour>
        <pt x="935" y="279" on="1"/>
        <pt x="935" y="379" on="0"/>
        <pt x="775" y="496" on="0"/>
        <pt x="558" y="556" on="1"/>
        <pt x="348" y="612" on="0"/>
        <pt x="154" y="751" on="0"/>
        <pt x="154" y="885" on="1"/>
        <pt x="154" y="1019" on="0"/>
        <pt x="376" y="1181" on="0"/>
        <pt x="562" y="1181" on="1"/>
        <pt x="754" y="1181" on="0"/>
        <pt x="969" y="1002" on="0"/>
        <pt x="964" y="841" on="1"/>
        <pt x="962" y="835" on="1"/>
        <pt x="916" y="835" on="1"/>
        <pt x="916" y="964" on="0"/>
        <pt x="729" y="1127" on="0"/>
        <pt x="562" y="1127" on="1"/>
        <pt x="388" y="1127" on="0"/>
        <pt x="209" y="987" on="0"/>
        <pt x="209" y="886" on="1"/>
        <pt x="209" y="785" on="0"/>
        <pt x="353" y="666" on="0"/>
        <pt x="574" y="608" on="1"/>
        <pt x="789" y="551" on="0"/>
        <pt x="989" y="413" on="0"/>
        <pt x="989" y="280" on="1"/>
        <pt x="989" y="142" on="0"/>
        <pt x="750" y="-17" on="0"/>
        <pt x="550" y="-17" on="1"/>
        <pt x="367" y="-17" on="0"/>
        <pt x="116" y="147" on="0"/>
        <pt x="121" y="324" on="1"/>
        <pt x="123" y="330" on="1"/>
        <pt x="169" y="330" on="1"/>
        <pt x="169" y="175" on="0"/>
        <pt x="393" y="38" on="0"/>
        <pt x="550" y="38" on="1"/>
        <pt x="728" y="38" on="0"/>
        <pt x="935" y="178" on="0"/>
      </contour>
    </TTGlyph>
    <TTGlyph name="Sacute" xMin="100" yMin="-21" xMax="1129" yMax="1843">
      <component glyphName="S" x="0" y="0" flags="0x204"/>
      <component glyphName="acute" x="468" y="365" flags="0x4"/>
    </TTGlyph>
    <TTGlyph name="Sacute.smcp" xMin="116" yMin="-17" xMax="989" yMax="1515">
      <component glyphName="S.smcp" x="0" y="0" flags="0x204"/>
      <component glyphName="acute" x="389" y="37" flags="0x4"/>
    </TTGlyph>
    <TTGlyph name="Scaron" xMin="100" yMin="-21" xMax="1129" yMax="1848">
      <component glyphName="S" x="0" y="0" flags="0x204"/>
      <component glyphName="caron" x="247" y="373" flags="0x4"/>
    </TTGlyph>
    <TTGlyph name="Scaron.smcp" xMin="116" yMin="-17" xMax="989" yMax="1520">
      <component glyphName="S.smcp" x="0" y="0" flags="0x204"/>
      <component glyphName="caron" x="168" y="45" flags="0x4"/>
    </TTGlyph>
    <TTGlyph name="Scedilla" xMin="100" yMin="-444" xMax="1129" yMax="1477">
      <component glyphName="S" x="0" y="0" flags="0x204"/>
      <component glyphName="cedilla" x="428" y="-9" flags="0x4"/>
    </TTGlyph>
    <TTGlyph name="Scedilla.smcp" xMin="116" yMin="-441" xMax="989" yMax="1181">
      <component glyphName="S.smcp" x="0" y="0" flags="0x204"/>
      <component glyphName="cedilla" x="349" y="-6" flags="0x4"/>
    </TTGlyph>
    <TTGlyph name="Scircumflex" xMin="100" yMin="-21" xMax="1129" yMax="1845">
      <component glyphName="S" x="0" y="0" flags="0x204"/>
      <component glyphName="circumflex" x="232" y="370" flags="0x4"/>
    </TTGlyph>
    <TTGlyph name="Scircumflex.smcp" xMin="116" yMin="-17" xMax="989" yMax="1517">
      <component glyphName="S.smcp" x="0" y="0" flags="0x204"/>
      <component glyphName="circumflex" x="153" y="42" flags="0x4"/>
    </TTGlyph>
    <TTGlyph name="Scommaaccent" xMin="100" yMin="-456" xMax="1129" yMax="1477">
      <component glyphName="S" x="0" y="0" flags="0x204"/>
      <component glyphName="commaaccent" x="388" y="-281" flags="0x4"/>
    </TTGlyph>
    <TTGlyph name="Sigma" xMin="57" yMin="0" xMax="1049" yMax="1456">
      <contour>
        <pt x="656" y="768" on="1"/>
        <pt x="133" y="54" on="1"/>
        <pt x="1049" y="54" on="1"/>
        <pt x="1049" y="0" on="1"/>
        <pt x="57" y="0" on="1"/>
        <pt x="57" y="44" on="1"/>
        <pt x="604" y="787" on="1"/>
        <pt x="57" y="1412" on="1"/>
        <pt x="57" y="1456" on="1"/>
        <pt x="94" y="1456" on="1"/>
        <pt x="96" y="1453" on="1"/>
        <pt x="96" y="1456" on="1"/>
        <pt x="989" y="1456" on="1"/>
        <pt x="989" y="1403" on="1"/>
        <pt x="147" y="1403" on="1"/>
        <pt x="145" y="1398" on="1"/>
        <pt x="656" y="815" on="1"/>
      </contour>
    </TTGlyph>
    <TTGlyph name="T" xMin="55" yMin="0" xMax="1169" yMax="1456">
      <contour>
        <pt x="1169" y="1402" on="1"/>
        <pt x="639" y="1402" on="1"/>
        <pt x="639" y="0" on="1"/>
        <pt x="585" y="0" on="1"/>
        <pt x="585" y="1402" on="1"/>
        <pt x="55" y="1402" on="1"/>
        <pt x="55" y="1456" on="1"/>
        <pt x="1169" y="1456" on="1"/>
      </contour>
    </TTGlyph>
    <TTGlyph name="T.smcp" xMin="73" yMin="0" xMax="955" yMax="1165">
      <contour>
        <pt x="955" y="1111" on="1"/>
        <pt x="530" y="1111" on="1"/>
        <pt x="530" y="0" on="1"/>
        <pt x="476" y="0" on="1"/>
        <pt x="476" y="1111" on="1"/>
        <pt x="73" y="1111" on="1"/>
        <pt x="73" y="1165" on="1"/>
        <pt x="955" y="1165" on="1"/>
      </contour>
    </TTGlyph>
    <TTGlyph name="Tau" xMin="55" yMin="0" xMax="1169" yMax="1456">
      <component glyphName="T" x="0" y="0" flags="0x204"/>
    </TTGlyph>
    <TTGlyph name="Tbar" xMin="55" yMin="0" xMax="1169" yMax="1456">
      <contour>
        <pt x="888" y="847" on="1"/>
        <pt x="639" y="847" on="1"/>
        <pt x="639" y="0" on="1"/>
        <pt x="585" y="0" on="1"/>
        <pt x="585" y="847" on="1"/>
        <pt x="301" y="847" on="1"/>
        <pt x="301" y="901" on="1"/>
        <pt x="585" y="901" on="1"/>
        <pt x="585" y="1402" on="1"/>
        <pt x="55" y="1402" on="1"/>
        <pt x="55" y="1456" on="1"/>
        <pt x="1169" y="1456" on="1"/>
        <pt x="1169" y="1402" on="1"/>
        <pt x="639" y="1402" on="1"/>
        <pt x="639" y="901" on="1"/>
        <pt x="888" y="901" on="1"/>
      </contour>
    </TTGlyph>
    <TTGlyph name="Tbar.smcp" xMin="73" yMin="0" xMax="955" yMax="1165">
      <component glyphName="T.smcp" x="0" y="0" flags="0x204"/>
      <component glyphName="crossbar" x="100" y="-48" flags="0x4"/>
    </TTGlyph>
    <TTGlyph name="Tcaron" xMin="55" yMin="0" xMax="1169" yMax="1819">
      <component glyphName="T" x="0" y="0" flags="0x204"/>
      <component glyphName="caron" x="222" y="344" flags="0x4"/>
    </TTGlyph>
    <TTGlyph name="Tcaron.smcp" xMin="73" yMin="0" xMax="955" yMax="1498">
      <component glyphName="T.smcp" x="0" y="0" flags="0x204"/>
      <component glyphName="caron" x="127" y="23" flags="0x4"/>
    </TTGlyph>
    <TTGlyph name="Tcommaaccent" xMin="55" yMin="-436" xMax="1169" yMax="1456">
      <component glyphName="T" x="0" y="0" flags="0x204"/>
      <component glyphName="commaaccent" x="364" y="-261" flags="0x4"/>
    </TTGlyph>
    <TTGlyph name="Tcommaaccent.smcp" xMin="73" yMin="-438" xMax="955" yMax="1165">
      <component glyphName="T.smcp" x="0" y="0" flags="0x204"/>
      <component glyphName="commaaccent" x="269" y="-263" flags="0x4"/>
    </TTGlyph>
    <TTGlyph name="Theta" xMin="133" yMin="-21" xMax="1231" yMax="1477">
      <contour>
        <pt x="971" y="691" on="1"/>
        <pt x="380" y="691" on="1"/>
        <pt x="380" y="744" on="1"/>
        <pt x="971" y="744" on="1"/>
      </contour>
      <contour>
        <pt x="1231" y="619" on="1"/>
        <pt x="1231" y="324" on="0"/>
        <pt x="939" y="-21" on="0"/>
        <pt x="683" y="-21" on="1"/>
        <pt x="426" y="-21" on="0"/>
        <pt x="133" y="324" on="0"/>
        <pt x="133" y="619" on="1"/>
        <pt x="133" y="837" on="1"/>
        <pt x="133" y="1131" on="0"/>
        <pt x="424" y="1477" on="0"/>
        <pt x="681" y="1477" on="1"/>
        <pt x="937" y="1477" on="0"/>
        <pt x="1231" y="1131" on="0"/>
        <pt x="1231" y="837" on="1"/>
      </contour>
      <contour>
        <pt x="1177" y="839" on="1"/>
        <pt x="1177" y="1107" on="0"/>
        <pt x="919" y="1423" on="0"/>
        <pt x="681" y="1423" on="1"/>
        <pt x="444" y="1423" on="0"/>
        <pt x="188" y="1107" on="0"/>
        <pt x="188" y="839" on="1"/>
        <pt x="188" y="619" on="1"/>
        <pt x="188" y="349" on="0"/>
        <pt x="445" y="33" on="0"/>
        <pt x="683" y="33" on="1"/>
        <pt x="921" y="33" on="0"/>
        <pt x="1177" y="348" on="0"/>
        <pt x="1177" y="619" on="1"/>
      </contour>
    </TTGlyph>
    <TTGlyph name="Thorn" xMin="200" yMin="0" xMax="1075" yMax="1456">
      <contour>
        <pt x="254" y="1456" on="1"/>
        <pt x="254" y="1143" on="1"/>
        <pt x="625" y="1143" on="1"/>
        <pt x="837" y="1143" on="0"/>
        <pt x="1075" y="917" on="0"/>
        <pt x="1075" y="738" on="1"/>
        <pt x="1075" y="558" on="0"/>
        <pt x="837" y="334" on="0"/>
        <pt x="625" y="334" on="1"/>
        <pt x="254" y="334" on="1"/>
        <pt x="254" y="0" on="1"/>
        <pt x="200" y="0" on="1"/>
        <pt x="200" y="1456" on="1"/>
      </contour>
      <contour>
        <pt x="254" y="1089" on="1"/>
        <pt x="254" y="388" on="1"/>
        <pt x="625" y="388" on="1"/>
        <pt x="820" y="388" on="0"/>
        <pt x="1021" y="596" on="0"/>
        <pt x="1021" y="736" on="1"/>
        <pt x="1021" y="880" on="0"/>
        <pt x="821" y="1089" on="0"/>
        <pt x="625" y="1089" on="1"/>
      </contour>
    </TTGlyph>
    <TTGlyph name="U" xMin="185" yMin="-21" xMax="1180" yMax="1456">
      <contour>
        <pt x="1180" y="1456" on="1"/>
        <pt x="1180" y="469" on="1"/>
        <pt x="1180" y="231" on="0"/>
        <pt x="904" y="-21" on="0"/>
        <pt x="683" y="-21" on="1"/>
        <pt x="460" y="-21" on="0"/>
        <pt x="185" y="232" on="0"/>
        <pt x="185" y="469" on="1"/>
        <pt x="185" y="1456" on="1"/>
        <pt x="239" y="1456" on="1"/>
        <pt x="239" y="469" on="1"/>
        <pt x="239" y="264" on="0"/>
        <pt x="487" y="33" on="0"/>
        <pt x="683" y="33" on="1"/>
        <pt x="878" y="33" on="0"/>
        <pt x="1126" y="264" on="0"/>
        <pt x="1126" y="469" on="1"/>
        <pt x="1126" y="1456" on="1"/>
      </contour>
    </TTGlyph>
    <TTGlyph name="U.smcp" xMin="172" yMin="-17" xMax="1099" yMax="1165">
      <contour>
        <pt x="1099" y="1165" on="1"/>
        <pt x="1099" y="391" on="1"/>
        <pt x="1099" y="200" on="0"/>
        <pt x="839" y="-17" on="0"/>
        <pt x="636" y="-17" on="1"/>
        <pt x="431" y="-17" on="0"/>
        <pt x="172" y="200" on="0"/>
        <pt x="172" y="391" on="1"/>
        <pt x="172" y="1165" on="1"/>
        <pt x="226" y="1165" on="1"/>
        <pt x="226" y="391" on="1"/>
        <pt x="226" y="230" on="0"/>
        <pt x="458" y="38" on="0"/>
        <pt x="636" y="38" on="1"/>
        <pt x="813" y="38" on="0"/>
        <pt x="1044" y="229" on="0"/>
        <pt x="1044" y="391" on="1"/>
        <pt x="1044" y="1165" on="1"/>
      </contour>
    </TTGlyph>
    <TTGlyph name="Uacute" xMin="185" yMin="-21" xMax="1180" yMax="1822">
      <component glyphName="U" x="0" y="0" flags="0x204"/>
      <component glyphName="acute" x="531" y="344" flags="0x4"/>
    </TTGlyph>
    <TTGlyph name="Uacute.smcp" xMin="172" yMin="-17" xMax="1099" yMax="1500">
      <component glyphName="U.smcp" x="0" y="0" flags="0x204"/>
      <component glyphName="acute" x="470" y="22" flags="0x4"/>
    </TTGlyph>
    <TTGlyph name="Ubreve" xMin="185" yMin="-21" xMax="1180" yMax="1839">
      <component glyphName="U" x="0" y="0" flags="0x204"/>
      <component glyphName="breve" x="270" y="383" flags="0x4"/>
    </TTGlyph>
    <TTGlyph name="Ubreve.smcp" xMin="172" yMin="-17" xMax="1099" yMax="1517">
      <component glyphName="U.smcp" x="0" y="0" flags="0x204"/>
      <component glyphName="breve" x="209" y="61" flags="0x4"/>
    </TTGlyph>
    <TTGlyph name="Ucircumflex" xMin="185" yMin="-21" xMax="1180" yMax="1824">
      <component glyphName="U" x="0" y="0" flags="0x204"/>
      <component glyphName="circumflex" x="295" y="349" flags="0x4"/>
    </TTGlyph>
    <TTGlyph name="Ucircumflex.smcp" xMin="172" yMin="-17" xMax="1099" yMax="1502">
      <component glyphName="U.smcp" x="0" y="0" flags="0x204"/>
      <component glyphName="circumflex" x="234" y="27" flags="0x4"/>
    </TTGlyph>
    <TTGlyph name="Udieresis" xMin="185" yMin="-21" xMax="1180" yMax="1791">
      <component glyphName="U" x="0" y="0" flags="0x204"/>
      <component glyphName="dieresis" x="247" y="335" flags="0x4"/>
    </TTGlyph>
    <TTGlyph name="Udieresis.smcp" xMin="172" yMin="-17" xMax="1099" yMax="1469">
      <component glyphName="U.smcp" x="0" y="0" flags="0x204"/>
      <component glyphName="dieresis" x="186" y="13" flags="0x4"/>
    </TTGlyph>
    <TTGlyph name="Ugrave" xMin="185" yMin="-21" xMax="1180" yMax="1828">
      <component glyphName="U" x="0" y="0" flags="0x204"/>
      <component glyphName="grave" x="337" y="352" flags="0x4"/>
    </TTGlyph>
    <TTGlyph name="Ugrave.smcp" xMin="172" yMin="-17" xMax="1099" yMax="1506">
      <component glyphName="U.smcp" x="0" y="0" flags="0x204"/>
      <component glyphName="grave" x="276" y="30" flags="0x4"/>
    </TTGlyph>
    <TTGlyph name="Uhorn" xMin="185" yMin="-21" xMax="1586" yMax="1621">
      <contour>
        <pt x="1580" y="1621" on="1"/>
        <pt x="1583" y="1615" on="1"/>
        <pt x="1586" y="1417" on="0"/>
        <pt x="1378" y="1205" on="0"/>
        <pt x="1190" y="1210" on="1"/>
        <pt x="1184" y="1212" on="1"/>
        <pt x="1184" y="1258" on="1"/>
        <pt x="1355" y="1258" on="0"/>
        <pt x="1534" y="1444" on="0"/>
        <pt x="1534" y="1621" on="1"/>
      </contour>
      <contour>
        <pt x="1180" y="1456" on="1"/>
        <pt x="1180" y="469" on="1"/>
        <pt x="1180" y="231" on="0"/>
        <pt x="904" y="-21" on="0"/>
        <pt x="683" y="-21" on="1"/>
        <pt x="460" y="-21" on="0"/>
        <pt x="185" y="232" on="0"/>
        <pt x="185" y="469" on="1"/>
        <pt x="185" y="1456" on="1"/>
        <pt x="239" y="1456" on="1"/>
        <pt x="239" y="469" on="1"/>
        <pt x="239" y="264" on="0"/>
        <pt x="487" y="33" on="0"/>
        <pt x="683" y="33" on="1"/>
        <pt x="878" y="33" on="0"/>
        <pt x="1126" y="264" on="0"/>
        <pt x="1126" y="469" on="1"/>
        <pt x="1126" y="1456" on="1"/>
      </contour>
    </TTGlyph>
    <TTGlyph name="Uhungarumlaut" xMin="185" yMin="-21" xMax="1180" yMax="1867">
      <component glyphName="U" x="0" y="0" flags="0x204"/>
      <component glyphName="hungarumlaut" x="361" y="349" flags="0x4"/>
    </TTGlyph>
    <TTGlyph name="Uhungarumlaut.smcp" xMin="172" yMin="-17" xMax="1099" yMax="1545">
      <component glyphName="U.smcp" x="0" y="0" flags="0x204"/>
      <component glyphName="hungarumlaut" x="300" y="27" flags="0x4"/>
    </TTGlyph>
    <TTGlyph name="Umacron" xMin="185" yMin="-21" xMax="1180" yMax="1786">
      <component glyphName="U" x="0" y="0" flags="0x204"/>
      <component glyphName="macron" x="284" y="330" flags="0x4"/>
    </TTGlyph>
    <TTGlyph name="Umacron.smcp" xMin="172" yMin="-17" xMax="1099" yMax="1464">
      <component glyphName="U.smcp" x="0" y="0" flags="0x204"/>
      <component glyphName="macron" x="223" y="8" flags="0x4"/>
    </TTGlyph>
    <TTGlyph name="Uogonek" xMin="185" yMin="-357" xMax="1180" yMax="1456">
      <component glyphName="U" x="0" y="0" flags="0x204"/>
      <component glyphName="ogonek" x="439" y="0" flags="0x4"/>
    </TTGlyph>
    <TTGlyph name="Uogonek.smcp" xMin="172" yMin="-357" xMax="1099" yMax="1165">
      <component glyphName="U.smcp" x="0" y="0" flags="0x204"/>
      <component glyphName="ogonek" x="389" y="0" flags="0x4"/>
    </TTGlyph>
    <TTGlyph name="Upsilon" xMin="36" yMin="0" xMax="1185" yMax="1456">
      <component glyphName="Y" x="0" y="0" flags="0x204"/>
    </TTGlyph>
    <TTGlyph name="Upsilondieresis" xMin="36" yMin="0" xMax="1185" yMax="1780">
      <component glyphName="Y" x="0" y="0" flags="0x204"/>
      <component glyphName="dieresis" x="158" y="324" flags="0x4"/>
    </TTGlyph>
    <TTGlyph name="Upsilontonos" xMin="-101" yMin="0" xMax="1285" yMax="1567">
      <component glyphName="Y" x="100" y="0" flags="0x4"/>
      <component glyphName="tonos" x="-290" y="-1" flags="0x4"/>
    </TTGlyph>
    <TTGlyph name="Uring" xMin="185" yMin="-21" xMax="1180" yMax="1865">
      <component glyphName="U" x="0" y="0" flags="0x204"/>
      <component glyphName="ring" x="355" y="388" flags="0x4"/>
    </TTGlyph>
    <TTGlyph name="Uring.smcp" xMin="172" yMin="-17" xMax="1099" yMax="1543">
      <component glyphName="U.smcp" x="0" y="0" flags="0x204"/>
      <component glyphName="ring" x="294" y="66" flags="0x4"/>
    </TTGlyph>
    <TTGlyph name="Utilde" xMin="185" yMin="-21" xMax="1180" yMax="1811">
      <component glyphName="U" x="0" y="0" flags="0x204"/>
      <component glyphName="tilde" x="280" y="329" flags="0x4"/>
    </TTGlyph>
    <TTGlyph name="Utilde.smcp" xMin="172" yMin="-17" xMax="1099" yMax="1489">
      <component glyphName="U.smcp" x="0" y="0" flags="0x204"/>
      <component glyphName="tilde" x="219" y="7" flags="0x4"/>
    </TTGlyph>
    <TTGlyph name="V" xMin="35" yMin="0" xMax="1189" yMax="1456">
      <contour>
        <pt x="583" y="142" on="1"/>
        <pt x="609" y="63" on="1"/>
        <pt x="615" y="63" on="1"/>
        <pt x="641" y="142" on="1"/>
        <pt x="1130" y="1456" on="1"/>
        <pt x="1189" y="1456" on="1"/>
        <pt x="645" y="0" on="1"/>
        <pt x="579" y="0" on="1"/>
        <pt x="35" y="1456" on="1"/>
        <pt x="94" y="1456" on="1"/>
      </contour>
    </TTGlyph>
    <TTGlyph name="V.smcp" xMin="74" yMin="0" xMax="1086" yMax="1165">
      <contour>
        <pt x="556" y="129" on="1"/>
        <pt x="577" y="65" on="1"/>
        <pt x="583" y="65" on="1"/>
        <pt x="605" y="129" on="1"/>
        <pt x="1027" y="1165" on="1"/>
        <pt x="1086" y="1165" on="1"/>
        <pt x="610" y="0" on="1"/>
        <pt x="550" y="0" on="1"/>
        <pt x="74" y="1165" on="1"/>
        <pt x="134" y="1165" on="1"/>
      </contour>
    </TTGlyph>
    <TTGlyph name="W" xMin="61" yMin="0" xMax="1793" yMax="1456">
      <contour>
        <pt x="423" y="330" on="1"/>
        <pt x="486" y="101" on="1"/>
        <pt x="492" y="101" on="1"/>
        <pt x="555" y="330" on="1"/>
        <pt x="899" y="1456" on="1"/>
        <pt x="959" y="1456" on="1"/>
        <pt x="1301" y="330" on="1"/>
        <pt x="1363" y="101" on="1"/>
        <pt x="1369" y="101" on="1"/>
        <pt x="1434" y="330" on="1"/>
        <pt x="1734" y="1456" on="1"/>
        <pt x="1793" y="1456" on="1"/>
        <pt x="1401" y="0" on="1"/>
        <pt x="1340" y="0" on="1"/>
        <pt x="979" y="1214" on="1"/>
        <pt x="931" y="1359" on="1"/>
        <pt x="925" y="1359" on="1"/>
        <pt x="879" y="1214" on="1"/>
        <pt x="515" y="0" on="1"/>
        <pt x="454" y="0" on="1"/>
        <pt x="61" y="1456" on="1"/>
        <pt x="121" y="1456" on="1"/>
      </contour>
    </TTGlyph>
    <TTGlyph name="W.smcp" xMin="91" yMin="0" xMax="1473" yMax="1165">
      <contour>
        <pt x="402" y="292" on="1"/>
        <pt x="450" y="106" on="1"/>
        <pt x="456" y="106" on="1"/>
        <pt x="499" y="292" on="1"/>
        <pt x="751" y="1165" on="1"/>
        <pt x="812" y="1165" on="1"/>
        <pt x="1067" y="292" on="1"/>
        <pt x="1108" y="104" on="1"/>
        <pt x="1114" y="104" on="1"/>
        <pt x="1165" y="292" on="1"/>
        <pt x="1417" y="1165" on="1"/>
        <pt x="1473" y="1165" on="1"/>
        <pt x="1141" y="0" on="1"/>
        <pt x="1084" y="0" on="1"/>
        <pt x="824" y="926" on="1"/>
        <pt x="785" y="1063" on="1"/>
        <pt x="779" y="1063" on="1"/>
        <pt x="742" y="926" on="1"/>
        <pt x="479" y="0" on="1"/>
        <pt x="421" y="0" on="1"/>
        <pt x="91" y="1165" on="1"/>
        <pt x="146" y="1165" on="1"/>
      </contour>
    </TTGlyph>
    <TTGlyph name="Wacute" xMin="61" yMin="0" xMax="1793" yMax="1822">
      <component glyphName="W" x="0" y="0" flags="0x204"/>
      <component glyphName="acute" x="760" y="344" flags="0x4"/>
    </TTGlyph>
    <TTGlyph name="Wcircumflex" xMin="61" yMin="0" xMax="1793" yMax="1824">
      <component glyphName="W" x="0" y="0" flags="0x204"/>
      <component glyphName="circumflex" x="524" y="349" flags="0x4"/>
    </TTGlyph>
    <TTGlyph name="Wcircumflex.smcp" xMin="91" yMin="0" xMax="1473" yMax="1501">
      <component glyphName="W.smcp" x="0" y="0" flags="0x204"/>
      <component glyphName="circumflex" x="366" y="26" flags="0x4"/>
    </TTGlyph>
    <TTGlyph name="Wdieresis" xMin="61" yMin="0" xMax="1793" yMax="1791">
      <component glyphName="W" x="0" y="0" flags="0x204"/>
      <component glyphName="dieresis" x="476" y="335" flags="0x4"/>
    </TTGlyph>
    <TTGlyph name="Wgrave" xMin="61" yMin="0" xMax="1793" yMax="1828">
      <component glyphName="W" x="0" y="0" flags="0x204"/>
      <component glyphName="grave" x="566" y="352" flags="0x4"/>
    </TTGlyph>
    <TTGlyph name="X" xMin="53" yMin="0" xMax="1169" yMax="1456">
      <contour>
        <pt x="610" y="785" on="1"/>
        <pt x="1081" y="1456" on="1"/>
        <pt x="1148" y="1456" on="1"/>
        <pt x="645" y="743" on="1"/>
        <pt x="1169" y="0" on="1"/>
        <pt x="1102" y="0" on="1"/>
        <pt x="610" y="701" on="1"/>
        <pt x="119" y="0" on="1"/>
        <pt x="53" y="0" on="1"/>
        <pt x="577" y="743" on="1"/>
        <pt x="73" y="1456" on="1"/>
        <pt x="141" y="1456" on="1"/>
      </contour>
    </TTGlyph>
    <TTGlyph name="X.smcp" xMin="65" yMin="0" xMax="1040" yMax="1165">
      <contour>
        <pt x="553" y="643" on="1"/>
        <pt x="957" y="1165" on="1"/>
        <pt x="1023" y="1165" on="1"/>
        <pt x="586" y="593" on="1"/>
        <pt x="1040" y="0" on="1"/>
        <pt x="973" y="0" on="1"/>
        <pt x="553" y="543" on="1"/>
        <pt x="133" y="0" on="1"/>
        <pt x="65" y="0" on="1"/>
        <pt x="519" y="593" on="1"/>
        <pt x="82" y="1165" on="1"/>
        <pt x="149" y="1165" on="1"/>
      </contour>
    </TTGlyph>
    <TTGlyph name="Xi" xMin="112" yMin="0" xMax="1017" yMax="1456">
      <contour>
        <pt x="112" y="54" on="1"/>
        <pt x="1017" y="54" on="1"/>
        <pt x="1017" y="0" on="1"/>
        <pt x="112" y="0" on="1"/>
      </contour>
      <contour>
        <pt x="220" y="741" on="1"/>
        <pt x="901" y="741" on="1"/>
        <pt x="901" y="687" on="1"/>
        <pt x="220" y="687" on="1"/>
      </contour>
      <contour>
        <pt x="133" y="1456" on="1"/>
        <pt x="978" y="1456" on="1"/>
        <pt x="978" y="1403" on="1"/>
        <pt x="133" y="1403" on="1"/>
      </contour>
    </TTGlyph>
    <TTGlyph name="Y" xMin="36" yMin="0" xMax="1185" yMax="1456">
      <contour>
        <pt x="583" y="647" on="1"/>
        <pt x="609" y="597" on="1"/>
        <pt x="636" y="647" on="1"/>
        <pt x="1119" y="1456" on="1"/>
        <pt x="1185" y="1456" on="1"/>
        <pt x="638" y="553" on="1"/>
        <pt x="638" y="0" on="1"/>
        <pt x="583" y="0" on="1"/>
        <pt x="583" y="553" on="1"/>
        <pt x="36" y="1456" on="1"/>
        <pt x="102" y="1456" on="1"/>
      </contour>
    </TTGlyph>
    <TTGlyph name="Y.smcp" xMin="58" yMin="0" xMax="1028" yMax="1165">
      <contour>
        <pt x="526" y="522" on="1"/>
        <pt x="538" y="494" on="1"/>
        <pt x="546" y="494" on="1"/>
        <pt x="559" y="523" on="1"/>
        <pt x="963" y="1165" on="1"/>
        <pt x="1028" y="1165" on="1"/>
        <pt x="569" y="434" on="1"/>
        <pt x="569" y="0" on="1"/>
        <pt x="515" y="0" on="1"/>
        <pt x="515" y="437" on="1"/>
        <pt x="58" y="1165" on="1"/>
        <pt x="122" y="1165" on="1"/>
      </contour>
    </TTGlyph>
    <TTGlyph name="Yacute" xMin="36" yMin="0" xMax="1185" yMax="1811">
      <component glyphName="Y" x="0" y="0" flags="0x204"/>
      <component glyphName="acute" x="442" y="333" flags="0x4"/>
    </TTGlyph>
    <TTGlyph name="Yacute.smcp" xMin="58" yMin="0" xMax="1028" yMax="1491">
      <component glyphName="Y.smcp" x="0" y="0" flags="0x204"/>
      <component glyphName="acute" x="369" y="13" flags="0x4"/>
    </TTGlyph>
    <TTGlyph name="Ycircumflex" xMin="36" yMin="0" xMax="1185" yMax="1813">
      <component glyphName="Y" x="0" y="0" flags="0x204"/>
      <component glyphName="circumflex" x="206" y="338" flags="0x4"/>
    </TTGlyph>
    <TTGlyph name="Ycircumflex.smcp" xMin="58" yMin="0" xMax="1028" yMax="1493">
      <component glyphName="Y.smcp" x="0" y="0" flags="0x204"/>
      <component glyphName="circumflex" x="133" y="18" flags="0x4"/>
    </TTGlyph>
    <TTGlyph name="Ydieresis" xMin="36" yMin="0" xMax="1185" yMax="1780">
      <component glyphName="Y" x="0" y="0" flags="0x204"/>
      <component glyphName="dieresis" x="158" y="324" flags="0x4"/>
    </TTGlyph>
    <TTGlyph name="Ydieresis.smcp" xMin="58" yMin="0" xMax="1028" yMax="1460">
      <component glyphName="Y.smcp" x="0" y="0" flags="0x204"/>
      <component glyphName="dieresis" x="85" y="4" flags="0x4"/>
    </TTGlyph>
    <TTGlyph name="Ygrave" xMin="36" yMin="0" xMax="1185" yMax="1817">
      <component glyphName="Y" x="0" y="0" flags="0x204"/>
      <component glyphName="grave" x="248" y="341" flags="0x4"/>
    </TTGlyph>
    <TTGlyph name="Z" xMin="94" yMin="0" xMax="1130" yMax="1456">
      <contour>
        <pt x="168" y="54" on="1"/>
        <pt x="1130" y="54" on="1"/>
        <pt x="1130" y="0" on="1"/>
        <pt x="94" y="0" on="1"/>
        <pt x="94" y="44" on="1"/>
        <pt x="1023" y="1403" on="1"/>
        <pt x="134" y="1403" on="1"/>
        <pt x="134" y="1456" on="1"/>
        <pt x="1098" y="1456" on="1"/>
        <pt x="1098" y="1418" on="1"/>
      </contour>
    </TTGlyph>
    <TTGlyph name="Z.smcp" xMin="73" yMin="0" xMax="986" yMax="1165">
      <contour>
        <pt x="151" y="54" on="1"/>
        <pt x="986" y="54" on="1"/>
        <pt x="986" y="0" on="1"/>
        <pt x="73" y="0" on="1"/>
        <pt x="73" y="46" on="1"/>
        <pt x="881" y="1112" on="1"/>
        <pt x="107" y="1112" on="1"/>
        <pt x="107" y="1165" on="1"/>
        <pt x="959" y="1165" on="1"/>
        <pt x="959" y="1124" on="1"/>
      </contour>
    </TTGlyph>
    <TTGlyph name="Zacute" xMin="94" yMin="0" xMax="1130" yMax="1822">
      <component glyphName="Z" x="0" y="0" flags="0x204"/>
      <component glyphName="acute" x="443" y="344" flags="0x4"/>
    </TTGlyph>
    <TTGlyph name="Zacute.smcp" xMin="73" yMin="0" xMax="986" yMax="1499">
      <component glyphName="Z.smcp" x="0" y="0" flags="0x204"/>
      <component glyphName="acute" x="349" y="21" flags="0x4"/>
    </TTGlyph>
    <TTGlyph name="Zcaron" xMin="94" yMin="0" xMax="1130" yMax="1827">
      <component glyphName="Z" x="0" y="0" flags="0x204"/>
      <component glyphName="caron" x="222" y="352" flags="0x4"/>
    </TTGlyph>
    <TTGlyph name="Zcaron.smcp" xMin="73" yMin="0" xMax="986" yMax="1504">
      <component glyphName="Z.smcp" x="0" y="0" flags="0x204"/>
      <component glyphName="caron" x="128" y="29" flags="0x4"/>
    </TTGlyph>
    <TTGlyph name="Zdotaccent" xMin="94" yMin="0" xMax="1130" yMax="1805">
      <component glyphName="Z" x="0" y="0" flags="0x204"/>
      <component glyphName="dotaccent" x="405" y="349" flags="0x4"/>
    </TTGlyph>
    <TTGlyph name="Zdotaccent.smcp" xMin="73" yMin="0" xMax="986" yMax="1482">
      <component glyphName="Z.smcp" x="0" y="0" flags="0x204"/>
      <component glyphName="dotaccent" x="311" y="26" flags="0x4"/>
    </TTGlyph>
    <TTGlyph name="Zeta" xMin="94" yMin="0" xMax="1130" yMax="1456">
      <component glyphName="Z" x="0" y="0" flags="0x204"/>
    </TTGlyph>
    <TTGlyph name="a" xMin="92" yMin="-21" xMax="933" yMax="1102">
      <contour>
        <pt x="851" y="200" on="1"/>
        <pt x="795" y="102" on="0"/>
        <pt x="573" y="-21" on="0"/>
        <pt x="415" y="-21" on="1"/>
        <pt x="264" y="-21" on="0"/>
        <pt x="92" y="144" on="0"/>
        <pt x="92" y="284" on="1"/>
        <pt x="92" y="420" on="0"/>
        <pt x="349" y="604" on="0"/>
        <pt x="542" y="604" on="1"/>
        <pt x="851" y="604" on="1"/>
        <pt x="851" y="762" on="1"/>
        <pt x="851" y="897" on="0"/>
        <pt x="678" y="1048" on="0"/>
        <pt x="521" y="1048" on="1"/>
        <pt x="374" y="1048" on="0"/>
        <pt x="195" y="906" on="0"/>
        <pt x="195" y="794" on="1"/>
        <pt x="150" y="796" on="1"/>
        <pt x="148" y="801" on="1"/>
        <pt x="142" y="927" on="0"/>
        <pt x="350" y="1102" on="0"/>
        <pt x="521" y="1102" on="1"/>
        <pt x="695" y="1102" on="0"/>
        <pt x="905" y="926" on="0"/>
        <pt x="905" y="760" on="1"/>
        <pt x="905" y="218" on="1"/>
        <pt x="905" y="161" on="0"/>
        <pt x="918" y="53" on="0"/>
        <pt x="933" y="0" on="1"/>
        <pt x="873" y="0" on="1"/>
        <pt x="860" y="71" on="0"/>
        <pt x="851" y="142" on="0"/>
        <pt x="851" y="183" on="1"/>
      </contour>
      <contour>
        <pt x="415" y="32" on="1"/>
        <pt x="576" y="32" on="0"/>
        <pt x="799" y="174" on="0"/>
        <pt x="851" y="306" on="1"/>
        <pt x="851" y="549" on="1"/>
        <pt x="545" y="549" on="1"/>
        <pt x="377" y="549" on="0"/>
        <pt x="146" y="394" on="0"/>
        <pt x="146" y="280" on="1"/>
        <pt x="146" y="171" on="0"/>
        <pt x="293" y="32" on="0"/>
      </contour>
    </TTGlyph>
    <TTGlyph name="aacute" xMin="92" yMin="-21" xMax="933" yMax="1502">
      <component glyphName="a" x="0" y="0" flags="0x204"/>
      <component glyphName="acute" x="368" y="24" flags="0x4"/>
    </TTGlyph>
    <TTGlyph name="abreve" xMin="92" yMin="-21" xMax="933" yMax="1519">
      <component glyphName="a" x="0" y="0" flags="0x204"/>
      <component glyphName="breve" x="107" y="63" flags="0x4"/>
    </TTGlyph>
    <TTGlyph name="acircumflex" xMin="92" yMin="-21" xMax="933" yMax="1504">
      <component glyphName="a" x="0" y="0" flags="0x204"/>
      <component glyphName="circumflex" x="132" y="29" flags="0x4"/>
    </TTGlyph>
    <TTGlyph name="acute" xMin="109" yMin="1212" xMax="409" yMax="1478">
      <contour>
        <pt x="329" y="1478" on="1"/>
        <pt x="407" y="1478" on="1"/>
        <pt x="409" y="1473" on="1"/>
        <pt x="178" y="1212" on="1"/>
        <pt x="111" y="1212" on="1"/>
        <pt x="109" y="1217" on="1"/>
      </contour>
    </TTGlyph>
    <TTGlyph name="acutecomb" xMin="-568" yMin="1220" xMax="-348" yMax="1511">
      <contour>
        <pt x="-415" y="1511" on="1"/>
        <pt x="-348" y="1511" on="1"/>
        <pt x="-507" y="1220" on="1"/>
        <pt x="-568" y="1220" on="1"/>
      </contour>
    </TTGlyph>
    <TTGlyph name="adieresis" xMin="92" yMin="-21" xMax="933" yMax="1471">
      <component glyphName="a" x="0" y="0" flags="0x204"/>
      <component glyphName="dieresis" x="84" y="15" flags="0x4"/>
    </TTGlyph>
    <TTGlyph name="ae" xMin="93" yMin="-21" xMax="1657" yMax="1102">
      <contour>
        <pt x="1268" y="-21" on="1"/>
        <pt x="1125" y="-21" on="0"/>
        <pt x="921" y="111" on="0"/>
        <pt x="868" y="230" on="1"/>
        <pt x="868" y="218" on="1"/>
        <pt x="869" y="218" on="1"/>
        <pt x="825" y="123" on="0"/>
        <pt x="607" y="-21" on="0"/>
        <pt x="448" y="-21" on="1"/>
        <pt x="279" y="-21" on="0"/>
        <pt x="93" y="143" on="0"/>
        <pt x="93" y="284" on="1"/>
        <pt x="93" y="441" on="0"/>
        <pt x="316" y="630" on="0"/>
        <pt x="523" y="630" on="1"/>
        <pt x="813" y="630" on="1"/>
        <pt x="813" y="720" on="1"/>
        <pt x="813" y="878" on="0"/>
        <pt x="667" y="1048" on="0"/>
        <pt x="521" y="1048" on="1"/>
        <pt x="359" y="1048" on="0"/>
        <pt x="174" y="892" on="0"/>
        <pt x="174" y="771" on="1"/>
        <pt x="129" y="777" on="1"/>
        <pt x="127" y="783" on="1"/>
        <pt x="122" y="921" on="0"/>
        <pt x="339" y="1102" on="0"/>
        <pt x="521" y="1102" on="1"/>
        <pt x="659" y="1102" on="0"/>
        <pt x="837" y="955" on="0"/>
        <pt x="860" y="814" on="1"/>
        <pt x="913" y="947" on="0"/>
        <pt x="1121" y="1102" on="0"/>
        <pt x="1253" y="1102" on="1"/>
        <pt x="1441" y="1102" on="0"/>
        <pt x="1657" y="865" on="0"/>
        <pt x="1657" y="660" on="1"/>
        <pt x="1657" y="577" on="1"/>
        <pt x="870" y="577" on="1"/>
        <pt x="870" y="564" on="1"/>
        <pt x="870" y="500" on="1"/>
        <pt x="870" y="292" on="0"/>
        <pt x="1068" y="33" on="0"/>
        <pt x="1268" y="33" on="1"/>
        <pt x="1370" y="33" on="0"/>
        <pt x="1539" y="102" on="0"/>
        <pt x="1600" y="164" on="1"/>
        <pt x="1630" y="122" on="1"/>
        <pt x="1565" y="56" on="0"/>
        <pt x="1398" y="-21" on="0"/>
      </contour>
      <contour>
        <pt x="447" y="31" on="1"/>
        <pt x="577" y="31" on="0"/>
        <pt x="791" y="162" on="0"/>
        <pt x="813" y="225" on="1"/>
        <pt x="813" y="575" on="1"/>
        <pt x="525" y="575" on="1"/>
        <pt x="340" y="575" on="0"/>
        <pt x="148" y="407" on="0"/>
        <pt x="148" y="280" on="1"/>
        <pt x="148" y="163" on="0"/>
        <pt x="303" y="31" on="0"/>
      </contour>
      <contour>
        <pt x="1253" y="1048" on="1"/>
        <pt x="1094" y="1048" on="0"/>
        <pt x="891" y="815" on="0"/>
        <pt x="878" y="637" on="1"/>
        <pt x="880" y="632" on="1"/>
        <pt x="1603" y="632" on="1"/>
        <pt x="1603" y="664" on="1"/>
        <pt x="1603" y="832" on="0"/>
        <pt x="1420" y="1048" on="0"/>
      </contour>
    </TTGlyph>
    <TTGlyph name="aeacute" xMin="93" yMin="-21" xMax="1657" yMax="1501">
      <component glyphName="ae" x="0" y="0" flags="0x204"/>
      <component glyphName="acute" x="693" y="23" flags="0x4"/>
    </TTGlyph>
    <TTGlyph name="agrave" xMin="92" yMin="-21" xMax="933" yMax="1508">
      <component glyphName="a" x="0" y="0" flags="0x204"/>
      <component glyphName="grave" x="174" y="32" flags="0x4"/>
    </TTGlyph>
    <TTGlyph name="alpha" xMin="122" yMin="-21" xMax="1149" yMax="1102">
      <contour>
        <pt x="950" y="1081" on="1"/>
        <pt x="950" y="748" on="1"/>
        <pt x="950" y="747" on="0"/>
        <pt x="950" y="745" on="0"/>
        <pt x="951" y="745" on="1"/>
        <pt x="951" y="304" on="1"/>
        <pt x="950" y="302" on="0"/>
        <pt x="950" y="300" on="0"/>
        <pt x="950" y="299" on="1"/>
        <pt x="950" y="235" on="1"/>
        <pt x="950" y="123" on="0"/>
        <pt x="1014" y="32" on="0"/>
        <pt x="1073" y="32" on="1"/>
        <pt x="1089" y="32" on="0"/>
        <pt x="1112" y="36" on="0"/>
        <pt x="1138" y="42" on="1"/>
        <pt x="1149" y="-7" on="1"/>
        <pt x="1132" y="-15" on="0"/>
        <pt x="1097" y="-21" on="0"/>
        <pt x="1076" y="-21" on="1"/>
        <pt x="994" y="-21" on="0"/>
        <pt x="907" y="68" on="0"/>
        <pt x="898" y="170" on="1"/>
        <pt x="844" y="82" on="0"/>
        <pt x="654" y="-21" on="0"/>
        <pt x="528" y="-21" on="1"/>
        <pt x="337" y="-21" on="0"/>
        <pt x="122" y="271" on="0"/>
        <pt x="122" y="521" on="1"/>
        <pt x="122" y="542" on="1"/>
        <pt x="122" y="799" on="0"/>
        <pt x="338" y="1102" on="0"/>
        <pt x="530" y="1102" on="1"/>
        <pt x="657" y="1102" on="0"/>
        <pt x="843" y="986" on="0"/>
        <pt x="898" y="885" on="1"/>
        <pt x="915" y="1081" on="1"/>
      </contour>
      <contour>
        <pt x="178" y="521" on="1"/>
        <pt x="178" y="297" on="0"/>
        <pt x="355" y="33" on="0"/>
        <pt x="527" y="33" on="1"/>
        <pt x="668" y="33" on="0"/>
        <pt x="854" y="160" on="0"/>
        <pt x="896" y="266" on="1"/>
        <pt x="896" y="778" on="1"/>
        <pt x="856" y="893" on="0"/>
        <pt x="683" y="1048" on="0"/>
        <pt x="529" y="1048" on="1"/>
        <pt x="357" y="1048" on="0"/>
        <pt x="178" y="767" on="0"/>
        <pt x="178" y="542" on="1"/>
      </contour>
    </TTGlyph>
    <TTGlyph name="alphatonos" xMin="122" yMin="-21" xMax="1149" yMax="1486">
      <component glyphName="alpha" x="0" y="0" flags="0x204"/>
      <component glyphName="tonos" x="370" y="-82" flags="0x4"/>
    </TTGlyph>
    <TTGlyph name="amacron" xMin="92" yMin="-21" xMax="933" yMax="1466">
      <component glyphName="a" x="0" y="0" flags="0x204"/>
      <component glyphName="macron" x="121" y="10" flags="0x4"/>
    </TTGlyph>
    <TTGlyph name="ampersand" xMin="115" yMin="-21" xMax="1191" yMax="1477">
      <contour>
        <pt x="422" y="803" on="1"/>
        <pt x="340" y="906" on="0"/>
        <pt x="262" y="1076" on="0"/>
        <pt x="262" y="1167" on="1"/>
        <pt x="262" y="1316" on="0"/>
        <pt x="425" y="1477" on="0"/>
        <pt x="567" y="1477" on="1"/>
        <pt x="699" y="1477" on="0"/>
        <pt x="843" y="1333" on="0"/>
        <pt x="843" y="1215" on="1"/>
        <pt x="843" y="1131" on="0"/>
        <pt x="766" y="1014" on="0"/>
        <pt x="696" y="958" on="1"/>
        <pt x="494" y="797" on="1"/>
        <pt x="969" y="257" on="1"/>
        <pt x="1023" y="333" on="0"/>
        <pt x="1084" y="523" on="0"/>
        <pt x="1084" y="632" on="1"/>
        <pt x="1139" y="632" on="1"/>
        <pt x="1139" y="507" on="0"/>
        <pt x="1069" y="302" on="0"/>
        <pt x="1006" y="216" on="1"/>
        <pt x="1191" y="5" on="1"/>
        <pt x="1189" y="0" on="1"/>
        <pt x="1129" y="0" on="1"/>
        <pt x="972" y="177" on="1"/>
        <pt x="967" y="172" on="0"/>
        <pt x="961" y="166" on="0"/>
        <pt x="960" y="164" on="1"/>
        <pt x="870" y="75" on="0"/>
        <pt x="673" y="-21" on="0"/>
        <pt x="549" y="-21" on="1"/>
        <pt x="347" y="-21" on="0"/>
        <pt x="115" y="180" on="0"/>
        <pt x="115" y="352" on="1"/>
        <pt x="115" y="466" on="0"/>
        <pt x="250" y="660" on="0"/>
        <pt x="371" y="762" on="1"/>
      </contour>
      <contour>
        <pt x="549" y="33" on="1"/>
        <pt x="659" y="33" on="0"/>
        <pt x="861" y="128" on="0"/>
        <pt x="937" y="216" on="1"/>
        <pt x="488" y="725" on="1"/>
        <pt x="480" y="733" on="0"/>
        <pt x="465" y="751" on="0"/>
        <pt x="454" y="764" on="1"/>
        <pt x="402" y="723" on="1"/>
        <pt x="265" y="605" on="0"/>
        <pt x="169" y="430" on="0"/>
        <pt x="169" y="352" on="1"/>
        <pt x="169" y="218" on="0"/>
        <pt x="365" y="33" on="0"/>
      </contour>
      <contour>
        <pt x="317" y="1169" on="1"/>
        <pt x="317" y="1090" on="0"/>
        <pt x="387" y="922" on="0"/>
        <pt x="462" y="834" on="1"/>
        <pt x="671" y="1000" on="1"/>
        <pt x="731" y="1050" on="0"/>
        <pt x="787" y="1157" on="0"/>
        <pt x="787" y="1215" on="1"/>
        <pt x="787" y="1309" on="0"/>
        <pt x="674" y="1423" on="0"/>
        <pt x="567" y="1423" on="1"/>
        <pt x="447" y="1423" on="0"/>
        <pt x="317" y="1278" on="0"/>
      </contour>
    </TTGlyph>
    <TTGlyph name="anoteleia" xMin="171" yMin="624" xMax="289" yMax="776">
      <component glyphName="periodcentered" x="0" y="0" flags="0x204"/>
    </TTGlyph>
    <TTGlyph name="aogonek" xMin="92" yMin="-357" xMax="985" yMax="1102">
      <component glyphName="a" x="0" y="0" flags="0x204"/>
      <component glyphName="ogonek" x="610" y="0" flags="0x4"/>
    </TTGlyph>
    <TTGlyph name="approxequal" xMin="101" yMin="383" xMax="1042" yMax="987">
      <contour>
        <pt x="111" y="837" on="1"/>
        <pt x="158" y="905" on="0"/>
        <pt x="282" y="983" on="0"/>
        <pt x="347" y="983" on="1"/>
        <pt x="416" y="984" on="0"/>
        <pt x="480" y="960" on="0"/>
        <pt x="581" y="910" on="1"/>
        <pt x="676" y="861" on="0"/>
        <pt x="738" y="837" on="0"/>
        <pt x="803" y="837" on="1"/>
        <pt x="866" y="837" on="0"/>
        <pt x="986" y="916" on="0"/>
        <pt x="1035" y="987" on="1"/>
        <pt x="1042" y="921" on="1"/>
        <pt x="994" y="852" on="0"/>
        <pt x="870" y="775" on="0"/>
        <pt x="806" y="775" on="1"/>
        <pt x="740" y="775" on="0"/>
        <pt x="674" y="800" on="0"/>
        <pt x="588" y="844" on="1"/>
        <pt x="477" y="899" on="0"/>
        <pt x="418" y="922" on="0"/>
        <pt x="350" y="921" on="1"/>
        <pt x="286" y="921" on="0"/>
        <pt x="166" y="841" on="0"/>
        <pt x="118" y="771" on="1"/>
      </contour>
      <contour>
        <pt x="101" y="447" on="1"/>
        <pt x="148" y="515" on="0"/>
        <pt x="272" y="593" on="0"/>
        <pt x="337" y="593" on="1"/>
        <pt x="406" y="594" on="0"/>
        <pt x="470" y="570" on="0"/>
        <pt x="571" y="520" on="1"/>
        <pt x="666" y="471" on="0"/>
        <pt x="728" y="447" on="0"/>
        <pt x="793" y="447" on="1"/>
        <pt x="856" y="447" on="0"/>
        <pt x="976" y="526" on="0"/>
        <pt x="1025" y="597" on="1"/>
        <pt x="1031" y="533" on="1"/>
        <pt x="983" y="464" on="0"/>
        <pt x="859" y="387" on="0"/>
        <pt x="795" y="387" on="1"/>
        <pt x="729" y="387" on="0"/>
        <pt x="663" y="412" on="0"/>
        <pt x="577" y="456" on="1"/>
        <pt x="466" y="511" on="0"/>
        <pt x="407" y="534" on="0"/>
        <pt x="339" y="533" on="1"/>
        <pt x="275" y="533" on="0"/>
        <pt x="155" y="453" on="0"/>
        <pt x="107" y="383" on="1"/>
      </contour>
    </TTGlyph>
    <TTGlyph name="aring" xMin="92" yMin="-21" xMax="933" yMax="1545">
      <component glyphName="a" x="0" y="0" flags="0x204"/>
      <component glyphName="ring" x="192" y="68" flags="0x4"/>
    </TTGlyph>
    <TTGlyph name="aringacute" xMin="92" yMin="-21" xMax="933" yMax="1760">
      <component glyphName="a" x="0" y="0" flags="0x204"/>
      <component glyphName="ringacute" x="201" y="32" flags="0x4"/>
    </TTGlyph>
    <TTGlyph name="asciicircum" xMin="91" yMin="729" xMax="741" yMax="1456">
      <contour>
        <pt x="150" y="729" on="1"/>
        <pt x="91" y="729" on="1"/>
        <pt x="390" y="1456" on="1"/>
        <pt x="442" y="1456" on="1"/>
        <pt x="741" y="729" on="1"/>
        <pt x="680" y="729" on="1"/>
        <pt x="458" y="1272" on="1"/>
        <pt x="418" y="1386" on="1"/>
        <pt x="412" y="1386" on="1"/>
        <pt x="369" y="1272" on="1"/>
      </contour>
    </TTGlyph>
    <TTGlyph name="asciitilde" xMin="156" yMin="443" xMax="1251" yMax="774">
      <contour>
        <pt x="1251" y="740" on="1"/>
        <pt x="1251" y="619" on="0"/>
        <pt x="1100" y="443" on="0"/>
        <pt x="987" y="443" on="1"/>
        <pt x="900" y="443" on="0"/>
        <pt x="757" y="519" on="0"/>
        <pt x="666" y="602" on="1"/>
        <pt x="598" y="661" on="0"/>
        <pt x="479" y="720" on="0"/>
        <pt x="418" y="720" on="1"/>
        <pt x="329" y="720" on="0"/>
        <pt x="215" y="584" on="0"/>
        <pt x="215" y="462" on="1"/>
        <pt x="156" y="474" on="1"/>
        <pt x="156" y="602" on="0"/>
        <pt x="303" y="774" on="0"/>
        <pt x="418" y="774" on="1"/>
        <pt x="504" y="774" on="0"/>
        <pt x="649" y="695" on="0"/>
        <pt x="741" y="614" on="1"/>
        <pt x="808" y="552" on="0"/>
        <pt x="924" y="496" on="0"/>
        <pt x="987" y="496" on="1"/>
        <pt x="1073" y="496" on="0"/>
        <pt x="1190" y="637" on="0"/>
        <pt x="1190" y="753" on="1"/>
      </contour>
    </TTGlyph>
    <TTGlyph name="asterisk" xMin="30" yMin="661" xMax="832" yMax="1456">
      <contour>
        <pt x="393" y="1017" on="1"/>
        <pt x="30" y="1141" on="1"/>
        <pt x="48" y="1195" on="1"/>
        <pt x="410" y="1062" on="1"/>
        <pt x="411" y="1456" on="1"/>
        <pt x="467" y="1456" on="1"/>
        <pt x="460" y="1061" on="1"/>
        <pt x="812" y="1204" on="1"/>
        <pt x="832" y="1151" on="1"/>
        <pt x="472" y="1014" on="1"/>
        <pt x="721" y="697" on="1"/>
        <pt x="674" y="664" on="1"/>
        <pt x="432" y="986" on="1"/>
        <pt x="204" y="661" on="1"/>
        <pt x="159" y="693" on="1"/>
      </contour>
    </TTGlyph>
    <TTGlyph name="at" xMin="110" yMin="-453" xMax="1784" yMax="1411">
      <contour>
        <pt x="1767" y="523" on="1"/>
        <pt x="1757" y="304" on="0"/>
        <pt x="1549" y="-21" on="0"/>
        <pt x="1357" y="-21" on="1"/>
        <pt x="1274" y="-21" on="0"/>
        <pt x="1170" y="101" on="0"/>
        <pt x="1161" y="209" on="1"/>
        <pt x="1106" y="95" on="0"/>
        <pt x="938" y="-21" on="0"/>
        <pt x="829" y="-21" on="1"/>
        <pt x="693" y="-21" on="0"/>
        <pt x="559" y="217" on="0"/>
        <pt x="578" y="416" on="1"/>
        <pt x="601" y="666" on="0"/>
        <pt x="843" y="968" on="0"/>
        <pt x="1015" y="968" on="1"/>
        <pt x="1098" y="968" on="0"/>
        <pt x="1202" y="913" on="0"/>
        <pt x="1265" y="858" on="1"/>
        <pt x="1216" y="293" on="1"/>
        <pt x="1205" y="141" on="0"/>
        <pt x="1300" y="34" on="0"/>
        <pt x="1360" y="34" on="1"/>
        <pt x="1518" y="34" on="0"/>
        <pt x="1699" y="303" on="0"/>
        <pt x="1710" y="523" on="1"/>
        <pt x="1730" y="919" on="0"/>
        <pt x="1382" y="1354" on="0"/>
        <pt x="997" y="1354" on="1"/>
        <pt x="661" y="1354" on="0"/>
        <pt x="204" y="875" on="0"/>
        <pt x="184" y="478" on="1"/>
        <pt x="164" y="95" on="0"/>
        <pt x="553" y="-398" on="0"/>
        <pt x="910" y="-398" on="1"/>
        <pt x="997" y="-398" on="0"/>
        <pt x="1178" y="-354" on="0"/>
        <pt x="1240" y="-318" on="1"/>
        <pt x="1264" y="-364" on="1"/>
        <pt x="1202" y="-404" on="0"/>
        <pt x="998" y="-453" on="0"/>
        <pt x="906" y="-453" on="1"/>
        <pt x="526" y="-453" on="0"/>
        <pt x="110" y="46" on="0"/>
        <pt x="129" y="478" on="1"/>
        <pt x="147" y="905" on="0"/>
        <pt x="622" y="1411" on="0"/>
        <pt x="1001" y="1411" on="1"/>
        <pt x="1403" y="1411" on="0"/>
        <pt x="1784" y="943" on="0"/>
      </contour>
      <contour>
        <pt x="632" y="416" on="1"/>
        <pt x="613" y="249" on="0"/>
        <pt x="714" y="33" on="0"/>
        <pt x="827" y="33" on="1"/>
        <pt x="935" y="33" on="0"/>
        <pt x="1107" y="166" on="0"/>
        <pt x="1165" y="345" on="1"/>
        <pt x="1207" y="831" on="1"/>
        <pt x="1173" y="870" on="0"/>
        <pt x="1076" y="913" on="0"/>
        <pt x="1012" y="913" on="1"/>
        <pt x="870" y="913" on="0"/>
        <pt x="658" y="660" on="0"/>
      </contour>
    </TTGlyph>
    <TTGlyph name="atilde" xMin="92" yMin="-21" xMax="933" yMax="1491">
      <component glyphName="a" x="0" y="0" flags="0x204"/>
      <component glyphName="tilde" x="117" y="9" flags="0x4"/>
    </TTGlyph>
    <TTGlyph name="b" xMin="170" yMin="-21" xMax="999" yMax="1560">
      <contour>
        <pt x="999" y="521" on="1"/>
        <pt x="999" y="271" on="0"/>
        <pt x="783" y="-21" on="0"/>
        <pt x="593" y="-21" on="1"/>
        <pt x="465" y="-21" on="0"/>
        <pt x="275" y="82" on="0"/>
        <pt x="222" y="170" on="1"/>
        <pt x="215" y="0" on="1"/>
        <pt x="170" y="0" on="1"/>
        <pt x="170" y="1560" on="1"/>
        <pt x="224" y="1560" on="1"/>
        <pt x="224" y="889" on="1"/>
        <pt x="278" y="988" on="0"/>
        <pt x="464" y="1102" on="0"/>
        <pt x="591" y="1102" on="1"/>
        <pt x="782" y="1102" on="0"/>
        <pt x="999" y="799" on="0"/>
        <pt x="999" y="542" on="1"/>
      </contour>
      <contour>
        <pt x="943" y="542" on="1"/>
        <pt x="943" y="767" on="0"/>
        <pt x="763" y="1048" on="0"/>
        <pt x="592" y="1048" on="1"/>
        <pt x="435" y="1048" on="0"/>
        <pt x="261" y="890" on="0"/>
        <pt x="224" y="775" on="1"/>
        <pt x="224" y="268" on="1"/>
        <pt x="264" y="161" on="0"/>
        <pt x="452" y="33" on="0"/>
        <pt x="594" y="33" on="1"/>
        <pt x="765" y="33" on="0"/>
        <pt x="943" y="297" on="0"/>
        <pt x="943" y="521" on="1"/>
      </contour>
    </TTGlyph>
    <TTGlyph name="backslash" xMin="57" yMin="-125" xMax="723" yMax="1456">
      <contour>
        <pt x="57" y="1456" on="1"/>
        <pt x="115" y="1456" on="1"/>
        <pt x="723" y="-125" on="1"/>
        <pt x="665" y="-125" on="1"/>
      </contour>
    </TTGlyph>
    <TTGlyph name="bar" xMin="181" yMin="-270" xMax="235" yMax="1456">
      <contour>
        <pt x="235" y="-270" on="1"/>
        <pt x="181" y="-270" on="1"/>
        <pt x="181" y="1456" on="1"/>
        <pt x="235" y="1456" on="1"/>
      </contour>
    </TTGlyph>
    <TTGlyph name="beta" xMin="193" yMin="-413" xMax="1079" yMax="1477">
      <contour>
        <pt x="583" y="1477" on="1"/>
        <pt x="759" y="1477" on="0"/>
        <pt x="974" y="1268" on="0"/>
        <pt x="974" y="1103" on="1"/>
        <pt x="974" y="990" on="0"/>
        <pt x="862" y="812" on="0"/>
        <pt x="760" y="770" on="1"/>
        <pt x="916" y="737" on="0"/>
        <pt x="1079" y="530" on="0"/>
        <pt x="1079" y="385" on="1"/>
        <pt x="1079" y="194" on="0"/>
        <pt x="835" y="-21" on="0"/>
        <pt x="634" y="-21" on="1"/>
        <pt x="525" y="-21" on="0"/>
        <pt x="309" y="66" on="0"/>
        <pt x="249" y="148" on="1"/>
        <pt x="249" y="-413" on="1"/>
        <pt x="195" y="-413" on="1"/>
        <pt x="195" y="284" on="1"/>
        <pt x="194" y="295" on="0"/>
        <pt x="193" y="310" on="0"/>
        <pt x="193" y="318" on="1"/>
        <pt x="195" y="319" on="1"/>
        <pt x="195" y="1054" on="1"/>
        <pt x="195" y="1236" on="0"/>
        <pt x="421" y="1477" on="0"/>
      </contour>
      <contour>
        <pt x="579" y="791" on="1"/>
        <pt x="754" y="791" on="0"/>
        <pt x="920" y="955" on="0"/>
        <pt x="920" y="1108" on="1"/>
        <pt x="920" y="1237" on="0"/>
        <pt x="747" y="1423" on="0"/>
        <pt x="583" y="1423" on="1"/>
        <pt x="441" y="1423" on="0"/>
        <pt x="249" y="1213" on="0"/>
        <pt x="249" y="1054" on="1"/>
        <pt x="249" y="244" on="1"/>
        <pt x="288" y="149" on="0"/>
        <pt x="502" y="33" on="0"/>
        <pt x="634" y="33" on="1"/>
        <pt x="823" y="33" on="0"/>
        <pt x="1024" y="216" on="0"/>
        <pt x="1024" y="381" on="1"/>
        <pt x="1024" y="547" on="0"/>
        <pt x="814" y="735" on="0"/>
        <pt x="619" y="735" on="1"/>
        <pt x="476" y="735" on="1"/>
        <pt x="476" y="791" on="1"/>
      </contour>
    </TTGlyph>
    <TTGlyph name="braceleft" xMin="73" yMin="-441" xMax="662" yMax="1597">
      <contour>
        <pt x="642" y="-441" on="1"/>
        <pt x="469" y="-386" on="0"/>
        <pt x="323" y="-150" on="0"/>
        <pt x="323" y="20" on="1"/>
        <pt x="323" y="265" on="1"/>
        <pt x="323" y="397" on="0"/>
        <pt x="201" y="543" on="0"/>
        <pt x="73" y="543" on="1"/>
        <pt x="73" y="609" on="1"/>
        <pt x="201" y="609" on="0"/>
        <pt x="323" y="753" on="0"/>
        <pt x="323" y="885" on="1"/>
        <pt x="323" y="1132" on="1"/>
        <pt x="323" y="1303" on="0"/>
        <pt x="469" y="1542" on="0"/>
        <pt x="642" y="1597" on="1"/>
        <pt x="657" y="1552" on="1"/>
        <pt x="514" y="1506" on="0"/>
        <pt x="377" y="1287" on="0"/>
        <pt x="377" y="1132" on="1"/>
        <pt x="377" y="885" on="1"/>
        <pt x="377" y="765" on="0"/>
        <pt x="273" y="601" on="0"/>
        <pt x="166" y="576" on="1"/>
        <pt x="273" y="550" on="0"/>
        <pt x="377" y="384" on="0"/>
        <pt x="377" y="265" on="1"/>
        <pt x="377" y="20" on="1"/>
        <pt x="377" y="-134" on="0"/>
        <pt x="518" y="-346" on="0"/>
        <pt x="662" y="-395" on="1"/>
      </contour>
    </TTGlyph>
    <TTGlyph name="braceright" xMin="0" yMin="-441" xMax="588" yMax="1597">
      <contour>
        <pt x="0" y="-395" on="1"/>
        <pt x="143" y="-346" on="0"/>
        <pt x="284" y="-134" on="0"/>
        <pt x="284" y="20" on="1"/>
        <pt x="284" y="265" on="1"/>
        <pt x="284" y="384" on="0"/>
        <pt x="387" y="550" on="0"/>
        <pt x="495" y="576" on="1"/>
        <pt x="387" y="601" on="0"/>
        <pt x="284" y="765" on="0"/>
        <pt x="284" y="885" on="1"/>
        <pt x="284" y="1132" on="1"/>
        <pt x="284" y="1287" on="0"/>
        <pt x="147" y="1506" on="0"/>
        <pt x="5" y="1552" on="1"/>
        <pt x="19" y="1597" on="1"/>
        <pt x="191" y="1542" on="0"/>
        <pt x="338" y="1303" on="0"/>
        <pt x="338" y="1132" on="1"/>
        <pt x="338" y="885" on="1"/>
        <pt x="338" y="753" on="0"/>
        <pt x="460" y="609" on="0"/>
        <pt x="588" y="609" on="1"/>
        <pt x="588" y="543" on="1"/>
        <pt x="460" y="543" on="0"/>
        <pt x="338" y="396" on="0"/>
        <pt x="338" y="265" on="1"/>
        <pt x="338" y="20" on="1"/>
        <pt x="338" y="-151" on="0"/>
        <pt x="192" y="-386" on="0"/>
        <pt x="19" y="-441" on="1"/>
      </contour>
    </TTGlyph>
    <TTGlyph name="bracketleft" xMin="181" yMin="-312" xMax="464" yMax="1664">
      <contour>
        <pt x="464" y="1610" on="1"/>
        <pt x="235" y="1610" on="1"/>
        <pt x="235" y="-258" on="1"/>
        <pt x="464" y="-258" on="1"/>
        <pt x="464" y="-312" on="1"/>
        <pt x="181" y="-312" on="1"/>
        <pt x="181" y="1664" on="1"/>
        <pt x="464" y="1664" on="1"/>
      </contour>
    </TTGlyph>
    <TTGlyph name="bracketright" xMin="-8" yMin="-312" xMax="275" yMax="1664">
      <contour>
        <pt x="-8" y="1664" on="1"/>
        <pt x="275" y="1664" on="1"/>
        <pt x="275" y="-312" on="1"/>
        <pt x="-8" y="-312" on="1"/>
        <pt x="-8" y="-258" on="1"/>
        <pt x="220" y="-258" on="1"/>
        <pt x="220" y="1610" on="1"/>
        <pt x="-8" y="1610" on="1"/>
      </contour>
    </TTGlyph>
    <TTGlyph name="breve" xMin="148" yMin="1208" xMax="702" yMax="1456">
      <contour>
        <pt x="696" y="1456" on="1"/>
        <pt x="698" y="1450" on="1"/>
        <pt x="702" y="1343" on="0"/>
        <pt x="554" y="1208" on="0"/>
        <pt x="426" y="1208" on="1"/>
        <pt x="297" y="1208" on="0"/>
        <pt x="148" y="1343" on="0"/>
        <pt x="153" y="1450" on="1"/>
        <pt x="155" y="1456" on="1"/>
        <pt x="201" y="1456" on="1"/>
        <pt x="201" y="1370" on="0"/>
        <pt x="309" y="1264" on="0"/>
        <pt x="426" y="1264" on="1"/>
        <pt x="538" y="1264" on="0"/>
        <pt x="650" y="1372" on="0"/>
        <pt x="650" y="1456" on="1"/>
      </contour>
    </TTGlyph>
    <TTGlyph name="breveacutecomb" xMin="148" yMin="1248" xMax="708" yMax="1637">
      <contour>
        <pt x="700" y="1456" on="1"/>
        <pt x="702" y="1450" on="1"/>
        <pt x="708" y="1361" on="0"/>
        <pt x="558" y="1248" on="0"/>
        <pt x="429" y="1248" on="1"/>
        <pt x="298" y="1248" on="0"/>
        <pt x="148" y="1361" on="0"/>
        <pt x="155" y="1450" on="1"/>
        <pt x="157" y="1456" on="1"/>
        <pt x="201" y="1456" on="1"/>
        <pt x="201" y="1383" on="0"/>
        <pt x="311" y="1294" on="0"/>
        <pt x="429" y="1294" on="1"/>
        <pt x="542" y="1294" on="0"/>
        <pt x="655" y="1385" on="0"/>
        <pt x="655" y="1456" on="1"/>
      </contour>
      <contour>
        <pt x="531" y="1637" on="1"/>
        <pt x="589" y="1637" on="1"/>
        <pt x="592" y="1632" on="1"/>
        <pt x="420" y="1424" on="1"/>
        <pt x="365" y="1424" on="1"/>
      </contour>
    </TTGlyph>
    <TTGlyph name="brevegravecomb" xMin="127" yMin="1230" xMax="722" yMax="1663">
      <contour>
        <pt x="715" y="1456" on="1"/>
        <pt x="717" y="1450" on="1"/>
        <pt x="722" y="1353" on="0"/>
        <pt x="563" y="1230" on="0"/>
        <pt x="426" y="1230" on="1"/>
        <pt x="288" y="1230" on="0"/>
        <pt x="127" y="1354" on="0"/>
        <pt x="134" y="1450" on="1"/>
        <pt x="135" y="1456" on="1"/>
        <pt x="181" y="1456" on="1"/>
        <pt x="181" y="1379" on="0"/>
        <pt x="298" y="1285" on="0"/>
        <pt x="426" y="1285" on="1"/>
        <pt x="548" y="1285" on="0"/>
        <pt x="670" y="1381" on="0"/>
        <pt x="670" y="1456" on="1"/>
      </contour>
      <contour>
        <pt x="494" y="1437" on="1"/>
        <pt x="411" y="1437" on="1"/>
        <pt x="235" y="1663" on="1"/>
        <pt x="329" y="1663" on="1"/>
      </contour>
    </TTGlyph>
    <TTGlyph name="brevehookcomb" xMin="148" yMin="1252" xMax="692" yMax="1767">
      <contour>
        <pt x="639" y="1456" on="1"/>
        <pt x="639" y="1387" on="0"/>
        <pt x="530" y="1298" on="0"/>
        <pt x="421" y="1298" on="1"/>
        <pt x="306" y="1298" on="0"/>
        <pt x="200" y="1385" on="0"/>
        <pt x="200" y="1456" on="1"/>
        <pt x="157" y="1456" on="1"/>
        <pt x="155" y="1450" on="1"/>
        <pt x="148" y="1363" on="0"/>
        <pt x="294" y="1252" on="0"/>
        <pt x="421" y="1252" on="1"/>
        <pt x="546" y="1252" on="0"/>
        <pt x="692" y="1363" on="0"/>
        <pt x="686" y="1450" on="1"/>
        <pt x="684" y="1456" on="1"/>
      </contour>
      <contour>
        <pt x="400" y="1439" on="1"/>
        <pt x="400" y="1528" on="1"/>
        <pt x="497" y="1534" on="0"/>
        <pt x="582" y="1578" on="0"/>
        <pt x="582" y="1628" on="1"/>
        <pt x="582" y="1677" on="0"/>
        <pt x="446" y="1724" on="0"/>
        <pt x="355" y="1724" on="1"/>
        <pt x="362" y="1767" on="1"/>
        <pt x="484" y="1767" on="0"/>
        <pt x="636" y="1693" on="0"/>
        <pt x="636" y="1628" on="1"/>
        <pt x="636" y="1560" on="0"/>
        <pt x="532" y="1492" on="0"/>
        <pt x="446" y="1486" on="1"/>
        <pt x="446" y="1439" on="1"/>
      </contour>
    </TTGlyph>
    <TTGlyph name="brevetildecomb" xMin="148" yMin="1244" xMax="711" yMax="1716">
      <contour>
        <pt x="702" y="1457" on="1"/>
        <pt x="703" y="1451" on="1"/>
        <pt x="709" y="1360" on="0"/>
        <pt x="558" y="1244" on="0"/>
        <pt x="429" y="1244" on="1"/>
        <pt x="298" y="1244" on="0"/>
        <pt x="148" y="1360" on="0"/>
        <pt x="155" y="1451" on="1"/>
        <pt x="156" y="1457" on="1"/>
        <pt x="201" y="1457" on="1"/>
        <pt x="201" y="1383" on="0"/>
        <pt x="311" y="1292" on="0"/>
        <pt x="429" y="1292" on="1"/>
        <pt x="542" y="1292" on="0"/>
        <pt x="655" y="1385" on="0"/>
        <pt x="655" y="1457" on="1"/>
      </contour>
      <contour>
        <pt x="711" y="1706" on="1"/>
        <pt x="711" y="1633" on="0"/>
        <pt x="622" y="1542" on="0"/>
        <pt x="556" y="1542" on="1"/>
        <pt x="489" y="1542" on="0"/>
        <pt x="352" y="1651" on="0"/>
        <pt x="305" y="1651" on="1"/>
        <pt x="259" y="1651" on="0"/>
        <pt x="198" y="1587" on="0"/>
        <pt x="198" y="1534" on="1"/>
        <pt x="150" y="1543" on="1"/>
        <pt x="150" y="1613" on="0"/>
        <pt x="238" y="1701" on="0"/>
        <pt x="305" y="1701" on="1"/>
        <pt x="368" y="1701" on="0"/>
        <pt x="509" y="1590" on="0"/>
        <pt x="556" y="1590" on="1"/>
        <pt x="600" y="1590" on="0"/>
        <pt x="663" y="1660" on="0"/>
        <pt x="663" y="1716" on="1"/>
      </contour>
    </TTGlyph>
    <TTGlyph name="brokenbar" xMin="172" yMin="-270" xMax="226" yMax="1456">
      <contour>
        <pt x="172" y="-270" on="1"/>
        <pt x="172" y="482" on="1"/>
        <pt x="226" y="482" on="1"/>
        <pt x="226" y="-270" on="1"/>
      </contour>
      <contour>
        <pt x="226" y="698" on="1"/>
        <pt x="172" y="698" on="1"/>
        <pt x="172" y="1456" on="1"/>
        <pt x="226" y="1456" on="1"/>
      </contour>
    </TTGlyph>
    <TTGlyph name="bullet" xMin="155" yMin="545" xMax="489" yMax="933">
      <contour>
        <pt x="155" y="773" on="1"/>
        <pt x="155" y="843" on="0"/>
        <pt x="245" y="933" on="0"/>
        <pt x="321" y="933" on="1"/>
        <pt x="397" y="933" on="0"/>
        <pt x="489" y="842" on="0"/>
        <pt x="489" y="773" on="1"/>
        <pt x="489" y="703" on="1"/>
        <pt x="489" y="633" on="0"/>
        <pt x="398" y="545" on="0"/>
        <pt x="322" y="545" on="1"/>
        <pt x="245" y="545" on="0"/>
        <pt x="155" y="633" on="0"/>
        <pt x="155" y="703" on="1"/>
      </contour>
    </TTGlyph>
    <TTGlyph name="c" xMin="97" yMin="-21" xMax="938" yMax="1102">
      <contour>
        <pt x="539" y="33" on="1"/>
        <pt x="676" y="33" on="0"/>
        <pt x="886" y="183" on="0"/>
        <pt x="886" y="333" on="1"/>
        <pt x="932" y="333" on="1"/>
        <pt x="934" y="327" on="1"/>
        <pt x="938" y="168" on="0"/>
        <pt x="697" y="-21" on="0"/>
        <pt x="539" y="-21" on="1"/>
        <pt x="332" y="-21" on="0"/>
        <pt x="97" y="277" on="0"/>
        <pt x="97" y="520" on="1"/>
        <pt x="97" y="562" on="1"/>
        <pt x="97" y="804" on="0"/>
        <pt x="331" y="1102" on="0"/>
        <pt x="537" y="1102" on="1"/>
        <pt x="705" y="1102" on="0"/>
        <pt x="938" y="905" on="0"/>
        <pt x="934" y="726" on="1"/>
        <pt x="932" y="720" on="1"/>
        <pt x="886" y="720" on="1"/>
        <pt x="886" y="879" on="0"/>
        <pt x="682" y="1048" on="0"/>
        <pt x="537" y="1048" on="1"/>
        <pt x="347" y="1048" on="0"/>
        <pt x="151" y="776" on="0"/>
        <pt x="151" y="562" on="1"/>
        <pt x="151" y="520" on="1"/>
        <pt x="151" y="304" on="0"/>
        <pt x="347" y="33" on="0"/>
      </contour>
    </TTGlyph>
    <TTGlyph name="cacute" xMin="97" yMin="-21" xMax="938" yMax="1500">
      <component glyphName="c" x="0" y="0" flags="0x204"/>
      <component glyphName="acute" x="381" y="22" flags="0x4"/>
    </TTGlyph>
    <TTGlyph name="caron" xMin="132" yMin="1252" xMax="637" yMax="1475">
      <contour>
        <pt x="386" y="1288" on="1"/>
        <pt x="570" y="1475" on="1"/>
        <pt x="637" y="1475" on="1"/>
        <pt x="637" y="1459" on="1"/>
        <pt x="425" y="1252" on="1"/>
        <pt x="346" y="1252" on="1"/>
        <pt x="132" y="1461" on="1"/>
        <pt x="132" y="1475" on="1"/>
        <pt x="203" y="1475" on="1"/>
      </contour>
    </TTGlyph>
    <TTGlyph name="ccaron" xMin="97" yMin="-21" xMax="938" yMax="1505">
      <component glyphName="c" x="0" y="0" flags="0x204"/>
      <component glyphName="caron" x="160" y="30" flags="0x4"/>
    </TTGlyph>
    <TTGlyph name="ccedilla" xMin="97" yMin="-444" xMax="938" yMax="1102">
      <component glyphName="c" x="0" y="0" flags="0x204"/>
      <component glyphName="cedilla" x="341" y="-9" flags="0x4"/>
    </TTGlyph>
    <TTGlyph name="ccircumflex" xMin="97" yMin="-21" xMax="938" yMax="1502">
      <component glyphName="c" x="0" y="0" flags="0x204"/>
      <component glyphName="circumflex" x="145" y="27" flags="0x4"/>
    </TTGlyph>
    <TTGlyph name="cedilla" xMin="81" yMin="-435" xMax="393" yMax="0">
      <contour>
        <pt x="207" y="0" on="1"/>
        <pt x="196" y="-76" on="1"/>
        <pt x="287" y="-83" on="0"/>
        <pt x="393" y="-160" on="0"/>
        <pt x="393" y="-245" on="1"/>
        <pt x="393" y="-332" on="0"/>
        <pt x="235" y="-435" on="0"/>
        <pt x="88" y="-435" on="1"/>
        <pt x="81" y="-386" on="1"/>
        <pt x="185" y="-386" on="0"/>
        <pt x="338" y="-314" on="0"/>
        <pt x="338" y="-245" on="1"/>
        <pt x="338" y="-181" on="0"/>
        <pt x="247" y="-131" on="0"/>
        <pt x="129" y="-121" on="1"/>
        <pt x="154" y="0" on="1"/>
      </contour>
    </TTGlyph>
    <TTGlyph name="cent" xMin="134" yMin="-245" xMax="975" yMax="1318">
      <contour>
        <pt x="576" y="33" on="1"/>
        <pt x="713" y="33" on="0"/>
        <pt x="923" y="183" on="0"/>
        <pt x="923" y="333" on="1"/>
        <pt x="969" y="333" on="1"/>
        <pt x="971" y="327" on="1"/>
        <pt x="975" y="175" on="0"/>
        <pt x="755" y="-11" on="0"/>
        <pt x="604" y="-20" on="1"/>
        <pt x="604" y="-245" on="1"/>
        <pt x="549" y="-245" on="1"/>
        <pt x="549" y="-20" on="1"/>
        <pt x="353" y="-9" on="0"/>
        <pt x="134" y="285" on="0"/>
        <pt x="134" y="520" on="1"/>
        <pt x="134" y="562" on="1"/>
        <pt x="134" y="796" on="0"/>
        <pt x="354" y="1091" on="0"/>
        <pt x="549" y="1101" on="1"/>
        <pt x="549" y="1318" on="1"/>
        <pt x="604" y="1318" on="1"/>
        <pt x="604" y="1101" on="1"/>
        <pt x="762" y="1091" on="0"/>
        <pt x="975" y="896" on="0"/>
        <pt x="972" y="726" on="1"/>
        <pt x="969" y="720" on="1"/>
        <pt x="923" y="720" on="1"/>
        <pt x="923" y="879" on="0"/>
        <pt x="719" y="1048" on="0"/>
        <pt x="574" y="1048" on="1"/>
        <pt x="384" y="1048" on="0"/>
        <pt x="188" y="776" on="0"/>
        <pt x="188" y="562" on="1"/>
        <pt x="188" y="520" on="1"/>
        <pt x="188" y="304" on="0"/>
        <pt x="384" y="33" on="0"/>
      </contour>
    </TTGlyph>
    <TTGlyph name="chi" xMin="38" yMin="-419" xMax="1060" yMax="1090">
      <contour>
        <pt x="114" y="1090" on="1"/>
        <pt x="208" y="1090" on="0"/>
        <pt x="297" y="973" on="0"/>
        <pt x="362" y="848" on="1"/>
        <pt x="554" y="422" on="1"/>
        <pt x="916" y="1082" on="1"/>
        <pt x="979" y="1082" on="1"/>
        <pt x="582" y="361" on="1"/>
        <pt x="806" y="-136" on="1"/>
        <pt x="885" y="-295" on="0"/>
        <pt x="929" y="-366" on="0"/>
        <pt x="982" y="-366" on="1"/>
        <pt x="993" y="-366" on="0"/>
        <pt x="1039" y="-361" on="0"/>
        <pt x="1051" y="-359" on="1"/>
        <pt x="1060" y="-409" on="1"/>
        <pt x="1048" y="-413" on="0"/>
        <pt x="1000" y="-419" on="0"/>
        <pt x="982" y="-419" on="1"/>
        <pt x="910" y="-419" on="0"/>
        <pt x="830" y="-315" on="0"/>
        <pt x="756" y="-162" on="1"/>
        <pt x="548" y="300" on="1"/>
        <pt x="155" y="-414" on="1"/>
        <pt x="96" y="-414" on="1"/>
        <pt x="521" y="361" on="1"/>
        <pt x="307" y="838" on="1"/>
        <pt x="244" y="962" on="0"/>
        <pt x="188" y="1036" on="0"/>
        <pt x="115" y="1036" on="1"/>
        <pt x="102" y="1036" on="0"/>
        <pt x="57" y="1031" on="0"/>
        <pt x="47" y="1028" on="1"/>
        <pt x="38" y="1080" on="1"/>
        <pt x="49" y="1084" on="0"/>
        <pt x="96" y="1090" on="0"/>
      </contour>
    </TTGlyph>
    <TTGlyph name="circumflex" xMin="152" yMin="1252" xMax="656" yMax="1475">
      <contour>
        <pt x="656" y="1265" on="1"/>
        <pt x="656" y="1252" on="1"/>
        <pt x="586" y="1252" on="1"/>
        <pt x="401" y="1438" on="1"/>
        <pt x="218" y="1252" on="1"/>
        <pt x="152" y="1252" on="1"/>
        <pt x="152" y="1269" on="1"/>
        <pt x="362" y="1475" on="1"/>
        <pt x="442" y="1475" on="1"/>
      </contour>
    </TTGlyph>
    <TTGlyph name="circumflexacutecomb" xMin="81" yMin="1252" xMax="822" yMax="1584">
      <contour>
        <pt x="323" y="1475" on="1"/>
        <pt x="403" y="1475" on="1"/>
        <pt x="645" y="1258" on="1"/>
        <pt x="643" y="1252" on="1"/>
        <pt x="567" y="1252" on="1"/>
        <pt x="363" y="1438" on="1"/>
        <pt x="159" y="1252" on="1"/>
        <pt x="83" y="1252" on="1"/>
        <pt x="81" y="1258" on="1"/>
      </contour>
      <contour>
        <pt x="753" y="1584" on="1"/>
        <pt x="819" y="1584" on="1"/>
        <pt x="822" y="1579" on="1"/>
        <pt x="663" y="1380" on="1"/>
        <pt x="600" y="1380" on="1"/>
      </contour>
    </TTGlyph>
    <TTGlyph name="circumflexgravecomb" xMin="-57" yMin="1252" xMax="684" yMax="1584">
      <contour>
        <pt x="684" y="1258" on="1"/>
        <pt x="682" y="1252" on="1"/>
        <pt x="606" y="1252" on="1"/>
        <pt x="402" y="1438" on="1"/>
        <pt x="198" y="1252" on="1"/>
        <pt x="122" y="1252" on="1"/>
        <pt x="120" y="1258" on="1"/>
        <pt x="362" y="1475" on="1"/>
        <pt x="442" y="1475" on="1"/>
      </contour>
      <contour>
        <pt x="165" y="1380" on="1"/>
        <pt x="102" y="1380" on="1"/>
        <pt x="-57" y="1579" on="1"/>
        <pt x="-54" y="1584" on="1"/>
        <pt x="12" y="1584" on="1"/>
      </contour>
    </TTGlyph>
    <TTGlyph name="circumflexhookcomb" xMin="120" yMin="1252" xMax="895" yMax="1684">
      <contour>
        <pt x="442" y="1475" on="1"/>
        <pt x="362" y="1475" on="1"/>
        <pt x="120" y="1258" on="1"/>
        <pt x="122" y="1252" on="1"/>
        <pt x="198" y="1252" on="1"/>
        <pt x="401" y="1438" on="1"/>
        <pt x="606" y="1252" on="1"/>
        <pt x="682" y="1252" on="1"/>
        <pt x="684" y="1258" on="1"/>
      </contour>
      <contour>
        <pt x="685" y="1368" on="1"/>
        <pt x="685" y="1461" on="1"/>
        <pt x="771" y="1467" on="0"/>
        <pt x="834" y="1499" on="0"/>
        <pt x="834" y="1542" on="1"/>
        <pt x="834" y="1589" on="0"/>
        <pt x="727" y="1629" on="0"/>
        <pt x="648" y="1629" on="1"/>
        <pt x="653" y="1684" on="1"/>
        <pt x="760" y="1684" on="0"/>
        <pt x="895" y="1611" on="0"/>
        <pt x="895" y="1549" on="1"/>
        <pt x="895" y="1484" on="0"/>
        <pt x="806" y="1418" on="0"/>
        <pt x="731" y="1412" on="1"/>
        <pt x="731" y="1368" on="1"/>
      </contour>
    </TTGlyph>
    <TTGlyph name="circumflextildecomb" xMin="121" yMin="1252" xMax="683" yMax="1681">
      <contour>
        <pt x="683" y="1258" on="1"/>
        <pt x="681" y="1252" on="1"/>
        <pt x="606" y="1252" on="1"/>
        <pt x="401" y="1438" on="1"/>
        <pt x="198" y="1252" on="1"/>
        <pt x="123" y="1252" on="1"/>
        <pt x="121" y="1258" on="1"/>
        <pt x="372" y="1475" on="1"/>
        <pt x="432" y="1475" on="1"/>
      </contour>
      <contour>
        <pt x="661" y="1664" on="1"/>
        <pt x="661" y="1601" on="0"/>
        <pt x="586" y="1524" on="0"/>
        <pt x="531" y="1524" on="1"/>
        <pt x="475" y="1524" on="0"/>
        <pt x="359" y="1629" on="0"/>
        <pt x="318" y="1629" on="1"/>
        <pt x="282" y="1629" on="0"/>
        <pt x="240" y="1565" on="0"/>
        <pt x="240" y="1516" on="1"/>
        <pt x="189" y="1524" on="1"/>
        <pt x="189" y="1586" on="0"/>
        <pt x="265" y="1681" on="0"/>
        <pt x="318" y="1681" on="1"/>
        <pt x="372" y="1681" on="0"/>
        <pt x="492" y="1575" on="0"/>
        <pt x="531" y="1575" on="1"/>
        <pt x="568" y="1575" on="0"/>
        <pt x="610" y="1625" on="0"/>
        <pt x="610" y="1672" on="1"/>
      </contour>
    </TTGlyph>
    <TTGlyph name="colon" xMin="146" yMin="0" xMax="232" yMax="1079">
      <component glyphName="period" x="-27" y="0" flags="0x4"/>
      <component glyphName="period" x="-27" y="949" flags="0x4"/>
    </TTGlyph>
    <TTGlyph name="comma" xMin="114" yMin="-258" xMax="235" yMax="159">
      <contour>
        <pt x="235" y="-8" on="1"/>
        <pt x="165" y="-258" on="1"/>
        <pt x="114" y="-258" on="1"/>
        <pt x="181" y="-12" on="1"/>
        <pt x="181" y="159" on="1"/>
        <pt x="235" y="159" on="1"/>
      </contour>
    </TTGlyph>
    <TTGlyph name="commaaccent" xMin="175" yMin="-175" xMax="274" yMax="116">
      <contour>
        <pt x="274" y="11" on="1"/>
        <pt x="225" y="-175" on="1"/>
        <pt x="175" y="-175" on="1"/>
        <pt x="220" y="7" on="1"/>
        <pt x="220" y="116" on="1"/>
        <pt x="274" y="116" on="1"/>
      </contour>
    </TTGlyph>
    <TTGlyph name="commaaccentrotate" xMin="143" yMin="1244" xMax="252" yMax="1560">
      <contour>
        <pt x="143" y="1372" on="1"/>
        <pt x="202" y="1560" on="1"/>
        <pt x="252" y="1560" on="1"/>
        <pt x="197" y="1376" on="1"/>
        <pt x="197" y="1244" on="1"/>
        <pt x="143" y="1244" on="1"/>
      </contour>
    </TTGlyph>
    <TTGlyph name="copyright" xMin="123" yMin="-21" xMax="1543" yMax="1476">
      <contour>
        <pt x="1116" y="596" on="1"/>
        <pt x="1119" y="590" on="1"/>
        <pt x="1122" y="440" on="0"/>
        <pt x="965" y="282" on="0"/>
        <pt x="826" y="282" on="1"/>
        <pt x="682" y="282" on="0"/>
        <pt x="506" y="496" on="0"/>
        <pt x="506" y="669" on="1"/>
        <pt x="506" y="788" on="1"/>
        <pt x="506" y="960" on="0"/>
        <pt x="683" y="1175" on="0"/>
        <pt x="826" y="1175" on="1"/>
        <pt x="965" y="1175" on="0"/>
        <pt x="1123" y="1016" on="0"/>
        <pt x="1120" y="868" on="1"/>
        <pt x="1117" y="862" on="1"/>
        <pt x="1073" y="862" on="1"/>
        <pt x="1073" y="991" on="0"/>
        <pt x="945" y="1122" on="0"/>
        <pt x="826" y="1122" on="1"/>
        <pt x="703" y="1122" on="0"/>
        <pt x="561" y="932" on="0"/>
        <pt x="561" y="789" on="1"/>
        <pt x="561" y="669" on="1"/>
        <pt x="561" y="524" on="0"/>
        <pt x="702" y="337" on="0"/>
        <pt x="826" y="337" on="1"/>
        <pt x="946" y="337" on="0"/>
        <pt x="1072" y="464" on="0"/>
        <pt x="1072" y="596" on="1"/>
      </contour>
      <contour>
        <pt x="179" y="729" on="1"/>
        <pt x="179" y="439" on="0"/>
        <pt x="562" y="34" on="0"/>
        <pt x="833" y="34" on="1"/>
        <pt x="1102" y="34" on="0"/>
        <pt x="1487" y="439" on="0"/>
        <pt x="1487" y="729" on="1"/>
        <pt x="1487" y="1018" on="0"/>
        <pt x="1103" y="1421" on="0"/>
        <pt x="833" y="1421" on="1"/>
        <pt x="562" y="1421" on="0"/>
        <pt x="179" y="1018" on="0"/>
      </contour>
      <contour>
        <pt x="123" y="729" on="1"/>
        <pt x="123" y="1044" on="0"/>
        <pt x="537" y="1476" on="0"/>
        <pt x="833" y="1476" on="1"/>
        <pt x="1128" y="1476" on="0"/>
        <pt x="1543" y="1044" on="0"/>
        <pt x="1543" y="729" on="1"/>
        <pt x="1543" y="413" on="0"/>
        <pt x="1128" y="-21" on="0"/>
        <pt x="833" y="-21" on="1"/>
        <pt x="538" y="-21" on="0"/>
        <pt x="123" y="413" on="0"/>
      </contour>
    </TTGlyph>
    <TTGlyph name="crossbar" xMin="108" yMin="721" xMax="695" yMax="775">
      <contour>
        <pt x="695" y="721" on="1"/>
        <pt x="108" y="721" on="1"/>
        <pt x="108" y="775" on="1"/>
        <pt x="695" y="775" on="1"/>
      </contour>
    </TTGlyph>
    <TTGlyph name="currency" xMin="114" yMin="-27" xMax="1380" yMax="1265">
      <contour>
        <pt x="1159" y="156" on="1"/>
        <pt x="1077" y="72" on="0"/>
        <pt x="864" y="-20" on="0"/>
        <pt x="745" y="-20" on="1"/>
        <pt x="625" y="-20" on="0"/>
        <pt x="412" y="71" on="0"/>
        <pt x="330" y="154" on="1"/>
        <pt x="154" y="-26" on="1"/>
        <pt x="114" y="13" on="1"/>
        <pt x="293" y="195" on="1"/>
        <pt x="224" y="279" on="0"/>
        <pt x="149" y="490" on="0"/>
        <pt x="149" y="608" on="1"/>
        <pt x="149" y="730" on="0"/>
        <pt x="229" y="947" on="0"/>
        <pt x="303" y="1032" on="1"/>
        <pt x="114" y="1225" on="1"/>
        <pt x="154" y="1264" on="1"/>
        <pt x="342" y="1072" on="1"/>
        <pt x="422" y="1149" on="0"/>
        <pt x="629" y="1234" on="0"/>
        <pt x="745" y="1234" on="1"/>
        <pt x="859" y="1234" on="0"/>
        <pt x="1066" y="1148" on="0"/>
        <pt x="1148" y="1070" on="1"/>
        <pt x="1339" y="1265" on="1"/>
        <pt x="1380" y="1225" on="1"/>
        <pt x="1187" y="1029" on="1"/>
        <pt x="1259" y="944" on="0"/>
        <pt x="1339" y="728" on="0"/>
        <pt x="1339" y="608" on="1"/>
        <pt x="1339" y="491" on="0"/>
        <pt x="1265" y="282" on="0"/>
        <pt x="1198" y="199" on="1"/>
        <pt x="1380" y="13" on="1"/>
        <pt x="1339" y="-27" on="1"/>
      </contour>
      <contour>
        <pt x="204" y="608" on="1"/>
        <pt x="204" y="370" on="0"/>
        <pt x="522" y="33" on="0"/>
        <pt x="745" y="33" on="1"/>
        <pt x="966" y="33" on="0"/>
        <pt x="1285" y="370" on="0"/>
        <pt x="1285" y="608" on="1"/>
        <pt x="1285" y="845" on="0"/>
        <pt x="966" y="1181" on="0"/>
        <pt x="745" y="1181" on="1"/>
        <pt x="522" y="1181" on="0"/>
        <pt x="204" y="845" on="0"/>
      </contour>
    </TTGlyph>
    <TTGlyph name="cyrillicbreve" xMin="148" yMin="1208" xMax="702" yMax="1456">
      <component glyphName="breve" x="0" y="0" flags="0x204"/>
    </TTGlyph>
    <TTGlyph name="cyrillichook" xMin="-157" yMin="-437" xMax="240" yMax="118">
      <contour>
        <pt x="240" y="118" on="1"/>
        <pt x="240" y="-89" on="1"/>
        <pt x="240" y="-256" on="0"/>
        <pt x="90" y="-437" on="0"/>
        <pt x="-45" y="-437" on="1"/>
        <pt x="-74" y="-437" on="0"/>
        <pt x="-126" y="-427" on="0"/>
        <pt x="-157" y="-417" on="1"/>
        <pt x="-144" y="-365" on="1"/>
        <pt x="-124" y="-372" on="0"/>
        <pt x="-70" y="-384" on="0"/>
        <pt x="-45" y="-384" on="1"/>
        <pt x="65" y="-384" on="0"/>
        <pt x="186" y="-230" on="0"/>
        <pt x="186" y="-89" on="1"/>
        <pt x="186" y="118" on="1"/>
      </contour>
    </TTGlyph>
    <TTGlyph name="cyrillichookleft" xMin="111" yMin="-357" xMax="375" yMax="20">
      <contour>
        <pt x="245" y="20" on="1"/>
        <pt x="301" y="-36" on="0"/>
        <pt x="375" y="-162" on="0"/>
        <pt x="375" y="-223" on="1"/>
        <pt x="375" y="-286" on="0"/>
        <pt x="297" y="-357" on="0"/>
        <pt x="237" y="-357" on="1"/>
        <pt x="195" y="-357" on="0"/>
        <pt x="134" y="-331" on="0"/>
        <pt x="111" y="-313" on="1"/>
        <pt x="127" y="-265" on="1"/>
        <pt x="152" y="-282" on="0"/>
        <pt x="202" y="-303" on="0"/>
        <pt x="237" y="-303" on="1"/>
        <pt x="288" y="-303" on="0"/>
        <pt x="321" y="-246" on="0"/>
        <pt x="321" y="-223" on="1"/>
        <pt x="321" y="-164" on="0"/>
        <pt x="257" y="-68" on="0"/>
        <pt x="193" y="0" on="1"/>
      </contour>
    </TTGlyph>
    <TTGlyph name="cyrillictic" xMin="182" yMin="-352" xMax="236" yMax="95">
      <contour>
        <pt x="236" y="-352" on="1"/>
        <pt x="182" y="-352" on="1"/>
        <pt x="182" y="95" on="1"/>
        <pt x="236" y="95" on="1"/>
      </contour>
    </TTGlyph>
    <TTGlyph name="d" xMin="122" yMin="-21" xMax="951" yMax="1560">
      <contour>
        <pt x="122" y="542" on="1"/>
        <pt x="122" y="799" on="0"/>
        <pt x="338" y="1102" on="0"/>
        <pt x="530" y="1102" on="1"/>
        <pt x="657" y="1102" on="0"/>
        <pt x="842" y="988" on="0"/>
        <pt x="897" y="889" on="1"/>
        <pt x="897" y="1560" on="1"/>
        <pt x="951" y="1560" on="1"/>
        <pt x="951" y="0" on="1"/>
        <pt x="899" y="0" on="1"/>
        <pt x="897" y="168" on="1"/>
        <pt x="843" y="81" on="0"/>
        <pt x="654" y="-21" on="0"/>
        <pt x="528" y="-21" on="1"/>
        <pt x="337" y="-21" on="0"/>
        <pt x="122" y="271" on="0"/>
        <pt x="122" y="521" on="1"/>
      </contour>
      <contour>
        <pt x="178" y="521" on="1"/>
        <pt x="178" y="297" on="0"/>
        <pt x="355" y="33" on="0"/>
        <pt x="527" y="33" on="1"/>
        <pt x="668" y="33" on="0"/>
        <pt x="855" y="161" on="0"/>
        <pt x="897" y="268" on="1"/>
        <pt x="897" y="775" on="1"/>
        <pt x="858" y="891" on="0"/>
        <pt x="684" y="1048" on="0"/>
        <pt x="529" y="1048" on="1"/>
        <pt x="357" y="1048" on="0"/>
        <pt x="178" y="767" on="0"/>
        <pt x="178" y="542" on="1"/>
      </contour>
    </TTGlyph>
    <TTGlyph name="dagger" xMin="65" yMin="0" xMax="1055" yMax="1456">
      <contour>
        <pt x="1055" y="1024" on="1"/>
        <pt x="594" y="1024" on="1"/>
        <pt x="594" y="0" on="1"/>
        <pt x="540" y="0" on="1"/>
        <pt x="540" y="1024" on="1"/>
        <pt x="65" y="1024" on="1"/>
        <pt x="65" y="1082" on="1"/>
        <pt x="540" y="1082" on="1"/>
        <pt x="540" y="1456" on="1"/>
        <pt x="594" y="1456" on="1"/>
        <pt x="594" y="1082" on="1"/>
        <pt x="1055" y="1082" on="1"/>
      </contour>
    </TTGlyph>
    <TTGlyph name="daggerdbl" xMin="82" yMin="-416" xMax="1071" yMax="1456">
      <contour>
        <pt x="1071" y="0" on="1"/>
        <pt x="590" y="0" on="1"/>
        <pt x="590" y="-416" on="1"/>
        <pt x="535" y="-416" on="1"/>
        <pt x="535" y="0" on="1"/>
        <pt x="82" y="0" on="1"/>
        <pt x="82" y="54" on="1"/>
        <pt x="535" y="54" on="1"/>
        <pt x="535" y="1027" on="1"/>
        <pt x="82" y="1027" on="1"/>
        <pt x="82" y="1082" on="1"/>
        <pt x="535" y="1082" on="1"/>
        <pt x="535" y="1456" on="1"/>
        <pt x="590" y="1456" on="1"/>
        <pt x="590" y="1082" on="1"/>
        <pt x="1071" y="1082" on="1"/>
        <pt x="1071" y="1027" on="1"/>
        <pt x="590" y="1027" on="1"/>
        <pt x="590" y="54" on="1"/>
        <pt x="1071" y="54" on="1"/>
      </contour>
    </TTGlyph>
    <TTGlyph name="dasiaoxia" xMin="145" yMin="1135" xMax="588" yMax="1477">
      <contour>
        <pt x="357" y="1164" on="1"/>
        <pt x="459" y="1477" on="1"/>
        <pt x="588" y="1477" on="1"/>
        <pt x="588" y="1456" on="1"/>
        <pt x="399" y="1137" on="1"/>
        <pt x="357" y="1137" on="1"/>
      </contour>
      <contour>
        <pt x="145" y="1135" on="1"/>
        <pt x="243" y="1135" on="1"/>
        <pt x="243" y="1272" on="1"/>
        <pt x="325" y="1476" on="1"/>
        <pt x="247" y="1476" on="1"/>
        <pt x="145" y="1278" on="1"/>
      </contour>
    </TTGlyph>
    <TTGlyph name="dcaron" xMin="122" yMin="-21" xMax="1219" yMax="1560">
      <component glyphName="d" x="0" y="0" flags="0x4"/>
      <component glyphName="commaaccent" x="945" y="1442" flags="0x4"/>
    </TTGlyph>
    <TTGlyph name="dcroat" xMin="122" yMin="-21" xMax="1111" yMax="1560">
      <contour>
        <pt x="1111" y="1281" on="1"/>
        <pt x="951" y="1281" on="1"/>
        <pt x="951" y="0" on="1"/>
        <pt x="899" y="0" on="1"/>
        <pt x="897" y="168" on="1"/>
        <pt x="843" y="81" on="0"/>
        <pt x="654" y="-21" on="0"/>
        <pt x="528" y="-21" on="1"/>
        <pt x="337" y="-21" on="0"/>
        <pt x="122" y="271" on="0"/>
        <pt x="122" y="521" on="1"/>
        <pt x="122" y="542" on="1"/>
        <pt x="122" y="799" on="0"/>
        <pt x="338" y="1102" on="0"/>
        <pt x="530" y="1102" on="1"/>
        <pt x="657" y="1102" on="0"/>
        <pt x="842" y="988" on="0"/>
        <pt x="897" y="889" on="1"/>
        <pt x="897" y="1281" on="1"/>
        <pt x="524" y="1281" on="1"/>
        <pt x="524" y="1335" on="1"/>
        <pt x="897" y="1335" on="1"/>
        <pt x="897" y="1560" on="1"/>
        <pt x="951" y="1560" on="1"/>
        <pt x="951" y="1335" on="1"/>
        <pt x="1111" y="1335" on="1"/>
      </contour>
      <contour>
        <pt x="178" y="521" on="1"/>
        <pt x="178" y="297" on="0"/>
        <pt x="355" y="33" on="0"/>
        <pt x="527" y="33" on="1"/>
        <pt x="668" y="33" on="0"/>
        <pt x="855" y="161" on="0"/>
        <pt x="897" y="268" on="1"/>
        <pt x="897" y="775" on="1"/>
        <pt x="858" y="891" on="0"/>
        <pt x="684" y="1048" on="0"/>
        <pt x="529" y="1048" on="1"/>
        <pt x="357" y="1048" on="0"/>
        <pt x="178" y="767" on="0"/>
        <pt x="178" y="542" on="1"/>
      </contour>
    </TTGlyph>
    <TTGlyph name="degree" xMin="156" yMin="1000" xMax="624" yMax="1477">
      <contour>
        <pt x="156" y="1237" on="1"/>
        <pt x="156" y="1335" on="0"/>
        <pt x="294" y="1477" on="0"/>
        <pt x="392" y="1477" on="1"/>
        <pt x="487" y="1477" on="0"/>
        <pt x="624" y="1335" on="0"/>
        <pt x="624" y="1237" on="1"/>
        <pt x="624" y="1137" on="0"/>
        <pt x="487" y="1000" on="0"/>
        <pt x="392" y="1000" on="1"/>
        <pt x="294" y="1000" on="0"/>
        <pt x="156" y="1137" on="0"/>
      </contour>
      <contour>
        <pt x="211" y="1237" on="1"/>
        <pt x="211" y="1158" on="0"/>
        <pt x="314" y="1056" on="0"/>
        <pt x="392" y="1056" on="1"/>
        <pt x="468" y="1056" on="0"/>
        <pt x="568" y="1158" on="0"/>
        <pt x="568" y="1237" on="1"/>
        <pt x="568" y="1317" on="0"/>
        <pt x="468" y="1422" on="0"/>
        <pt x="392" y="1422" on="1"/>
        <pt x="314" y="1422" on="0"/>
        <pt x="211" y="1316" on="0"/>
      </contour>
    </TTGlyph>
    <TTGlyph name="delta" xMin="87" yMin="-21" xMax="1034" yMax="1456">
      <contour>
        <pt x="948" y="1456" on="1"/>
        <pt x="948" y="1403" on="1"/>
        <pt x="282" y="1403" on="1"/>
        <pt x="280" y="1397" on="1"/>
        <pt x="830" y="1023" on="1"/>
        <pt x="921" y="961" on="0"/>
        <pt x="1034" y="704" on="0"/>
        <pt x="1034" y="562" on="1"/>
        <pt x="1034" y="520" on="1"/>
        <pt x="1034" y="281" on="0"/>
        <pt x="771" y="-21" on="0"/>
        <pt x="562" y="-21" on="1"/>
        <pt x="351" y="-21" on="0"/>
        <pt x="87" y="281" on="0"/>
        <pt x="87" y="520" on="1"/>
        <pt x="87" y="562" on="1"/>
        <pt x="87" y="800" on="0"/>
        <pt x="350" y="1102" on="0"/>
        <pt x="560" y="1102" on="1"/>
        <pt x="576" y="1102" on="0"/>
        <pt x="603" y="1100" on="0"/>
        <pt x="610" y="1099" on="1"/>
        <pt x="612" y="1104" on="1"/>
        <pt x="185" y="1402" on="1"/>
        <pt x="185" y="1456" on="1"/>
      </contour>
      <contour>
        <pt x="560" y="1048" on="1"/>
        <pt x="369" y="1048" on="0"/>
        <pt x="141" y="761" on="0"/>
        <pt x="141" y="562" on="1"/>
        <pt x="141" y="520" on="1"/>
        <pt x="141" y="316" on="0"/>
        <pt x="369" y="33" on="0"/>
        <pt x="562" y="33" on="1"/>
        <pt x="752" y="33" on="0"/>
        <pt x="980" y="317" on="0"/>
        <pt x="980" y="520" on="1"/>
        <pt x="980" y="562" on="1"/>
        <pt x="980" y="761" on="0"/>
        <pt x="750" y="1048" on="0"/>
      </contour>
    </TTGlyph>
    <TTGlyph name="dieresis" xMin="155" yMin="1338" xMax="761" yMax="1456">
      <contour>
        <pt x="761" y="1338" on="1"/>
        <pt x="625" y="1338" on="1"/>
        <pt x="625" y="1456" on="1"/>
        <pt x="761" y="1456" on="1"/>
      </contour>
      <contour>
        <pt x="292" y="1338" on="1"/>
        <pt x="155" y="1338" on="1"/>
        <pt x="155" y="1456" on="1"/>
        <pt x="292" y="1456" on="1"/>
      </contour>
    </TTGlyph>
    <TTGlyph name="dieresistonos" xMin="165" yMin="1348" xMax="771" yMax="1657">
      <contour>
        <pt x="771" y="1348" on="1"/>
        <pt x="645" y="1348" on="1"/>
        <pt x="645" y="1456" on="1"/>
        <pt x="771" y="1456" on="1"/>
      </contour>
      <contour>
        <pt x="292" y="1348" on="1"/>
        <pt x="165" y="1348" on="1"/>
        <pt x="165" y="1456" on="1"/>
        <pt x="292" y="1456" on="1"/>
      </contour>
      <contour>
        <pt x="466" y="1657" on="1"/>
        <pt x="603" y="1657" on="1"/>
        <pt x="485" y="1477" on="1"/>
        <pt x="443" y="1477" on="1"/>
      </contour>
    </TTGlyph>
    <TTGlyph name="divide" xMin="73" yMin="241" xMax="1071" yMax="1142">
      <contour>
        <pt x="1071" y="686" on="1"/>
        <pt x="73" y="686" on="1"/>
        <pt x="73" y="738" on="1"/>
        <pt x="1071" y="738" on="1"/>
      </contour>
      <contour>
        <pt x="631" y="1020" on="1"/>
        <pt x="535" y="1020" on="1"/>
        <pt x="535" y="1142" on="1"/>
        <pt x="631" y="1142" on="1"/>
      </contour>
      <contour>
        <pt x="631" y="241" on="1"/>
        <pt x="535" y="241" on="1"/>
        <pt x="535" y="363" on="1"/>
        <pt x="631" y="363" on="1"/>
      </contour>
    </TTGlyph>
    <TTGlyph name="dollar" xMin="122" yMin="-208" xMax="1001" yMax="1663">
      <contour>
        <pt x="947" y="344" on="1"/>
        <pt x="947" y="474" on="0"/>
        <pt x="789" y="625" on="0"/>
        <pt x="576" y="702" on="1"/>
        <pt x="361" y="773" on="0"/>
        <pt x="168" y="943" on="0"/>
        <pt x="168" y="1110" on="1"/>
        <pt x="168" y="1270" on="0"/>
        <pt x="377" y="1469" on="0"/>
        <pt x="554" y="1476" on="1"/>
        <pt x="554" y="1663" on="1"/>
        <pt x="609" y="1663" on="1"/>
        <pt x="609" y="1476" on="1"/>
        <pt x="790" y="1466" on="0"/>
        <pt x="991" y="1245" on="0"/>
        <pt x="988" y="1052" on="1"/>
        <pt x="986" y="1047" on="1"/>
        <pt x="939" y="1047" on="1"/>
        <pt x="939" y="1213" on="0"/>
        <pt x="749" y="1424" on="0"/>
        <pt x="579" y="1424" on="1"/>
        <pt x="405" y="1424" on="0"/>
        <pt x="222" y="1241" on="0"/>
        <pt x="222" y="1112" on="1"/>
        <pt x="222" y="981" on="0"/>
        <pt x="369" y="827" on="0"/>
        <pt x="593" y="754" on="1"/>
        <pt x="803" y="681" on="0"/>
        <pt x="1001" y="511" on="0"/>
        <pt x="1001" y="346" on="1"/>
        <pt x="1001" y="185" on="0"/>
        <pt x="793" y="-10" on="0"/>
        <pt x="620" y="-20" on="1"/>
        <pt x="620" y="-208" on="1"/>
        <pt x="565" y="-208" on="1"/>
        <pt x="565" y="-21" on="1"/>
        <pt x="376" y="-15" on="0"/>
        <pt x="122" y="189" on="0"/>
        <pt x="127" y="403" on="1"/>
        <pt x="129" y="409" on="1"/>
        <pt x="175" y="409" on="1"/>
        <pt x="175" y="210" on="0"/>
        <pt x="418" y="32" on="0"/>
        <pt x="586" y="32" on="1"/>
        <pt x="749" y="32" on="0"/>
        <pt x="947" y="216" on="0"/>
      </contour>
    </TTGlyph>
    <TTGlyph name="dotaccent" xMin="155" yMin="1318" xMax="250" yMax="1456">
      <contour>
        <pt x="250" y="1318" on="1"/>
        <pt x="155" y="1318" on="1"/>
        <pt x="155" y="1456" on="1"/>
        <pt x="250" y="1456" on="1"/>
      </contour>
    </TTGlyph>
    <TTGlyph name="dotbelow" xMin="-626" yMin="-295" xMax="-531" yMax="-157">
      <contour>
        <pt x="-531" y="-295" on="1"/>
        <pt x="-626" y="-295" on="1"/>
        <pt x="-626" y="-157" on="1"/>
        <pt x="-531" y="-157" on="1"/>
      </contour>
    </TTGlyph>
    <TTGlyph name="dotlessi" xMin="181" yMin="0" xMax="235" yMax="1082">
      <contour>
        <pt x="235" y="0" on="1"/>
        <pt x="181" y="0" on="1"/>
        <pt x="181" y="1082" on="1"/>
        <pt x="235" y="1082" on="1"/>
      </contour>
    </TTGlyph>
    <TTGlyph name="e" xMin="87" yMin="-21" xMax="952" yMax="1102">
      <contour>
        <pt x="541" y="-21" on="1"/>
        <pt x="356" y="-21" on="0"/>
        <pt x="87" y="278" on="0"/>
        <pt x="87" y="500" on="1"/>
        <pt x="87" y="564" on="1"/>
        <pt x="87" y="797" on="0"/>
        <pt x="347" y="1102" on="0"/>
        <pt x="538" y="1102" on="1"/>
        <pt x="721" y="1102" on="0"/>
        <pt x="952" y="862" on="0"/>
        <pt x="952" y="660" on="1"/>
        <pt x="952" y="577" on="1"/>
        <pt x="141" y="577" on="1"/>
        <pt x="141" y="564" on="1"/>
        <pt x="141" y="500" on="1"/>
        <pt x="141" y="304" on="0"/>
        <pt x="371" y="33" on="0"/>
        <pt x="541" y="33" on="1"/>
        <pt x="662" y="33" on="0"/>
        <pt x="825" y="99" on="0"/>
        <pt x="883" y="165" on="1"/>
        <pt x="912" y="123" on="1"/>
        <pt x="848" y="52" on="0"/>
        <pt x="665" y="-21" on="0"/>
      </contour>
      <contour>
        <pt x="538" y="1048" on="1"/>
        <pt x="377" y="1048" on="0"/>
        <pt x="163" y="813" on="0"/>
        <pt x="149" y="637" on="1"/>
        <pt x="152" y="631" on="1"/>
        <pt x="898" y="631" on="1"/>
        <pt x="898" y="664" on="1"/>
        <pt x="898" y="829" on="0"/>
        <pt x="698" y="1048" on="0"/>
      </contour>
    </TTGlyph>
    <TTGlyph name="eacute" xMin="87" yMin="-21" xMax="952" yMax="1501">
      <component glyphName="e" x="0" y="0" flags="0x204"/>
      <component glyphName="acute" x="401" y="23" flags="0x4"/>
    </TTGlyph>
    <TTGlyph name="ebreve" xMin="87" yMin="-21" xMax="952" yMax="1518">
      <component glyphName="e" x="0" y="0" flags="0x204"/>
      <component glyphName="breve" x="140" y="62" flags="0x4"/>
    </TTGlyph>
    <TTGlyph name="ecaron" xMin="87" yMin="-21" xMax="952" yMax="1506">
      <component glyphName="e" x="0" y="0" flags="0x204"/>
      <component glyphName="caron" x="180" y="31" flags="0x4"/>
    </TTGlyph>
    <TTGlyph name="ecircumflex" xMin="87" yMin="-21" xMax="952" yMax="1503">
      <component glyphName="e" x="0" y="0" flags="0x204"/>
      <component glyphName="circumflex" x="165" y="28" flags="0x4"/>
    </TTGlyph>
    <TTGlyph name="edieresis" xMin="87" yMin="-21" xMax="952" yMax="1470">
      <component glyphName="e" x="0" y="0" flags="0x204"/>
      <component glyphName="dieresis" x="117" y="14" flags="0x4"/>
    </TTGlyph>
    <TTGlyph name="edotaccent" xMin="87" yMin="-21" xMax="952" yMax="1484">
      <component glyphName="e" x="0" y="0" flags="0x204"/>
      <component glyphName="dotaccent" x="363" y="28" flags="0x4"/>
    </TTGlyph>
    <TTGlyph name="egrave" xMin="87" yMin="-21" xMax="952" yMax="1507">
      <component glyphName="e" x="0" y="0" flags="0x204"/>
      <component glyphName="grave" x="207" y="31" flags="0x4"/>
    </TTGlyph>
    <TTGlyph name="eight" xMin="98" yMin="-21" xMax="1026" yMax="1477">
      <contour>
        <pt x="984" y="1086" on="1"/>
        <pt x="984" y="964" on="0"/>
        <pt x="835" y="782" on="0"/>
        <pt x="714" y="745" on="1"/>
        <pt x="853" y="707" on="0"/>
        <pt x="1026" y="511" on="0"/>
        <pt x="1026" y="379" on="1"/>
        <pt x="1026" y="187" on="0"/>
        <pt x="765" y="-21" on="0"/>
        <pt x="563" y="-21" on="1"/>
        <pt x="357" y="-21" on="0"/>
        <pt x="98" y="187" on="0"/>
        <pt x="98" y="379" on="1"/>
        <pt x="98" y="512" on="0"/>
        <pt x="267" y="708" on="0"/>
        <pt x="407" y="745" on="1"/>
        <pt x="285" y="782" on="0"/>
        <pt x="139" y="963" on="0"/>
        <pt x="139" y="1086" on="1"/>
        <pt x="139" y="1270" on="0"/>
        <pt x="376" y="1477" on="0"/>
        <pt x="561" y="1477" on="1"/>
        <pt x="744" y="1477" on="0"/>
        <pt x="984" y="1269" on="0"/>
      </contour>
      <contour>
        <pt x="971" y="374" on="1"/>
        <pt x="971" y="528" on="0"/>
        <pt x="735" y="718" on="0"/>
        <pt x="561" y="718" on="1"/>
        <pt x="384" y="718" on="0"/>
        <pt x="152" y="528" on="0"/>
        <pt x="152" y="374" on="1"/>
        <pt x="152" y="213" on="0"/>
        <pt x="382" y="33" on="0"/>
        <pt x="563" y="33" on="1"/>
        <pt x="739" y="33" on="0"/>
        <pt x="971" y="214" on="0"/>
      </contour>
      <contour>
        <pt x="930" y="1091" on="1"/>
        <pt x="930" y="1234" on="0"/>
        <pt x="716" y="1423" on="0"/>
        <pt x="561" y="1423" on="1"/>
        <pt x="400" y="1423" on="0"/>
        <pt x="193" y="1242" on="0"/>
        <pt x="193" y="1091" on="1"/>
        <pt x="193" y="945" on="0"/>
        <pt x="401" y="772" on="0"/>
        <pt x="563" y="772" on="1"/>
        <pt x="720" y="772" on="0"/>
        <pt x="930" y="946" on="0"/>
      </contour>
    </TTGlyph>
    <TTGlyph name="eight.lnum" xMin="135" yMin="-21" xMax="1063" yMax="1477">
      <contour>
        <pt x="1021" y="1086" on="1"/>
        <pt x="1021" y="964" on="0"/>
        <pt x="872" y="782" on="0"/>
        <pt x="751" y="745" on="1"/>
        <pt x="890" y="707" on="0"/>
        <pt x="1063" y="511" on="0"/>
        <pt x="1063" y="379" on="1"/>
        <pt x="1063" y="187" on="0"/>
        <pt x="802" y="-21" on="0"/>
        <pt x="600" y="-21" on="1"/>
        <pt x="394" y="-21" on="0"/>
        <pt x="135" y="187" on="0"/>
        <pt x="135" y="379" on="1"/>
        <pt x="135" y="512" on="0"/>
        <pt x="304" y="708" on="0"/>
        <pt x="444" y="745" on="1"/>
        <pt x="322" y="782" on="0"/>
        <pt x="176" y="963" on="0"/>
        <pt x="176" y="1086" on="1"/>
        <pt x="176" y="1270" on="0"/>
        <pt x="413" y="1477" on="0"/>
        <pt x="598" y="1477" on="1"/>
        <pt x="781" y="1477" on="0"/>
        <pt x="1021" y="1269" on="0"/>
      </contour>
      <contour>
        <pt x="1008" y="374" on="1"/>
        <pt x="1008" y="528" on="0"/>
        <pt x="772" y="718" on="0"/>
        <pt x="598" y="718" on="1"/>
        <pt x="421" y="718" on="0"/>
        <pt x="189" y="528" on="0"/>
        <pt x="189" y="374" on="1"/>
        <pt x="189" y="213" on="0"/>
        <pt x="419" y="33" on="0"/>
        <pt x="600" y="33" on="1"/>
        <pt x="776" y="33" on="0"/>
        <pt x="1008" y="214" on="0"/>
      </contour>
      <contour>
        <pt x="967" y="1091" on="1"/>
        <pt x="967" y="1234" on="0"/>
        <pt x="753" y="1423" on="0"/>
        <pt x="598" y="1423" on="1"/>
        <pt x="437" y="1423" on="0"/>
        <pt x="230" y="1242" on="0"/>
        <pt x="230" y="1091" on="1"/>
        <pt x="230" y="945" on="0"/>
        <pt x="438" y="772" on="0"/>
        <pt x="600" y="772" on="1"/>
        <pt x="757" y="772" on="0"/>
        <pt x="967" y="946" on="0"/>
      </contour>
    </TTGlyph>
    <TTGlyph name="eight.smcp" xMin="132" yMin="-17" xMax="923" yMax="1181">
      <contour>
        <pt x="888" y="876" on="1"/>
        <pt x="888" y="779" on="0"/>
        <pt x="767" y="634" on="0"/>
        <pt x="669" y="603" on="1"/>
        <pt x="782" y="571" on="0"/>
        <pt x="923" y="416" on="0"/>
        <pt x="923" y="313" on="1"/>
        <pt x="923" y="158" on="0"/>
        <pt x="702" y="-17" on="0"/>
        <pt x="537" y="-17" on="1"/>
        <pt x="360" y="-17" on="0"/>
        <pt x="132" y="158" on="0"/>
        <pt x="132" y="313" on="1"/>
        <pt x="132" y="417" on="0"/>
        <pt x="275" y="572" on="0"/>
        <pt x="393" y="604" on="1"/>
        <pt x="290" y="635" on="0"/>
        <pt x="166" y="779" on="0"/>
        <pt x="166" y="876" on="1"/>
        <pt x="166" y="1021" on="0"/>
        <pt x="373" y="1181" on="0"/>
        <pt x="534" y="1181" on="1"/>
        <pt x="685" y="1181" on="0"/>
        <pt x="888" y="1021" on="0"/>
      </contour>
      <contour>
        <pt x="869" y="309" on="1"/>
        <pt x="869" y="428" on="0"/>
        <pt x="673" y="577" on="0"/>
        <pt x="534" y="577" on="1"/>
        <pt x="387" y="577" on="0"/>
        <pt x="186" y="428" on="0"/>
        <pt x="186" y="309" on="1"/>
        <pt x="186" y="184" on="0"/>
        <pt x="386" y="38" on="0"/>
        <pt x="537" y="38" on="1"/>
        <pt x="677" y="38" on="0"/>
        <pt x="869" y="184" on="0"/>
      </contour>
      <contour>
        <pt x="834" y="879" on="1"/>
        <pt x="834" y="988" on="0"/>
        <pt x="659" y="1127" on="0"/>
        <pt x="534" y="1127" on="1"/>
        <pt x="398" y="1127" on="0"/>
        <pt x="220" y="994" on="0"/>
        <pt x="220" y="879" on="1"/>
        <pt x="220" y="766" on="0"/>
        <pt x="401" y="631" on="0"/>
        <pt x="537" y="631" on="1"/>
        <pt x="661" y="631" on="0"/>
        <pt x="834" y="767" on="0"/>
      </contour>
    </TTGlyph>
    <TTGlyph name="eight.sup" xMin="140" yMin="-11" xMax="725" yMax="812">
      <contour>
        <pt x="701" y="598" on="1"/>
        <pt x="701" y="535" on="0"/>
        <pt x="622" y="439" on="0"/>
        <pt x="557" y="415" on="1"/>
        <pt x="632" y="390" on="0"/>
        <pt x="725" y="286" on="0"/>
        <pt x="725" y="218" on="1"/>
        <pt x="725" y="111" on="0"/>
        <pt x="561" y="-11" on="0"/>
        <pt x="440" y="-11" on="1"/>
        <pt x="309" y="-11" on="0"/>
        <pt x="140" y="110" on="0"/>
        <pt x="140" y="218" on="1"/>
        <pt x="140" y="286" on="0"/>
        <pt x="234" y="390" on="0"/>
        <pt x="314" y="415" on="1"/>
        <pt x="245" y="439" on="0"/>
        <pt x="165" y="535" on="0"/>
        <pt x="165" y="598" on="1"/>
        <pt x="165" y="700" on="0"/>
        <pt x="319" y="812" on="0"/>
        <pt x="439" y="812" on="1"/>
        <pt x="550" y="812" on="0"/>
        <pt x="701" y="699" on="0"/>
      </contour>
      <contour>
        <pt x="670" y="215" on="1"/>
        <pt x="670" y="291" on="0"/>
        <pt x="535" y="388" on="0"/>
        <pt x="439" y="388" on="1"/>
        <pt x="334" y="388" on="0"/>
        <pt x="194" y="292" on="0"/>
        <pt x="194" y="215" on="1"/>
        <pt x="194" y="136" on="0"/>
        <pt x="334" y="44" on="0"/>
        <pt x="440" y="44" on="1"/>
        <pt x="537" y="44" on="0"/>
        <pt x="670" y="137" on="0"/>
      </contour>
      <contour>
        <pt x="645" y="601" on="1"/>
        <pt x="645" y="670" on="0"/>
        <pt x="525" y="757" on="0"/>
        <pt x="439" y="757" on="1"/>
        <pt x="343" y="757" on="0"/>
        <pt x="219" y="674" on="0"/>
        <pt x="219" y="601" on="1"/>
        <pt x="219" y="529" on="0"/>
        <pt x="345" y="442" on="0"/>
        <pt x="440" y="442" on="1"/>
        <pt x="526" y="442" on="0"/>
        <pt x="645" y="529" on="0"/>
      </contour>
    </TTGlyph>
    <TTGlyph name="ellipsis" xMin="211" yMin="0" xMax="1050" yMax="130">
      <component glyphName="period" x="38" y="0" flags="0x4"/>
      <component glyphName="period" x="422" y="0" flags="0x4"/>
      <component glyphName="period" x="791" y="0" flags="0x4"/>
    </TTGlyph>
    <TTGlyph name="emacron" xMin="87" yMin="-21" xMax="952" yMax="1465">
      <component glyphName="e" x="0" y="0" flags="0x204"/>
      <component glyphName="macron" x="154" y="9" flags="0x4"/>
    </TTGlyph>
    <TTGlyph name="emdash" xMin="180" yMin="721" xMax="1516" yMax="775">
      <component glyphName="minus" x="-81" y="0" scalex="1.59997558594" scaley="1.0" flags="0x4"/>
    </TTGlyph>
    <TTGlyph name="endash" xMin="173" yMin="721" xMax="1258" yMax="775">
      <component glyphName="minus" x="-39" y="0" scalex="1.29998779297" scaley="1.0" flags="0x4"/>
    </TTGlyph>
    <TTGlyph name="eng" xMin="170" yMin="-437" xMax="954" yMax="1102">
      <contour>
        <pt x="218" y="1082" on="1"/>
        <pt x="224" y="858" on="1"/>
        <pt x="273" y="974" on="0"/>
        <pt x="461" y="1102" on="0"/>
        <pt x="600" y="1102" on="1"/>
        <pt x="777" y="1102" on="0"/>
        <pt x="954" y="879" on="0"/>
        <pt x="954" y="637" on="1"/>
        <pt x="954" y="-89" on="1"/>
        <pt x="954" y="-256" on="0"/>
        <pt x="803" y="-437" on="0"/>
        <pt x="669" y="-437" on="1"/>
        <pt x="633" y="-437" on="0"/>
        <pt x="571" y="-427" on="0"/>
        <pt x="536" y="-417" on="1"/>
        <pt x="549" y="-365" on="1"/>
        <pt x="570" y="-372" on="0"/>
        <pt x="638" y="-384" on="0"/>
        <pt x="669" y="-384" on="1"/>
        <pt x="779" y="-384" on="0"/>
        <pt x="900" y="-229" on="0"/>
        <pt x="900" y="-89" on="1"/>
        <pt x="900" y="639" on="1"/>
        <pt x="900" y="864" on="0"/>
        <pt x="740" y="1048" on="0"/>
        <pt x="601" y="1048" on="1"/>
        <pt x="427" y="1048" on="0"/>
        <pt x="247" y="842" on="0"/>
        <pt x="224" y="680" on="1"/>
        <pt x="224" y="0" on="1"/>
        <pt x="170" y="0" on="1"/>
        <pt x="170" y="1082" on="1"/>
      </contour>
    </TTGlyph>
    <TTGlyph name="eogonek" xMin="87" yMin="-299" xMax="952" yMax="1102">
      <component glyphName="e" x="0" y="0" flags="0x204"/>
      <component glyphName="ogonek" x="509" y="58" flags="0x4"/>
    </TTGlyph>
    <TTGlyph name="epsilon" xMin="116" yMin="-17" xMax="994" yMax="1098">
      <contour>
        <pt x="116" y="290" on="1"/>
        <pt x="116" y="393" on="0"/>
        <pt x="241" y="527" on="0"/>
        <pt x="365" y="554" on="1"/>
        <pt x="254" y="585" on="0"/>
        <pt x="135" y="717" on="0"/>
        <pt x="135" y="802" on="1"/>
        <pt x="135" y="944" on="0"/>
        <pt x="357" y="1098" on="0"/>
        <pt x="550" y="1098" on="1"/>
        <pt x="730" y="1098" on="0"/>
        <pt x="976" y="935" on="0"/>
        <pt x="971" y="805" on="1"/>
        <pt x="969" y="799" on="1"/>
        <pt x="925" y="799" on="1"/>
        <pt x="925" y="909" on="0"/>
        <pt x="710" y="1044" on="0"/>
        <pt x="550" y="1044" on="1"/>
        <pt x="369" y="1044" on="0"/>
        <pt x="191" y="913" on="0"/>
        <pt x="191" y="805" on="1"/>
        <pt x="191" y="697" on="0"/>
        <pt x="366" y="580" on="0"/>
        <pt x="553" y="580" on="1"/>
        <pt x="718" y="580" on="1"/>
        <pt x="718" y="525" on="1"/>
        <pt x="553" y="525" on="1"/>
        <pt x="363" y="525" on="0"/>
        <pt x="170" y="410" on="0"/>
        <pt x="170" y="287" on="1"/>
        <pt x="170" y="169" on="0"/>
        <pt x="368" y="38" on="0"/>
        <pt x="550" y="38" on="1"/>
        <pt x="724" y="38" on="0"/>
        <pt x="942" y="185" on="0"/>
        <pt x="942" y="301" on="1"/>
        <pt x="987" y="301" on="1"/>
        <pt x="989" y="295" on="1"/>
        <pt x="994" y="145" on="0"/>
        <pt x="730" y="-17" on="0"/>
        <pt x="550" y="-17" on="1"/>
        <pt x="356" y="-17" on="0"/>
        <pt x="116" y="147" on="0"/>
      </contour>
    </TTGlyph>
    <TTGlyph name="epsilontonos" xMin="116" yMin="-17" xMax="994" yMax="1485">
      <component glyphName="epsilon" x="0" y="0" flags="0x204"/>
      <component glyphName="tonos" x="296" y="-83" flags="0x4"/>
    </TTGlyph>
    <TTGlyph name="equal" xMin="147" yMin="436" xMax="981" yMax="897">
      <contour>
        <pt x="981" y="843" on="1"/>
        <pt x="147" y="843" on="1"/>
        <pt x="147" y="897" on="1"/>
        <pt x="981" y="897" on="1"/>
      </contour>
      <contour>
        <pt x="981" y="436" on="1"/>
        <pt x="147" y="436" on="1"/>
        <pt x="147" y="490" on="1"/>
        <pt x="981" y="490" on="1"/>
      </contour>
    </TTGlyph>
    <TTGlyph name="estimated" xMin="147" yMin="-20" xMax="1166" yMax="1102">
      <contour>
        <pt x="1041" y="94" on="1"/>
        <pt x="954" y="39" on="0"/>
        <pt x="766" y="-20" on="0"/>
        <pt x="671" y="-20" on="1"/>
        <pt x="453" y="-20" on="0"/>
        <pt x="147" y="309" on="0"/>
        <pt x="147" y="541" on="1"/>
        <pt x="147" y="767" on="0"/>
        <pt x="470" y="1102" on="0"/>
        <pt x="671" y="1102" on="1"/>
        <pt x="878" y="1102" on="0"/>
        <pt x="1166" y="792" on="0"/>
        <pt x="1166" y="561" on="1"/>
        <pt x="1166" y="514" on="1"/>
        <pt x="398" y="514" on="1"/>
        <pt x="398" y="186" on="1"/>
        <pt x="453" y="133" on="0"/>
        <pt x="594" y="76" on="0"/>
        <pt x="671" y="76" on="1"/>
        <pt x="766" y="76" on="0"/>
        <pt x="952" y="136" on="0"/>
        <pt x="1039" y="198" on="1"/>
      </contour>
      <contour>
        <pt x="671" y="1008" on="1"/>
        <pt x="597" y="1008" on="0"/>
        <pt x="456" y="943" on="0"/>
        <pt x="398" y="886" on="1"/>
        <pt x="398" y="609" on="1"/>
        <pt x="938" y="609" on="1"/>
        <pt x="938" y="895" on="1"/>
        <pt x="884" y="947" on="0"/>
        <pt x="745" y="1008" on="0"/>
      </contour>
    </TTGlyph>
    <TTGlyph name="eta" xMin="170" yMin="-416" xMax="954" yMax="1102">
      <contour>
        <pt x="218" y="1082" on="1"/>
        <pt x="225" y="863" on="1"/>
        <pt x="275" y="977" on="0"/>
        <pt x="462" y="1102" on="0"/>
        <pt x="600" y="1102" on="1"/>
        <pt x="777" y="1102" on="0"/>
        <pt x="954" y="879" on="0"/>
        <pt x="954" y="637" on="1"/>
        <pt x="954" y="-416" on="1"/>
        <pt x="900" y="-416" on="1"/>
        <pt x="900" y="639" on="1"/>
        <pt x="900" y="864" on="0"/>
        <pt x="740" y="1048" on="0"/>
        <pt x="601" y="1048" on="1"/>
        <pt x="431" y="1048" on="0"/>
        <pt x="252" y="850" on="0"/>
        <pt x="226" y="694" on="1"/>
        <pt x="226" y="0" on="1"/>
        <pt x="172" y="0" on="1"/>
        <pt x="172" y="554" on="1"/>
        <pt x="170" y="554" on="1"/>
        <pt x="170" y="568" on="0"/>
        <pt x="171" y="596" on="0"/>
        <pt x="172" y="617" on="1"/>
        <pt x="172" y="1082" on="1"/>
      </contour>
    </TTGlyph>
    <TTGlyph name="etatonos" xMin="170" yMin="-416" xMax="954" yMax="1486">
      <component glyphName="eta" x="0" y="0" flags="0x204"/>
      <component glyphName="tonos" x="323" y="-82" flags="0x4"/>
    </TTGlyph>
    <TTGlyph name="eth" xMin="123" yMin="-21" xMax="1071" yMax="1517">
      <contour>
        <pt x="827" y="1323" on="1"/>
        <pt x="935" y="1221" on="0"/>
        <pt x="1041" y="944" on="0"/>
        <pt x="1041" y="755" on="1"/>
        <pt x="1041" y="535" on="1"/>
        <pt x="1041" y="290" on="0"/>
        <pt x="778" y="-21" on="0"/>
        <pt x="579" y="-21" on="1"/>
        <pt x="380" y="-21" on="0"/>
        <pt x="123" y="248" on="0"/>
        <pt x="123" y="446" on="1"/>
        <pt x="123" y="687" on="0"/>
        <pt x="360" y="953" on="0"/>
        <pt x="571" y="953" on="1"/>
        <pt x="708" y="953" on="0"/>
        <pt x="927" y="851" on="0"/>
        <pt x="980" y="761" on="1"/>
        <pt x="984" y="766" on="1"/>
        <pt x="985" y="945" on="0"/>
        <pt x="877" y="1204" on="0"/>
        <pt x="777" y="1295" on="1"/>
        <pt x="417" y="1089" on="1"/>
        <pt x="389" y="1137" on="1"/>
        <pt x="730" y="1332" on="1"/>
        <pt x="676" y="1372" on="0"/>
        <pt x="551" y="1438" on="0"/>
        <pt x="478" y="1467" on="1"/>
        <pt x="498" y="1517" on="1"/>
        <pt x="583" y="1483" on="0"/>
        <pt x="724" y="1406" on="0"/>
        <pt x="782" y="1362" on="1"/>
        <pt x="1042" y="1511" on="1"/>
        <pt x="1071" y="1463" on="1"/>
      </contour>
      <contour>
        <pt x="583" y="37" on="1"/>
        <pt x="762" y="37" on="0"/>
        <pt x="987" y="316" on="0"/>
        <pt x="987" y="535" on="1"/>
        <pt x="987" y="663" on="1"/>
        <pt x="944" y="758" on="0"/>
        <pt x="729" y="895" on="0"/>
        <pt x="571" y="895" on="1"/>
        <pt x="373" y="895" on="0"/>
        <pt x="178" y="646" on="0"/>
        <pt x="178" y="446" on="1"/>
        <pt x="178" y="282" on="0"/>
        <pt x="397" y="37" on="0"/>
      </contour>
    </TTGlyph>
    <TTGlyph name="exclam" xMin="147" yMin="0" xMax="242" yMax="1456">
      <contour>
        <pt x="221" y="478" on="1"/>
        <pt x="167" y="478" on="1"/>
        <pt x="167" y="1456" on="1"/>
        <pt x="221" y="1456" on="1"/>
      </contour>
      <contour>
        <pt x="242" y="0" on="1"/>
        <pt x="147" y="0" on="1"/>
        <pt x="147" y="134" on="1"/>
        <pt x="242" y="134" on="1"/>
      </contour>
    </TTGlyph>
    <TTGlyph name="exclamdbl" xMin="147" yMin="0" xMax="639" yMax="1456">
      <component glyphName="exclam" x="0" y="0" flags="0x4"/>
      <component glyphName="exclam" x="397" y="0" flags="0x4"/>
    </TTGlyph>
    <TTGlyph name="exclamdown" xMin="147" yMin="-374" xMax="242" yMax="1082">
      <contour>
        <pt x="221" y="-374" on="1"/>
        <pt x="167" y="-374" on="1"/>
        <pt x="167" y="604" on="1"/>
        <pt x="221" y="604" on="1"/>
      </contour>
      <contour>
        <pt x="242" y="918" on="1"/>
        <pt x="147" y="918" on="1"/>
        <pt x="147" y="1082" on="1"/>
        <pt x="242" y="1082" on="1"/>
      </contour>
    </TTGlyph>
    <TTGlyph name="f" xMin="66" yMin="0" xMax="665" yMax="1581">
      <contour>
        <pt x="254" y="0" on="1"/>
        <pt x="254" y="1027" on="1"/>
        <pt x="66" y="1027" on="1"/>
        <pt x="66" y="1082" on="1"/>
        <pt x="254" y="1082" on="1"/>
        <pt x="254" y="1260" on="1"/>
        <pt x="254" y="1413" on="0"/>
        <pt x="403" y="1581" on="0"/>
        <pt x="537" y="1581" on="1"/>
        <pt x="570" y="1581" on="0"/>
        <pt x="635" y="1573" on="0"/>
        <pt x="665" y="1564" on="1"/>
        <pt x="657" y="1512" on="1"/>
        <pt x="625" y="1520" on="0"/>
        <pt x="576" y="1527" on="0"/>
        <pt x="538" y="1527" on="1"/>
        <pt x="430" y="1527" on="0"/>
        <pt x="308" y="1385" on="0"/>
        <pt x="308" y="1260" on="1"/>
        <pt x="308" y="1082" on="1"/>
        <pt x="594" y="1082" on="1"/>
        <pt x="594" y="1027" on="1"/>
        <pt x="308" y="1027" on="1"/>
        <pt x="308" y="0" on="1"/>
      </contour>
    </TTGlyph>
    <TTGlyph name="fi" xMin="66" yMin="0" xMax="884" yMax="1581">
      <contour>
        <pt x="254" y="0" on="1"/>
        <pt x="254" y="1027" on="1"/>
        <pt x="66" y="1027" on="1"/>
        <pt x="66" y="1082" on="1"/>
        <pt x="254" y="1082" on="1"/>
        <pt x="254" y="1240" on="1"/>
        <pt x="254" y="1403" on="0"/>
        <pt x="425" y="1581" on="0"/>
        <pt x="577" y="1581" on="1"/>
        <pt x="644" y="1581" on="0"/>
        <pt x="780" y="1554" on="0"/>
        <pt x="845" y="1524" on="1"/>
        <pt x="837" y="1472" on="1"/>
        <pt x="771" y="1501" on="0"/>
        <pt x="660" y="1527" on="0"/>
        <pt x="578" y="1527" on="1"/>
        <pt x="452" y="1527" on="0"/>
        <pt x="308" y="1375" on="0"/>
        <pt x="308" y="1240" on="1"/>
        <pt x="308" y="1082" on="1"/>
        <pt x="594" y="1082" on="1"/>
        <pt x="594" y="1027" on="1"/>
        <pt x="308" y="1027" on="1"/>
        <pt x="308" y="0" on="1"/>
      </contour>
      <contour>
        <pt x="884" y="0" on="1"/>
        <pt x="830" y="0" on="1"/>
        <pt x="830" y="1082" on="1"/>
        <pt x="884" y="1082" on="1"/>
      </contour>
    </TTGlyph>
    <TTGlyph name="five" xMin="183" yMin="-21" xMax="1024" yMax="1456">
      <contour>
        <pt x="201" y="662" on="1"/>
        <pt x="279" y="1456" on="1"/>
        <pt x="969" y="1456" on="1"/>
        <pt x="969" y="1403" on="1"/>
        <pt x="328" y="1403" on="1"/>
        <pt x="267" y="785" on="1"/>
        <pt x="330" y="848" on="0"/>
        <pt x="479" y="912" on="0"/>
        <pt x="624" y="916" on="1"/>
        <pt x="798" y="921" on="0"/>
        <pt x="1024" y="673" on="0"/>
        <pt x="1024" y="464" on="1"/>
        <pt x="1024" y="241" on="0"/>
        <pt x="814" y="-21" on="0"/>
        <pt x="594" y="-21" on="1"/>
        <pt x="417" y="-21" on="0"/>
        <pt x="183" y="180" on="0"/>
        <pt x="188" y="377" on="1"/>
        <pt x="190" y="383" on="1"/>
        <pt x="237" y="383" on="1"/>
        <pt x="237" y="211" on="0"/>
        <pt x="429" y="33" on="0"/>
        <pt x="594" y="33" on="1"/>
        <pt x="788" y="33" on="0"/>
        <pt x="969" y="247" on="0"/>
        <pt x="969" y="462" on="1"/>
        <pt x="969" y="646" on="0"/>
        <pt x="788" y="858" on="0"/>
        <pt x="625" y="858" on="1"/>
        <pt x="465" y="858" on="0"/>
        <pt x="282" y="751" on="0"/>
        <pt x="242" y="646" on="1"/>
      </contour>
    </TTGlyph>
    <TTGlyph name="five.lnum" xMin="206" yMin="-21" xMax="1047" yMax="1456">
      <contour>
        <pt x="224" y="662" on="1"/>
        <pt x="302" y="1456" on="1"/>
        <pt x="992" y="1456" on="1"/>
        <pt x="992" y="1403" on="1"/>
        <pt x="351" y="1403" on="1"/>
        <pt x="290" y="785" on="1"/>
        <pt x="353" y="848" on="0"/>
        <pt x="502" y="912" on="0"/>
        <pt x="647" y="916" on="1"/>
        <pt x="821" y="921" on="0"/>
        <pt x="1047" y="673" on="0"/>
        <pt x="1047" y="464" on="1"/>
        <pt x="1047" y="241" on="0"/>
        <pt x="837" y="-21" on="0"/>
        <pt x="617" y="-21" on="1"/>
        <pt x="440" y="-21" on="0"/>
        <pt x="206" y="180" on="0"/>
        <pt x="211" y="377" on="1"/>
        <pt x="213" y="383" on="1"/>
        <pt x="260" y="383" on="1"/>
        <pt x="260" y="211" on="0"/>
        <pt x="452" y="33" on="0"/>
        <pt x="617" y="33" on="1"/>
        <pt x="811" y="33" on="0"/>
        <pt x="992" y="247" on="0"/>
        <pt x="992" y="462" on="1"/>
        <pt x="992" y="646" on="0"/>
        <pt x="811" y="858" on="0"/>
        <pt x="648" y="858" on="1"/>
        <pt x="488" y="858" on="0"/>
        <pt x="305" y="751" on="0"/>
        <pt x="265" y="646" on="1"/>
      </contour>
    </TTGlyph>
</ttFont>
